<?xml version="1.0" encoding="utf-8"?>
<!-- Generator: Adobe Illustrator 24.3.0, SVG Export Plug-In . SVG Version: 6.00 Build 0)  -->
<svg id='svg' version="1.1" xmlns="http://www.w3.org/2000/svg" xmlns:xlink="http://www.w3.org/1999/xlink" x="0px" y="0px"
	 viewBox="0 0 1500 800" enable-background="new 0 0 1317.82 763.92" xml:space="preserve">
<g id="dogo" fill='white'>
	<path  d="M497.78,261.02c-2.49,4.44-4.99,8.88-7.48,13.32c-13.35,2.69-17.23,12.88-19.65,24.44
		c-2.96,14.16-2.42,27.93-16.92,39.45c-19.67,15.65-43.18,30.1-48.7,58.48c-0.9,4.65-8.08,7.25-9.36,5.09
		c-18.28-30.84-29.99,1.04-44.36,4.56c-4.14,1.01-7.7,6.93-12.39,3.32c-4.43-3.43-5.01-8.97-5.33-14.86
		c-1.66-30.06,8.67-61.64-9.99-89.66c-14.61-21.91-27.55-43.65-4.92-68.12c33.86-18.86,71.5-16.98,108.31-19.66
		c4.1,11.73,14.59,11.97,24.38,13.81c19.64,3.68,33.54,11.82,27.1,35.66c-0.65,2.39-5.18,6.94,0.82,8.39
		c5.97,1.44,5.88-3.97,7.14-7.86c1.11-3.4,3.09-6.51,4.68-9.75C493.32,258.76,495.54,259.89,497.78,261.02z"/>
	<path  d="M90.54,433.77c-15.46-28.64-7.75-58.51-4.8-88.17c0.97-9.77,1.16-19.62,1.71-29.43
		c7.05-0.08,14.1-0.15,21.15-0.23c0.94,0.1,1.88,0.2,2.82,0.3c2.09,2.04,5.12,3.7,6.11,6.17c9.06,22.49,24.67,27.81,46.79,19.45
		c19-7.18,38.43-16.56,57.43,0.4c0.6,25.35,20.82,33.41,38.54,43.68c2.16,3.79,4.31,7.58,6.47,11.37
		c-0.31,25.65-0.62,51.3-0.93,76.95c-2.57,8.33-5.15,16.65-7.72,24.98c-5.5-1.02-11.28-1.29-16.44-3.22
		c-15.09-5.63-13.21-22.95-22.2-33.18C183.37,421.79,134.41,439.33,90.54,433.77z"/>
	<path  d="M618.56,584.57c-6.59-18.03-13.17-36.07-19.76-54.1c-4.05-14.25-6.47-26.78,6.93-39.54
		c13.29-12.65,17.69-31.12,14.17-49.56c-6.35-33.35-37.09-43.62-79.4-27.34c-5.59-28.07-11.34-56.11-16.7-84.23
		c-3.54-18.57-5.96-38.03,10.87-51.37c16.75-13.27,33.79-6.8,49.44,4.41c18.86,34.87,26.3,73.18,24.91,111.67
		c-1.03,28.53,21.7,44.42,26.67,69.29c9.94,49.71,14.71,99.43,10.94,149.97c-2.14,4.5,0.46,12.19-6.52,13.19
		c-5.96,0.85-7.99-5.47-9.77-9.89C626.06,606.38,622.44,595.42,618.56,584.57z"/>
	<path  d="M343.85,442.26c-2.58,1.69-4.95,4.07-7.78,4.94c-19.17,5.89-38.95,11.05-30.73,38.63
		c-3.23,15.89-6.47,31.79-9.71,47.68c-1.33,2.87-2.66,5.75-3.99,8.62c-2.87,1.54-6.13,2.64-8.55,4.71
		c-14.32,12.26-26.18,14.02-31.98-7.64c-3.79-14.18,3.7-26.78,7-39.95c2.57-8.33,5.15-16.65,7.71-24.98c0-0.01,0.01-0.01,0.01-0.02
		c13.6-25.48,16.06-51.1,0.93-76.93c-2.15-3.78-4.31-7.57-6.46-11.37c-10.76-17.73-21.52-35.46-32.27-53.18
		c1.04-3.78,2.07-7.57,3.11-11.35c9.65,3.98,19.49,3.64,26.33-4.2c12.75-14.63,24.27-30.33,36.29-45.59
		c25.66,47.01,49.69,94.38,32.13,150.6c-9.14,18.15-7.77,27.92,15.91,19.92C342.4,441.94,343.17,442.21,343.85,442.26z"/>
	<path  d="M291.63,542.12c1.33-2.87,2.66-5.75,3.99-8.62c10.11,6.73,11.3,15.01,6.17,25.91
		c-11.93,25.36-0.77,52.12-3.66,78.19c-1.82,16.44-3.45,32.57-11.43,47.33c-3.71,6.88-2.33,11.2,4.54,15.64
		c13.83,8.96,40.39,10.23,30.71,36.15c-11.28,30.22-37.86,29.81-64.3,24.28c-16.23-3.39-33.24-4.8-47.34-15.06
		c7.27-1.36,17.81,3.5,14.26-12.95c-2.83-13.12,7.74-19.3,20.9-18.93c0.9,0.03,1.8-0.2,2.7-0.31c-0.5-0.62-0.96-1.3-1.52-1.86
		c-8.32-8.4-18.72-11.51-30.19-12.99c-12.03-1.55-23.33-5.09-25.86-19.63c36.02,14.83,51.91,9.87,53.68-19.84
		c2.56-42.89,1.85-85.98,2.54-128.98c0.33,4.76,0.51,9.53,1.04,14.27c0.8,7.12,2.76,14.67,9.97,16.94c11.01,3.47,21.54-0.81,31-6.4
		C293.56,552.49,293.23,547.06,291.63,542.12z"/>
	<path  d="M308.24,234.93c-4.83,12.23-9.66,24.46-14.49,36.7c-12.03,15.26-23.54,30.96-36.29,45.59
		c-6.84,7.84-16.68,8.18-26.33,4.2c-5.81-8.34-12.57-16.04-12.65-27.28c-0.06-8.8,2.67-19.43-10.11-22.84
		c1.34-12.1,2.68-24.2,4.02-36.28c20.47-27.71,38.41-55.51,17.12-91.49c-6.89-11.65-8.91-25.1,1.99-36.81
		c36.91,34.44,58.57,78,74.73,124.83C306.64,232.76,307.56,233.8,308.24,234.93z"/>
	<path  d="M71.67,283.72c-37.31,18.97-44.17-14.87-53.38-34.71c-14.72-31.72-33.55-67.89,2.3-98.1
		c26.26-22.13,43.07-56.38,80.43-64.69c-2.74,5.56-5.47,11.13-8.21,16.69c-0.59-0.3-1.19-0.61-1.78-0.91
		c-9.06,21.6-25.37,40.36-26.31,65.13c-0.81,21.21,0.76,41.71,21.93,54.14c3.02,0.75,6.04,1.51,9.06,2.26
		C92.22,245.4,84.11,265.43,71.67,283.72z"/>
	<path  d="M190.62,679.29c2.52,14.54,13.83,18.08,25.86,19.63c11.48,1.48,21.88,4.59,30.19,12.99
		c0.56,0.57,1.02,1.24,1.52,1.86c-0.9,0.11-1.8,0.34-2.7,0.31c-13.16-0.37-23.73,5.81-20.9,18.93c3.55,16.45-6.99,11.59-14.26,12.95
		c-7.03-17.08-22.8-14.27-36.4-15.52c-50.41-4.62-52.71-8.3-35.11-56.08c17.85-48.47,2.68-94.53-10.79-140.71
		c-4.83-16.56-8.94-33.32-13.37-49.99c19.78,6.35,20.87,25.56,27.97,40.63c6.21,35.1,20.35,67.46,34.6,99.78
		c0.21,0.48,0.96,0.72,1.46,1.08c0.15-0.83,0.39-1.65,0.45-2.48c2.05-27.27,4.08-54.54,6.11-81.81
		C187.04,587,188.83,633.14,190.62,679.29z"/>
	<path  d="M515.43,437.88c5.47,7.49,9.87,16.17,16.62,22.25c20.5,18.48,19.74,43.01,20.81,67.08
		c1.13,25.3,1.78,49.68,30.92,62.18c6.17,2.65,3.39,18.97-3.57,23.51c-19.38,12.67-40.88,15.42-63.31,6.41
		c-20.5-8.24-25.89-23.17-11.82-38.61c26.97-29.6,8.97-49.33-10.63-70.87c-22.99-25.27-45.04-51.4-67.5-77.16
		c0.68,0.01,1.37,0.02,2.05,0.03c16.99,18.9,34,37.78,50.94,56.73c3.63,4.05,9.64,2.83,9.79-0.26
		c0.99-20.49,25.23-30.61,22.69-52.27C513.43,437.22,514.43,437.55,515.43,437.88z"/>
	<path  d="M515.43,437.88c-1-0.33-1.99-0.66-2.99-0.98c-0.01-4.17-0.02-8.34-0.03-12.51
		c3.81-2.79,7.61-5.58,11.42-8.37c2.42,0.3,4.84,0.6,7.25,0.89c3.14-0.96,6.28-1.92,9.43-2.88c42.31-16.28,73.05-6.01,79.4,27.34
		c3.51,18.44-0.89,36.91-14.17,49.56c-13.4,12.77-10.99,25.29-6.93,39.54c-24.97-26.59-50.4-52.78-68.69-84.81
		c-2.84-4.98-7.3-9.03-11.02-13.52C517.87,434.05,516.65,435.96,515.43,437.88z"/>
	<path  d="M231.49,106.71c-10.9,11.7-8.88,25.15-1.98,36.81c21.3,35.98,3.35,63.78-17.12,91.49
		c-16.28-0.78-32.56-1.56-48.85-2.33c-0.37-0.31-0.74-0.61-1.11-0.92c-1.43-12.75-2.85-25.49-4.28-38.24
		c-1.34-9.45-2.69-18.89-4.03-28.34c10.54-28.06,2.38-69.91,51.6-69.49c5.01,0.04,10.05-2.16,15.07-3.32
		C224.35,97.15,227.92,101.93,231.49,106.71z M197.94,212.43c15.01-0.21,28.03-1.02,28.23-19.46c0.2-18.63-9.22-28.51-27.7-28.79
		c-19.49-0.29-27.49,13.55-28.15,29.45C169.54,212.91,186.43,211.02,197.94,212.43z"/>
	<path  d="M571.53,137.98c3.58-20.59,7.15-41.17,10.73-61.76c16.01,5.71,33.5,10.5,35.16,31.4
		c1.14,14.3-0.02,28.78-0.15,43.18c-18.92,34.19-37.81,68.39-56.86,102.5c-0.72,1.29-3.33,2.74-4.51,2.37
		c-12.21-3.84-24.31-8.04-36.44-12.14c-3.58-28.74,28.3-33.66,37.22-55.19C563.56,171.72,587.12,161.24,571.53,137.98z"/>
	<path  d="M142.62,524.28c-7.1-15.07-8.19-34.28-27.97-40.63c-8.04-16.63-16.07-33.26-24.11-49.88
		c43.87,5.56,92.82-11.98,128.92,29.08c8.99,10.22,7.11,27.55,22.2,33.18c5.16,1.92,10.94,2.19,16.44,3.22
		c-3.3,13.16-10.79,25.76-7,39.95c5.8,21.66,17.65,19.9,31.97,7.65c2.42-2.07,5.68-3.17,8.56-4.72c1.59,4.94,1.93,10.37-2.78,13.15
		c-9.45,5.59-19.98,9.87-31,6.4c-7.22-2.27-9.18-9.82-9.97-16.94c-0.53-4.74-0.71-9.51-1.04-14.27c-1.54-4.11-2.07-9.12-4.79-12.18
		c-10.55-11.89-27.22-8.4-40.05-14.89c1.76-2.84,4.73-5.53,5.07-8.53c2.56-22.39-14.59-19.75-28.33-22.4
		c-36.64-7.08-40.13-4.45-38.1,31.8C141.02,510.95,141.94,517.61,142.62,524.28z"/>
	<path  d="M485.27,293.93c-13.75,24.98-27.12,50.15-40.63,75.26c-12.89,14.21-25.77,28.42-38.65,42.63
		c-4.49,4.17-8.99,8.35-13.48,12.51c-5.98,9.43-17.04,7.14-25.5,10.85c-7.35,3.21-15.41,4.78-23.16,7.07
		c-0.68-0.05-1.45-0.32-2.05-0.11c-23.68,8-25.05-1.77-15.91-19.92c17.56-56.22-6.47-103.59-32.13-150.6
		c4.83-12.24,9.66-24.47,14.49-36.7c3.48,0.7,6.94,1.41,10.42,2.11c-22.64,24.46-9.69,46.2,4.92,68.12
		c18.67,28.03,8.34,59.6,9.99,89.66c0.33,5.9,0.9,11.44,5.33,14.86c4.69,3.61,8.26-2.31,12.39-3.32
		c14.37-3.53,26.08-35.41,44.36-4.56c1.28,2.16,8.46-0.43,9.36-5.09c5.52-28.37,29.03-42.82,48.7-58.48
		c14.5-11.53,13.95-25.29,16.92-39.45c2.42-11.56,6.3-21.76,19.65-24.44C491.54,281.63,488.71,287.69,485.27,293.93z"/>
	<path  d="M618.56,584.57c3.89,10.85,7.5,21.81,11.8,32.49c1.78,4.42,3.81,10.74,9.77,9.89
		c6.98-1,4.38-8.68,6.52-13.19c10.15,9.93,22.42,11.33,35.08,7.16c16.87-5.56,26.09,2.91,31.47,16.75
		c5.95,15.32-0.59,27.23-15.31,32.33c-26.3,9.12-52.22,8.04-76.12-8.3c-9.93-6.79-4.87-16.9-5.01-25.37
		C616.48,619.09,617.86,601.83,618.56,584.57z"/>
	<path  d="M220.79,92.37c-5.02,1.16-10.06,3.36-15.07,3.32c-49.21-0.42-41.05,41.43-51.6,69.49
		c-4.02,3.57-9.33,6.4-11.84,10.83c-11.97,21.08-23.9,40.75-51.67,19.54c11.56-3.59,27.71-1.96,31.98-15.32
		c4.63-14.51-8.29-21.66-19.89-27.27c-2.32-1.12-4.68-2.15-7.03-3.22c14.35-13.63,27.45-19.82,36.61,5.17
		c0.99,2.69,5.46,4.11,8.31,6.12c2.07-2.98,5.21-5.69,6.02-8.98c4.61-18.78,8.48-37.73,13.04-56.52c1.11-4.6-2.25-5.69-4.14-4.93
		c-26.45,10.6-14.41-13.79-20.13-21.91C168.26,60.69,197.06,67.4,220.79,92.37z"/>
	<path  d="M135.38,68.67c5.72,8.12-6.32,32.51,20.13,21.91c1.89-0.76,5.26,0.33,4.14,4.93
		c-4.56,18.79-8.43,37.75-13.04,56.52c-0.81,3.29-3.95,6-6.02,8.98c-2.85-2.01-7.32-3.43-8.31-6.12
		c-9.16-24.98-22.26-18.79-36.61-5.17c-3.46,0.4-6.92,0.8-10.38,1.2c2.51-16,5.02-32.01,7.52-48.01c2.74-5.56,5.47-11.13,8.21-16.69
		C112.47,80.37,123.93,74.52,135.38,68.67z"/>
	<path  d="M617.26,150.8c0.13-14.4,1.29-28.88,0.15-43.18c-1.66-20.9-19.14-25.69-35.16-31.4
		c-5.95-24.32-5.76-47.98,10.26-68.76c6.88-8.92,18.67-11.06,22.6,0.37c16.03,46.6,21.37,94.16,4.48,142.07
		c-0.37,1.06-1.34,1.91-2.03,2.85C617.46,152.11,617.36,151.46,617.26,150.8z"/>
	<path  d="M523.83,416.02c-3.8,2.79-7.61,5.57-11.42,8.37c-4.17-8.86-13.24-10.32-20.98-13.48
		c-29.8-12.15-62.31-0.65-62.43,21.8c-0.68-0.01-1.36-0.02-2.05-0.03c-8.43-6.02-17.08-13.15-20.12,4.67
		c-0.19,1.08-2.74,2.4-4.27,2.52c-38.33,2.85-64.87,30.59-97.24,45.96c-8.22-27.57,11.56-32.74,30.73-38.63
		c2.83-0.87,5.2-3.25,7.78-4.94c7.75-2.29,15.81-3.86,23.16-7.07c8.46-3.71,19.52-1.42,25.5-10.85c4.49-4.17,8.99-8.35,13.48-12.51
		c39-23.4,77.54-23.65,115.56,2.27C522.31,414.73,523.07,415.37,523.83,416.02z"/>
	<path  d="M617.26,150.8c0.1,0.65,0.2,1.31,0.3,1.96c-15.02,28.28-28.56,57.5-45.63,84.5
		c-10.01,15.83-10.34,26.24,4.75,37.06c2.98,2.14,4.98,5.64,7.43,8.52c-15.64-11.22-32.69-17.68-49.44-4.41
		c-16.83,13.34-14.41,32.8-10.87,51.37c5.36,28.11,11.11,56.15,16.7,84.23c-3.14,0.96-6.28,1.92-9.43,2.88
		c0.81-1.44,2.66-3.32,2.27-4.25c-21.82-51.38-29.31-104.8-23.24-160.21c3.11-2.97,6.22-5.95,9.34-8.92
		c12.13,4.1,24.23,8.3,36.44,12.14c1.18,0.37,3.79-1.08,4.51-2.37C579.45,219.19,598.35,184.99,617.26,150.8z"/>
	<path  d="M519.44,243.53c-3.11,2.97-6.22,5.95-9.33,8.92c-4.11,2.86-8.22,5.71-12.34,8.57
		c-2.22-1.13-4.45-2.26-6.67-3.39c-1.59,3.24-3.57,6.36-4.68,9.75c-1.27,3.89-1.18,9.3-7.14,7.86c-6-1.45-1.47-6-0.83-8.4
		c6.44-23.83-7.45-31.97-27.1-35.66c-9.8-1.84-20.29-2.08-24.38-13.81c17.78,0.95,35.65,1.16,53.34,3.01
		c38.07,3.99,58.49-17.84,73.59-48.38c5.66-11.45,11.74-22.69,17.63-34.03c15.59,23.26-7.98,33.74-14.87,50.36
		C547.74,209.86,515.86,214.79,519.44,243.53z"/>
	<path  d="M158.15,193.51c1.43,12.75,2.85,25.49,4.28,38.24c-51.42-9.04-69.33,4.42-58.29,43.81
		c2.25,13.38-11.62,28.53,4.46,40.38c-7.05,0.08-14.1,0.15-21.15,0.23c-5.26-10.82-10.51-21.63-15.77-32.45
		c12.43-18.3,20.55-38.32,24.04-60.19c19.03-5.78,38.12-11.41,48.48-30.84c2.74-5.14,5.75-10.13,8.64-15.18
		C154.6,182.85,156.38,188.18,158.15,193.51z"/>
	<path  d="M531.08,416.91c-2.41-0.3-4.83-0.59-7.25-0.89c-0.76-0.64-1.52-1.28-2.28-1.93
		c-7.91-9.73-18.09-17.16-22.83-29.99c-13.55-36.69-23.74-39.1-54.07-14.91c13.51-25.1,26.88-50.28,40.63-75.26
		c3.44-6.24,6.27-12.3,5.03-19.58c2.49-4.44,4.99-8.88,7.48-13.32c4.11-2.85,8.22-5.72,12.34-8.57
		c-6.07,55.4,1.42,108.82,23.24,160.21C533.74,413.59,531.89,415.47,531.08,416.91z"/>
	<path  d="M208.37,271.3c12.78,3.42,10.05,14.04,10.11,22.84c0.08,11.23,6.84,18.93,12.65,27.28
		c-1.04,3.78-2.08,7.57-3.12,11.35c-5.84,0.7-4.94,5.84-6.27,9.5c-19.01-16.96-38.43-7.58-57.43-0.4
		c-22.12,8.36-37.72,3.05-46.79-19.45c-1-2.48-4.03-4.14-6.12-6.17c13.55,1.82,25.79-2.12,37.46-8.54
		C178.59,311.71,195.06,294.08,208.37,271.3z"/>
	<path  d="M148.87,307.71c-11.67,6.42-23.91,10.36-37.46,8.54c-0.94-0.1-1.88-0.2-2.82-0.3
		c-16.08-11.85-2.21-27.01-4.46-40.39c14.57,23.52,34.14,21.02,55.24,10.62C155.87,293.35,152.37,300.53,148.87,307.71z"/>
	<path  d="M221.75,342.27c1.33-3.67,0.44-8.8,6.27-9.5c10.76,17.73,21.52,35.45,32.27,53.18
		C242.57,375.68,222.35,367.62,221.75,342.27z"/>
	<path  d="M266.76,397.32c15.12,25.84,12.66,51.46-0.94,76.95C266.13,448.62,266.45,422.97,266.76,397.32z"/>
	<path  d="M202.01,503.39c12.83,6.49,29.49,3,40.05,14.89c2.72,3.06,3.25,8.07,4.79,12.18
		c-0.69,43,0.03,86.09-2.54,128.98c-1.78,29.72-17.67,34.67-53.68,19.84c-1.79-46.15-3.58-92.29-5.38-138.44
		c0.39-3.58,1.68-7.33,1.01-10.7C183.53,516.33,179.86,502.42,202.01,503.39z"/>
	<path  d="M148.87,307.71c3.5-7.18,7.01-14.35,10.51-21.53c7.25-17.38,19.32-34.39,4.16-53.51
		c16.28,0.78,32.56,1.56,48.85,2.33c-1.34,12.1-2.68,24.2-4.02,36.29C195.06,294.08,178.59,311.71,148.87,307.71z"/>
	<path  d="M158.15,193.51c-1.77-5.33-3.54-10.66-5.31-15.99c-2.89,5.06-5.9,10.05-8.64,15.18
		c-10.36,19.43-29.46,25.06-48.48,30.84c-3.02-0.75-6.04-1.51-9.06-2.26c-3.5-14.02-7.01-28.04-10.51-42.07
		c4.82,5.44,9.65,10.89,14.47,16.33c27.77,21.21,39.7,1.54,51.67-19.54c2.51-4.42,7.82-7.26,11.84-10.83
		C155.46,174.62,156.8,184.06,158.15,193.51z"/>
	<path  d="M76.14,179.21c3.5,14.02,7.01,28.04,10.51,42.07c-21.17-12.43-22.74-32.94-21.93-54.14
		c0.95-24.78,17.25-43.53,26.31-65.13c0.59,0.3,1.19,0.61,1.78,0.91c-2.51,16-5.02,32.01-7.52,48.01
		C71.37,156.83,71.1,167.16,76.14,179.21z"/>
	<path  d="M202.01,503.39c-22.15-0.97-18.47,12.94-15.75,26.76c0.67,3.37-0.62,7.13-1.01,10.7
		c-2.03,27.27-4.07,54.54-6.11,81.81c-0.06,0.83-0.3,1.65-0.45,2.48c-0.5-0.35-1.25-0.6-1.46-1.08
		c-14.25-32.32-28.39-64.68-34.6-99.78c-0.67-6.67-1.6-13.33-1.98-20.02c-2.03-36.25,1.46-38.89,38.1-31.8
		c13.75,2.66,30.9,0.01,28.33,22.4C206.73,497.86,203.76,500.56,202.01,503.39z"/>
	<path  d="M429.01,432.69c0.12-22.45,32.63-33.94,62.42-21.79c7.73,3.15,16.81,4.61,20.98,13.47
		c0.01,4.17,0.02,8.34,0.03,12.51c2.54,21.66-21.7,31.78-22.69,52.27c-0.15,3.09-6.17,4.31-9.79,0.26
		C463.01,470.48,446,451.6,429.01,432.69z"/>
	<path  d="M521.55,414.09c-38.02-25.92-76.56-25.67-115.56-2.27c12.89-14.21,25.77-28.42,38.65-42.63
		c30.33-24.19,40.52-21.78,54.07,14.91C503.45,396.93,513.64,404.36,521.55,414.09z"/>
</g>
<g id="outlines">
	<g>
		<path d="M426.3,218.43c3.94,10.23,12.79,11.7,21.35,13.13c1.16,0.19,2.36,0.39,3.53,0.61c13.09,2.45,21.02,6.51,24.95,12.77
			c3.4,5.41,3.85,12.49,1.37,21.65c-0.12,0.45-0.46,1.08-0.83,1.76c-0.88,1.64-1.98,3.68-1.18,5.48c0.52,1.16,1.68,1.94,3.55,2.39
			c0.73,0.18,1.42,0.27,2.04,0.27c0.35,0,0.67-0.03,0.97-0.08c-8.05,4.9-10.64,13.83-12.38,22.18c-0.55,2.61-0.98,5.22-1.39,7.75
			c-1.86,11.29-3.62,21.95-15.17,31.13c-2.55,2.03-5.23,4.08-7.81,6.07c-17.88,13.74-36.37,27.94-41.25,53
			c-0.57,2.93-4.31,5.05-6.56,5.05c-0.48,0-0.86-0.11-0.96-0.28c-5.51-9.3-10.98-13.81-16.71-13.82c-5.95,0-11.23,4.79-16.34,9.43
			c-4.04,3.67-8.21,7.46-12.41,8.49c-1.58,0.39-3.02,1.36-4.41,2.31c-1.62,1.1-3.15,2.14-4.67,2.14c-0.83,0-1.63-0.31-2.46-0.95
			c-4.02-3.11-4.62-8.24-4.95-14.13c-0.48-8.74,0.07-17.78,0.6-26.52c1.3-21.4,2.64-43.53-10.76-63.64
			c-7.33-11-14.1-21.79-16.28-32.74c-2.41-12.12,1.24-23.26,11.15-34.02c27.51-15.27,58.13-16.81,87.74-18.3
			C413.35,219.22,419.88,218.89,426.3,218.43 M491.54,258.98c1.62,0.82,3.23,1.64,4.85,2.46c-1.08,1.92-2.16,3.85-3.24,5.77
			c-1.17,2.08-2.34,4.17-3.51,6.25c-1.88,0.41-3.57,0.96-5.09,1.64c1.28-1.34,1.79-3.43,2.23-5.25c0.19-0.76,0.36-1.48,0.58-2.16
			c0.74-2.26,1.92-4.46,3.06-6.6C490.8,260.4,491.18,259.69,491.54,258.98 M426.97,217.38c-36.81,2.69-74.45,0.8-108.31,19.66
			c-22.64,24.46-9.69,46.2,4.92,68.12c18.67,28.03,8.34,59.6,9.99,89.66c0.33,5.9,0.9,11.44,5.33,14.86
			c1.08,0.83,2.09,1.16,3.07,1.16c3.29,0,6.14-3.7,9.32-4.47c9.77-2.4,18.3-17.89,28.51-17.89c4.81,0,10,3.44,15.85,13.33
			c0.31,0.53,0.98,0.77,1.82,0.77c2.6,0,6.87-2.34,7.55-5.86c5.52-28.37,29.03-42.82,48.7-58.48c14.5-11.53,13.95-25.29,16.92-39.45
			c2.42-11.56,6.3-21.76,19.65-24.44c2.49-4.44,4.99-8.88,7.48-13.32c-2.23-1.14-4.45-2.26-6.68-3.39
			c-1.59,3.24-3.58,6.35-4.68,9.75c-1.12,3.45-1.18,8.1-5.34,8.1c-0.53,0-1.13-0.08-1.8-0.24c-5.99-1.45-1.47-6-0.82-8.39
			c6.44-23.84-7.46-31.98-27.1-35.66C441.56,229.35,431.07,229.11,426.97,217.38L426.97,217.38z"/>
	</g>
	<g>
		<path d="M108.55,316.94l2.42,0.26c0.63,0.59,1.32,1.14,1.99,1.68c1.57,1.26,3.06,2.46,3.64,3.91
			c6.46,16.02,16.22,23.81,29.87,23.81c5.4,0,11.53-1.28,18.2-3.8c1.37-0.52,2.74-1.05,4.12-1.58c9.57-3.69,19.46-7.5,29.11-7.5
			c8.46,0,15.94,2.95,22.86,9.01c0.75,22.74,17.13,31.85,32.98,40.67c1.92,1.07,3.9,2.17,5.82,3.28l4.37,7.68l1.83,3.22l-0.75,61.48
			l-0.18,15.06l-7.41,23.99c-1.46-0.25-2.95-0.46-4.39-0.67c-3.72-0.52-7.56-1.07-11-2.35c-8.8-3.28-11.54-10.71-14.43-18.58
			c-1.85-5.02-3.76-10.21-7.37-14.32c-23.21-26.4-51.83-28.61-76.83-28.61c-4.93,0-9.97,0.11-14.83,0.21
			c-4.86,0.1-9.88,0.21-14.79,0.21c-8.92,0-16.11-0.37-22.58-1.16c-12.39-23.34-9.26-48.03-6.23-71.92
			c0.63-4.99,1.29-10.15,1.79-15.23c0.67-6.73,0.97-13.6,1.27-20.24c0.12-2.72,0.24-5.53,0.39-8.3L108.55,316.94 M108.6,315.94
			c-7.05,0.08-14.1,0.15-21.15,0.23c-0.55,9.81-0.73,19.66-1.71,29.43c-2.95,29.66-10.66,59.53,4.8,88.17
			c7.62,0.97,15.38,1.23,23.22,1.23c9.84,0,19.78-0.42,29.62-0.42c27.42,0,54.13,3.3,76.08,28.27c8.99,10.22,7.11,27.55,22.2,33.18
			c5.16,1.92,10.94,2.19,16.44,3.22c2.57-8.33,5.15-16.65,7.72-24.98c0.31-25.65,0.62-51.3,0.93-76.95
			c-2.16-3.79-4.31-7.58-6.47-11.37c-17.72-10.26-37.94-18.32-38.54-43.68c-7.9-7.05-15.87-9.54-23.85-9.54
			c-11.23,0-22.48,4.95-33.59,9.14c-6.52,2.46-12.46,3.74-17.85,3.74c-12.89,0-22.55-7.32-28.94-23.19c-1-2.48-4.03-4.14-6.11-6.17
			C110.47,316.14,109.53,316.04,108.6,315.94L108.6,315.94z"/>
	</g>
	<g>
		<path d="M554.59,272.02c8.63,0,17.77,3.65,28.76,11.5c17.84,33.08,26.14,70.4,24.68,110.95c-0.6,16.71,6.85,29.24,14.05,41.35
			c5.19,8.74,10.56,17.77,12.64,28.17c10.81,54.06,14.39,102.97,10.94,149.52c-0.71,1.61-0.91,3.48-1.1,5.3
			c-0.42,4.09-0.87,6.62-4.58,7.15c-0.31,0.04-0.62,0.07-0.92,0.07c-4.1,0-5.86-4.47-7.41-8.41c-0.12-0.32-0.25-0.63-0.37-0.93
			c-3.05-7.59-5.81-15.47-8.48-23.08c-1.08-3.08-2.19-6.25-3.31-9.38l-19.74-54.07c-4.08-14.34-6.17-26.28,6.67-38.51
			c12.95-12.34,18.23-30.73,14.47-50.47c-4.39-23.05-20.18-35.74-44.45-35.74c-10.57,0-22.4,2.43-35.18,7.23
			c-1.59-7.97-3.19-15.94-4.79-23.91c-3.89-19.37-7.92-39.41-11.68-59.14c-3.67-19.26-5.63-37.61,10.51-50.4
			C541.41,274.37,547.72,272.02,554.59,272.02 M554.59,271.02c-6.61,0-13.29,2.16-19.91,7.41c-16.83,13.34-14.41,32.8-10.87,51.37
			c5.36,28.11,11.11,56.15,16.7,84.23c13.24-5.1,25.35-7.59,35.93-7.59c23.23,0,39.1,12.02,43.47,34.93
			c3.51,18.44-0.89,36.91-14.17,49.56c-13.4,12.77-10.99,25.29-6.93,39.54c6.59,18.03,13.17,36.07,19.76,54.1
			c3.89,10.85,7.5,21.81,11.8,32.49c1.67,4.15,3.56,9.97,8.71,9.97c0.34,0,0.69-0.03,1.06-0.08c6.98-1,4.38-8.68,6.52-13.19
			c3.76-50.53-1-100.26-10.94-149.97c-4.97-24.86-27.7-40.76-26.67-69.29c1.39-38.49-6.06-76.8-24.91-111.67
			C574.66,276.06,564.69,271.02,554.59,271.02L554.59,271.02z"/>
	</g>
	<g>
		<path d="M293.6,273.44c12.75,23.39,24.68,46.4,31.46,70.31c7.77,27.39,7.73,52.94-0.11,78.11c-5.21,10.37-6.55,16.98-4.2,20.78
			c1.36,2.21,3.94,3.33,7.67,3.33c3.08,0,6.91-0.73,11.7-2.22c-1.43,1.07-2.83,2.03-4.34,2.49l-1.64,0.5
			c-18.64,5.7-37.91,11.59-29.83,39.12c-3.21,15.77-6.42,31.55-9.64,47.32c-0.65,1.4-1.3,2.81-1.95,4.21
			c-0.62,1.33-1.23,2.66-1.85,4c-0.79,0.41-1.62,0.8-2.43,1.18c-2.08,0.98-4.24,1.98-6,3.5c-6.79,5.81-12.53,8.76-17.06,8.76
			c-6.09,0-10.44-5.2-13.3-15.9c-2.69-10.05,0.41-19.14,3.69-28.76c1.18-3.47,2.41-7.07,3.31-10.66c1.28-4.16,2.57-8.31,3.85-12.47
			c1.26-4.08,2.52-8.17,3.78-12.25l0.12-0.13v-0.16c14.82-27.89,15.07-53.3,0.8-77.68c-2.13-3.74-4.26-7.49-6.39-11.25l-0.08-0.15
			c-10.69-17.61-21.37-35.21-32.05-52.81l2.16-7.89l0.54-1.97c3.77,1.43,7.41,2.16,10.84,2.16c6.26,0,11.5-2.37,15.58-7.04
			c9.03-10.36,17.58-21.43,25.84-32.14C287.18,281.69,290.39,277.53,293.6,273.44 M293.76,271.63
			c-12.03,15.26-23.54,30.96-36.29,45.59c-4.1,4.69-9.26,6.7-14.82,6.7c-3.73,0-7.63-0.9-11.51-2.5c-1.04,3.78-2.07,7.57-3.11,11.35
			c10.76,17.73,21.51,35.46,32.27,53.18c2.15,3.79,4.31,7.58,6.46,11.37c15.13,25.84,12.67,51.45-0.93,76.93
			c0,0.01-0.01,0.01-0.01,0.02c-2.57,8.33-5.15,16.65-7.71,24.98c-3.3,13.16-10.79,25.77-7,39.95c3.15,11.79,8.1,16.64,14.27,16.64
			c5.17,0,11.18-3.41,17.71-9c2.42-2.07,5.68-3.17,8.55-4.71c1.33-2.87,2.66-5.75,3.99-8.62c3.24-15.89,6.48-31.79,9.71-47.68
			c-8.22-27.57,11.56-32.74,30.73-38.63c2.83-0.87,5.2-3.25,7.78-4.94c-0.5-0.04-1.04-0.19-1.53-0.19c-0.18,0-0.36,0.02-0.53,0.08
			c-5.69,1.92-10.1,2.82-13.37,2.82c-10.36,0-9.48-8.95-2.54-22.74C343.44,366,319.41,318.64,293.76,271.63L293.76,271.63z"/>
	</g>
	<g>
		<path d="M296.03,535c8.33,5.99,9.82,13.43,4.86,23.99c-7.53,16.01-5.99,32.75-4.49,48.93c0.9,9.74,1.83,19.81,0.75,29.58
			l-0.12,1.11c-1.79,16.25-3.49,31.6-11.19,45.86c-3.92,7.26-2.51,12.18,4.87,16.96c3.48,2.25,7.79,4.05,11.96,5.79
			c13.02,5.42,25.32,10.54,18.36,29.18c-3.63,9.73-8.93,16.58-16.19,20.95c-6.26,3.76-13.88,5.59-23.28,5.59
			c-6.74,0-14.27-0.92-23.68-2.88c-3-0.63-6.08-1.2-9.05-1.74c-12.22-2.26-24.82-4.59-35.66-11.61c0.48-0.02,0.96-0.02,1.43-0.02
			c0.32,0,0.65,0,0.97,0c0.32,0,0.65,0,0.97,0c3.26,0,6.34-0.19,8.22-2.51c1.76-2.19,2.03-5.8,0.83-11.36
			c-1.01-4.68-0.29-8.58,2.15-11.59c3.15-3.9,9.23-6.14,16.68-6.14c0.36,0,0.71,0.01,1.08,0.02l0.17,0c0.65,0,1.26-0.1,1.86-0.2
			c0.27-0.04,0.55-0.09,0.82-0.12l1.79-0.22l-1.13-1.4c-0.15-0.19-0.3-0.39-0.45-0.58c-0.35-0.45-0.71-0.92-1.13-1.36
			c-4.92-4.97-12.86-10.96-30.78-13.27c-11.03-1.42-21.59-4.51-24.62-17.01c12.51,5.02,22.31,7.46,29.9,7.46
			c14.8,0,22.24-9.18,23.42-28.88c1.8-30.09,1.99-60.77,2.18-90.43c0.04-6.43,0.08-12.97,0.14-19.53
			c1.18,5.63,3.71,11.13,9.94,13.09c2.73,0.86,5.57,1.29,8.45,1.29c9.13,0,17.7-4.44,23.35-7.79c5.3-3.13,4.79-9.24,3.34-13.95
			L296.03,535 M246.84,530.46c-0.69,43,0.03,86.09-2.54,128.98c-1.14,19.06-8.09,27.93-22.42,27.93c-8.02,0-18.34-2.77-31.26-8.09
			c2.52,14.54,13.83,18.08,25.86,19.63c11.48,1.48,21.88,4.59,30.19,12.99c0.56,0.57,1.02,1.24,1.52,1.86
			c-0.85,0.1-1.71,0.31-2.56,0.31c-0.05,0-0.09,0-0.14,0c-0.37-0.01-0.74-0.02-1.1-0.02c-12.64,0-22.55,6.2-19.8,18.94
			c2.6,12.06-2.37,12.67-8.07,12.67c-0.64,0-1.29-0.01-1.94-0.01c-1.46,0-2.91,0.04-4.26,0.29c14.1,10.26,31.1,11.67,47.34,15.06
			c8.1,1.69,16.21,2.9,23.89,2.9c17.4,0,32.59-6.22,40.41-27.19c9.67-25.92-16.88-27.2-30.71-36.15c-6.87-4.45-8.25-8.77-4.54-15.64
			c7.97-14.76,9.61-30.9,11.43-47.33c2.88-26.07-8.27-52.83,3.66-78.19c5.13-10.9,3.94-19.18-6.17-25.91
			c-1.33,2.87-2.66,5.75-3.99,8.62c1.59,4.94,1.93,10.37-2.78,13.15c-7.09,4.19-14.79,7.65-22.85,7.65c-2.68,0-5.4-0.38-8.15-1.25
			c-7.22-2.27-9.18-9.82-9.97-16.94C247.35,540,247.18,535.22,246.84,530.46L246.84,530.46z"/>
	</g>
	<g>
		<path d="M231.55,108.13c17.05,16.05,31.52,34.65,44.22,56.84c10.88,19.01,20.54,40.89,29.51,66.9c0.33,0.95,0.89,1.76,1.43,2.55
			c0.14,0.21,0.28,0.41,0.42,0.61c-4.75,12.02-9.5,24.06-14.25,36.09c-3.5,4.44-7.01,8.99-10.41,13.39
			c-8.25,10.68-16.77,21.73-25.77,32.05c-3.68,4.22-8.41,6.36-14.07,6.36c-3.4,0-7.05-0.78-10.86-2.31
			c-0.72-1.03-1.45-2.05-2.18-3.07c-5.17-7.19-10.05-13.98-10.12-23.4c-0.01-1.31,0.04-2.64,0.1-4.04
			c0.3-7.62,0.65-16.22-10.13-19.52c0.6-5.42,1.2-10.84,1.8-16.26c0.7-6.31,1.4-12.62,2.1-18.92
			c21.78-29.51,38.03-56.86,17.01-92.38C220.67,126.61,225.46,115.1,231.55,108.13 M231.49,106.71
			c-10.89,11.7-8.88,25.15-1.99,36.81c21.29,35.98,3.36,63.78-17.12,91.49c-1.34,12.09-2.68,24.19-4.02,36.28
			c12.78,3.42,10.05,14.04,10.11,22.84c0.08,11.24,6.84,18.94,12.65,27.28c3.87,1.6,7.78,2.5,11.51,2.5c5.56,0,10.73-2,14.82-6.7
			c12.75-14.63,24.27-30.33,36.29-45.59c4.83-12.24,9.66-24.47,14.49-36.7c-0.68-1.13-1.6-2.17-2.02-3.39
			C290.05,184.71,268.39,141.15,231.49,106.71L231.49,106.71z"/>
	</g>
	<g>
		<path d="M99.19,87.69l-6.82,13.87l-0.88-0.45l-0.96-0.49l-0.42,1c-2.88,6.87-6.58,13.59-10.16,20.09
			c-7.66,13.92-15.58,28.32-16.24,45.39c-0.39,10.15-0.32,20.89,2.77,30.7c3.33,10.57,9.76,18.53,19.66,24.34l0.12,0.07l0.14,0.03
			l4.53,1.13l3.64,0.91c-3.48,20.95-11.41,40.68-23.59,58.66c-7.05,3.56-13.39,5.36-18.83,5.36c-16.55,0-23.31-16.51-29.28-31.08
			c-1.25-3.06-2.44-5.95-3.68-8.63c-0.55-1.19-1.11-2.39-1.67-3.59c-7.25-15.54-14.75-31.62-16.26-47.58
			c-1.7-18.02,4.83-32.98,19.97-45.74c8.37-7.06,15.89-15.45,23.17-23.57C59.53,111.23,75.15,93.79,99.19,87.69 M101.02,86.22
			c-37.36,8.32-54.17,42.57-80.43,64.69c-35.85,30.21-17.02,66.38-2.3,98.1c7.31,15.74,13.14,40.3,33.87,40.3
			c5.4,0,11.81-1.67,19.52-5.59c12.43-18.3,20.55-38.32,24.04-60.19c-3.02-0.75-6.04-1.51-9.06-2.26
			c-21.17-12.43-22.74-32.94-21.93-54.14c0.95-24.78,17.25-43.53,26.31-65.13c0.59,0.3,1.19,0.61,1.78,0.91
			C95.55,97.35,98.29,91.79,101.02,86.22L101.02,86.22z"/>
	</g>
	<g>
		<path d="M116.1,485.23c13.07,5,16.98,16.14,21.1,27.89c1.34,3.83,2.73,7.79,4.46,11.47c6.32,35.63,20.72,68.29,34.65,99.88
			c0.28,0.64,0.88,0.97,1.37,1.23c0.16,0.09,0.32,0.17,0.43,0.25l1.27,0.9l0.29-1.53c0.05-0.25,0.1-0.5,0.16-0.76
			c0.13-0.59,0.26-1.19,0.31-1.83c1.61-21.4,3.2-42.81,4.8-64.22l4.69,120.81l0,0.07l0.01,0.07c1.49,8.6,5.83,17.76,26.71,20.45
			c13.69,1.77,22.54,5.56,29.61,12.7c0.13,0.13,0.26,0.28,0.38,0.42c-0.24,0.03-0.48,0.05-0.71,0.05l-0.11,0
			c-0.38-0.01-0.76-0.02-1.13-0.02c-8.18,0-14.65,2.44-18.23,6.88c-2.79,3.46-3.67,8.05-2.54,13.27c1.05,4.86,0.91,8.03-0.43,9.69
			c-1.32,1.63-3.9,1.77-6.66,1.77c-0.32,0-0.64,0-0.96,0c-0.33,0-0.65,0-0.98,0c-1.19,0-2.44,0.02-3.64,0.18
			c-6.18-14.06-18.24-14.54-29.91-15.01c-2.32-0.09-4.73-0.19-7.01-0.4c-25.77-2.36-37.99-4.56-42.28-11.35
			c-2.14-3.39-2.44-8.09-0.98-15.22c1.45-7.06,4.52-16.01,8.99-28.16c17.1-46.41,3.94-91.22-8.78-134.56
			c-0.66-2.26-1.33-4.52-1.99-6.78c-3.31-11.35-6.33-22.99-9.25-34.25C118.55,494.56,117.33,489.87,116.1,485.23 M114.65,483.66
			c4.44,16.67,8.55,33.44,13.37,49.99c13.47,46.18,28.64,92.24,10.79,140.71c-17.6,47.78-15.31,51.46,35.11,56.08
			c13.6,1.25,29.37-1.56,36.4,15.52c1.34-0.25,2.8-0.29,4.26-0.29c0.65,0,1.3,0.01,1.94,0.01c5.7,0,10.67-0.61,8.07-12.67
			c-2.75-12.75,7.16-18.94,19.8-18.94c0.37,0,0.73,0.01,1.1,0.02c0.05,0,0.09,0,0.14,0c0.85,0,1.71-0.21,2.56-0.31
			c-0.5-0.62-0.96-1.3-1.52-1.86c-8.32-8.4-18.72-11.51-30.19-12.99c-12.03-1.55-23.33-5.09-25.86-19.63
			c-1.79-46.15-3.58-92.29-5.38-138.44c-2.03,27.27-4.06,54.54-6.11,81.81c-0.06,0.83-0.3,1.65-0.45,2.48
			c-0.5-0.35-1.25-0.6-1.46-1.08c-14.25-32.32-28.39-64.68-34.6-99.78C135.52,509.21,134.43,490.01,114.65,483.66L114.65,483.66z"/>
	</g>
	<g>
		<path d="M513.57,438.32l1.24,0.41c1.63,2.25,3.2,4.66,4.72,6.98c3.5,5.36,7.12,10.9,11.85,15.16
			c18.55,16.72,19.38,38.05,20.25,60.62c0.07,1.92,0.15,3.84,0.23,5.76l0.05,1.14c0.57,12.75,1.1,24.78,5.15,35.54
			c4.55,12.1,13.16,20.72,26.33,26.37c2.07,0.89,2.62,3.74,2.76,5.35c0.47,5.45-2.07,13.52-6.48,16.4
			c-11.71,7.65-24.05,11.53-36.67,11.53c-8.45,0-17.1-1.75-25.71-5.21c-5.31-2.13-9.61-4.73-12.8-7.72
			c-3.1-2.91-5.07-6.13-5.85-9.57c-1.41-6.19,1.07-13.01,7.2-19.73c27.56-30.24,9.03-50.6-10.58-72.16l-0.05-0.06
			c-16.03-17.61-31.86-35.95-47.17-53.68c-0.86-0.99-1.72-1.99-2.58-2.99c11.13,12.38,22.54,25.08,33.76,37.61
			c1.66,1.85,3.96,2.91,6.33,2.91c2.91,0,5.1-1.59,5.2-3.79c0.45-9.25,5.96-16.54,11.3-23.59
			C508.06,457.68,514.27,449.47,513.57,438.32 M426.96,432.66c22.46,25.76,44.51,51.88,67.5,77.16
			c19.6,21.54,37.6,41.27,10.63,70.87c-14.07,15.44-8.68,30.38,11.82,38.61c8.87,3.56,17.59,5.29,26.09,5.29
			c13.01,0,25.5-4.04,37.22-11.69c6.96-4.55,9.74-20.87,3.57-23.51c-29.14-12.5-29.79-36.88-30.92-62.18
			c-1.08-24.07-0.31-48.6-20.81-67.08c-6.75-6.08-11.15-14.76-16.62-22.25c-1-0.33-1.99-0.66-2.99-0.98
			c2.54,21.66-21.7,31.78-22.69,52.27c-0.08,1.7-1.94,2.84-4.2,2.84c-1.85,0-3.96-0.76-5.59-2.58
			c-16.95-18.94-33.96-37.82-50.94-56.73C428.33,432.68,427.64,432.67,426.96,432.66L426.96,432.66z"/>
	</g>
	<g>
		<path d="M576.44,407.43c23.21,0,38.29,12.12,42.49,34.12c3.63,19.06-1.43,36.79-13.88,48.65c-12.41,11.82-11.62,23.69-8.27,36.66
			c-0.63-0.67-1.26-1.33-1.88-2c-23.01-24.46-46.81-49.75-63.92-79.69c-2-3.5-4.78-6.56-7.47-9.53c-1.22-1.34-2.48-2.73-3.64-4.13
			l-0.87-1.06l-0.74,1.16l-2.13,3.34l-1.11,1.74l-1.57-0.52l-0.02-10.83l0-0.45l4.33-3.17l6.35-4.66l6.26,0.77l0.6,0.07l0.21,0.03
			l0.2-0.06l4.71-1.44l4.71-1.44l0.03-0.01l0.03-0.01C553.84,409.97,565.81,407.43,576.44,407.43 M576.44,406.43
			c-10.58,0-22.69,2.5-35.93,7.59c-3.14,0.96-6.28,1.92-9.43,2.88c-2.42-0.3-4.84-0.6-7.25-0.89c-3.81,2.79-7.61,5.58-11.42,8.37
			c0.01,4.17,0.02,8.34,0.03,12.51c1,0.33,1.99,0.66,2.99,0.98c1.22-1.91,2.44-3.82,3.67-5.74c3.71,4.48,8.17,8.54,11.02,13.52
			c18.29,32.03,43.72,58.22,68.69,84.81c-4.05-14.25-6.47-26.78,6.93-39.54c13.29-12.65,17.69-31.12,14.17-49.56
			C615.54,418.45,599.67,406.43,576.44,406.43L576.44,406.43z"/>
	</g>
	<g>
		<path d="M220.38,93.49l5.73,7.69l4.08,5.47c-6.61,7.45-11.94,19.82-1.55,37.38c9.5,16.05,11.79,31.77,7,48.05
			c-4.35,14.79-14.08,28.8-23.75,41.9l-45.56-2.18l-2.41-0.12l-0.54-0.45l-1.43-12.79l-2.81-25.08l-2.69-18.89l-1.31-9.19
			c2.57-6.92,4.04-14.73,5.47-22.29c4.5-23.82,8.76-46.31,44.36-46.31c0.24,0,0.48,0,0.73,0l0.15,0c3.52,0,7.03-1.04,10.43-2.05
			C217.64,94.24,219.02,93.83,220.38,93.49 M197.89,213.43l0.07,0c13.59-0.19,29-0.41,29.21-20.45c0.2-19.21-9.71-29.52-28.68-29.8
			c-0.2,0-0.41,0-0.61,0c-9.24,0-16.46,3.09-21.45,9.19c-4.29,5.23-6.74,12.57-7.1,21.23c-0.72,17.5,12.65,18.53,23.39,19.36
			c1.8,0.14,3.5,0.27,5.11,0.47L197.89,213.43 M220.79,92.37c-4.98,1.15-9.96,3.32-14.93,3.32c-0.05,0-0.1,0-0.15,0
			c-0.25,0-0.49,0-0.74,0c-48.39,0-40.37,41.58-50.86,69.49c1.34,9.45,2.69,18.89,4.03,28.34c1.43,12.75,2.85,25.49,4.28,38.24
			c0.37,0.31,0.74,0.61,1.11,0.92c16.28,0.78,32.56,1.56,48.85,2.33c20.47-27.7,38.41-55.51,17.12-91.49
			c-6.9-11.65-8.91-25.1,1.98-36.81C227.92,101.93,224.35,97.15,220.79,92.37L220.79,92.37z M197.94,212.43
			c-11.52-1.41-28.41,0.48-27.61-18.79c0.65-15.75,8.49-29.46,27.55-29.46c0.2,0,0.4,0,0.59,0c18.48,0.27,27.89,10.16,27.7,28.79
			C225.98,211.42,212.96,212.22,197.94,212.43L197.94,212.43z"/>
	</g>
	<g>
		<path d="M583.04,77.56c0.63,0.22,1.26,0.44,1.89,0.66c14.74,5.17,29.98,10.53,31.49,29.47c0.78,9.83,0.47,19.94,0.16,29.71
			c-0.13,4.3-0.27,8.75-0.32,13.13l-8.12,14.68c-15.9,28.73-32.33,58.44-48.62,87.6c-0.47,0.84-2.27,1.92-3.21,1.92
			c-0.08,0-0.12-0.01-0.13-0.01c-9.54-3-19.18-6.28-28.51-9.45c-2.44-0.83-4.88-1.66-7.32-2.48c-1.75-16.25,8.28-24.47,18.89-33.17
			c7.21-5.91,14.66-12.02,18.34-20.89c2.04-4.92,5.68-9.41,9.2-13.75c8.22-10.14,16.72-20.61,5.8-37.22L583.04,77.56 M582.26,76.22
			c-3.58,20.59-7.15,41.17-10.73,61.76c15.59,23.26-7.98,33.74-14.87,50.36c-8.93,21.53-40.81,26.45-37.22,55.19
			c12.13,4.1,24.23,8.3,36.44,12.14c0.13,0.04,0.27,0.06,0.43,0.06c1.3,0,3.44-1.28,4.08-2.43c19.05-34.11,37.94-68.31,56.86-102.5
			c0.13-14.4,1.29-28.88,0.15-43.18C615.76,86.72,598.27,81.93,582.26,76.22L582.26,76.22z"/>
	</g>
	<g>
		<path d="M92.24,434.98c6.21,0.7,13.11,1.02,21.52,1.02c4.93,0,9.96-0.11,14.83-0.21c4.86-0.1,9.88-0.21,14.79-0.21
			c24.57,0,52.68,2.16,75.33,27.93c3.36,3.83,5.21,8.84,6.99,13.69c2.92,7.94,5.94,16.16,15.61,19.76c3.65,1.36,7.6,1.92,11.42,2.46
			c1.36,0.19,2.76,0.39,4.13,0.62c-0.85,3.18-1.94,6.38-3,9.48c-3.23,9.48-6.57,19.29-3.73,29.93c3.09,11.53,8.21,17.38,15.23,17.38
			c5.09,0,11.1-3.02,18.36-9.23c1.55-1.33,3.49-2.24,5.53-3.2c0.58-0.27,1.17-0.55,1.76-0.84c1.45,5.29,0.55,8.94-2.68,10.85
			c-5.45,3.22-13.7,7.51-22.34,7.51c-2.67,0-5.32-0.4-7.85-1.2c-3.61-1.14-7.93-3.99-9.28-16.1c-0.36-3.24-0.56-6.58-0.76-9.8
			c-0.09-1.48-0.18-2.96-0.28-4.43l-0.01-0.14l-0.05-0.14c-0.47-1.25-0.85-2.64-1.23-3.98c-0.85-3.07-1.73-6.24-3.75-8.52
			c-6.64-7.48-15.63-9.09-24.32-10.64c-5.09-0.91-10.34-1.85-15.01-3.99c0.38-0.54,0.8-1.09,1.24-1.65
			c1.52-1.98,3.09-4.04,3.36-6.36c2.23-19.52-10.04-21.01-21.91-22.45c-2.41-0.29-4.89-0.59-7.23-1.05
			c-9.81-1.9-17.54-3.16-23.34-3.16c-5.65,0-9.46,1.24-11.97,3.89c-4.64,4.91-4.98,14.26-3.98,32.11c0.25,4.38,0.73,8.8,1.22,13.1
			c-0.61-1.65-1.2-3.32-1.77-4.96c-4.24-12.08-8.62-24.57-23.72-29.62L92.24,434.98 M90.54,433.77
			c8.04,16.63,16.07,33.26,24.11,49.88c19.78,6.35,20.87,25.56,27.97,40.63c-0.67-6.67-1.6-13.33-1.98-20.02
			c-1.48-26.36-0.04-34.94,14.95-34.94c5.62,0,13.15,1.21,23.15,3.14c13.75,2.66,30.9,0.01,28.33,22.4c-0.34,3-3.32,5.69-5.07,8.53
			c12.83,6.49,29.49,3,40.05,14.89c2.72,3.06,3.25,8.07,4.79,12.18c0.33,4.76,0.51,9.53,1.04,14.27c0.8,7.12,2.76,14.67,9.97,16.94
			c2.75,0.87,5.47,1.25,8.15,1.25c8.05,0,15.75-3.45,22.85-7.65c4.71-2.78,4.38-8.21,2.78-13.15c-2.87,1.55-6.13,2.64-8.56,4.72
			c-6.53,5.59-12.54,8.99-17.71,8.99c-6.16,0-11.11-4.85-14.26-16.64c-3.79-14.18,3.7-26.79,7-39.95
			c-5.5-1.02-11.28-1.29-16.44-3.22c-15.09-5.63-13.21-22.95-22.2-33.18c-21.95-24.97-48.66-28.27-76.08-28.27
			c-9.84,0-19.78,0.42-29.62,0.42C105.93,435.01,98.16,434.74,90.54,433.77L90.54,433.77z"/>
	</g>
	<g>
		<path d="M308.87,236.07c1.46,0.3,2.92,0.59,4.38,0.89c1.17,0.24,2.33,0.47,3.5,0.71c-9.57,10.9-13.03,22.23-10.57,34.58
			c2.25,11.31,9.12,22.28,16.57,33.46c13.02,19.55,11.7,41.34,10.42,62.41c-0.17,2.82-0.34,5.67-0.48,8.53
			c-0.56-10.91-2.46-22.02-5.7-33.45c-6.93-24.42-19.14-47.83-32.13-71.64C299.53,259.73,304.2,247.9,308.87,236.07 M489.46,275.55
			c0.77,6.6-1.95,12.23-5.07,17.89c-10.08,18.31-20.12,37.04-29.83,55.14c-3.58,6.67-7.16,13.35-10.75,20.01
			c-6.43,7.09-12.85,14.17-19.27,21.26c-6.42,7.09-12.85,14.17-19.27,21.26c-2.24,2.08-4.48,4.16-6.72,6.24
			c-2.24,2.08-4.49,4.17-6.73,6.25l-0.1,0.09l-0.07,0.11c-3.72,5.87-9.51,6.91-15.64,8.01c-3.17,0.57-6.44,1.16-9.42,2.46
			c-5.04,2.2-10.54,3.65-15.86,5.06c-2.3,0.61-4.67,1.23-6.99,1.91c-0.13-0.02-0.26-0.04-0.4-0.06c-0.32-0.05-0.67-0.11-1.03-0.11
			c-0.31,0-0.59,0.04-0.85,0.13c-5.43,1.84-9.83,2.77-13.05,2.77c-3.03,0-4.98-0.78-5.97-2.38c-1.9-3.08-0.44-9.44,4.33-18.91
			l0.04-0.07l0.02-0.08c3.03-9.69,4.91-19.43,5.66-29.31c0.02,0.55,0.05,1.11,0.08,1.66c0.35,6.39,1.03,11.97,5.72,15.6
			c1.17,0.91,2.41,1.36,3.68,1.36c2.14,0,4-1.26,5.8-2.48c1.3-0.88,2.53-1.72,3.76-2.02c4.69-1.15,9.06-5.11,13.28-8.95
			c4.83-4.38,9.82-8.91,14.99-8.91c4.97,0,9.87,4.2,14.99,12.84c0.48,0.81,1.43,1.26,2.68,1.26c2.95,0,7.74-2.6,8.53-6.67
			c4.73-24.31,22.92-38.28,40.5-51.79c2.59-1.99,5.27-4.05,7.84-6.09c12.15-9.66,13.97-20.69,15.9-32.37
			c0.41-2.51,0.84-5.1,1.38-7.66C474.15,286.9,478.19,278.27,489.46,275.55 M308.24,234.93c-4.83,12.23-9.66,24.46-14.49,36.7
			c25.66,47.01,49.69,94.38,32.13,150.6c-6.94,13.79-7.82,22.74,2.54,22.74c3.28,0,7.68-0.9,13.37-2.82
			c0.16-0.06,0.34-0.08,0.53-0.08c0.49,0,1.03,0.15,1.53,0.19c7.75-2.29,15.81-3.86,23.16-7.07c8.46-3.71,19.52-1.42,25.5-10.85
			c4.49-4.17,8.99-8.35,13.48-12.51c12.89-14.21,25.77-28.42,38.65-42.63c13.51-25.1,26.88-50.28,40.63-75.26
			c3.44-6.24,6.27-12.3,5.03-19.58c-13.35,2.69-17.23,12.88-19.65,24.44c-2.96,14.16-2.42,27.93-16.92,39.45
			c-19.67,15.65-43.18,30.1-48.7,58.48c-0.68,3.52-4.95,5.86-7.55,5.86c-0.84,0-1.5-0.24-1.82-0.77
			c-5.86-9.88-11.04-13.33-15.85-13.33c-10.21,0-18.75,15.49-28.51,17.89c-3.19,0.78-6.04,4.47-9.32,4.47
			c-0.98,0-1.99-0.33-3.07-1.16c-4.43-3.43-5.01-8.97-5.33-14.86c-1.66-30.06,8.67-61.64-9.99-89.66
			c-14.61-21.91-27.55-43.65-4.92-68.12C315.19,236.34,311.72,235.63,308.24,234.93L308.24,234.93z"/>
	</g>
	<g>
		<path d="M619.33,589.74c0.54,1.52,1.07,3.04,1.59,4.53c2.67,7.63,5.44,15.53,8.51,23.17c0.12,0.3,0.24,0.6,0.36,0.92
			c1.61,4.08,3.82,9.68,9.27,9.68c0.39,0,0.79-0.03,1.2-0.09c5.45-0.78,5.92-5.3,6.29-8.92c0.13-1.23,0.25-2.42,0.52-3.48
			c6.3,5.7,13.64,8.59,21.83,8.59c4.17,0,8.59-0.76,13.13-2.25c3.38-1.11,6.55-1.68,9.42-1.68c9.34,0,16.14,5.84,20.8,17.84
			c2.69,6.93,2.81,13.42,0.34,18.76c-2.54,5.49-7.74,9.73-15.04,12.26c-10.85,3.76-21.43,5.67-31.42,5.67
			c-15.63,0-30.36-4.66-43.8-13.85c-6.89-4.71-6.05-11.02-5.16-17.7c0.3-2.28,0.62-4.63,0.58-6.86c-0.2-12.18,0.45-24.59,1.07-36.59
			C619,596.45,619.17,593.1,619.33,589.74 M618.56,584.57c-0.7,17.26-2.07,34.52-1.79,51.77c0.14,8.47-4.92,18.58,5.01,25.37
			c14.19,9.71,29.09,14.03,44.37,14.03c10.45,0,21.07-2.02,31.75-5.72c14.72-5.1,21.26-17.01,15.31-32.33
			c-4.24-10.91-10.86-18.48-21.74-18.48c-2.93,0-6.16,0.55-9.74,1.73c-4.34,1.43-8.63,2.2-12.81,2.2c-8.01,0-15.59-2.84-22.26-9.37
			c-2.14,4.5,0.46,12.19-6.52,13.19c-0.37,0.05-0.72,0.08-1.06,0.08c-5.15,0-7.04-5.82-8.71-9.97
			C626.06,606.38,622.44,595.42,618.56,584.57L618.56,584.57z"/>
	</g>
	<g>
		<path d="M160.49,66.49c22.24,0,41.87,8.52,58.38,25.33c-1.06,0.28-2.11,0.6-3.14,0.9c-3.41,1.01-6.63,1.97-9.86,1.97l-0.14,0
			c-0.25,0-0.5,0-0.74,0c-37.27,0-41.87,24.37-46.33,47.94c-1.41,7.48-2.87,15.2-5.38,21.97c-1.19,1.04-2.52,2.05-3.81,3.02
			c-3.06,2.31-6.22,4.69-8.04,7.9c-7.49,13.2-15.99,28.15-29.42,28.15c-5.7,0-11.98-2.52-19.15-7.7c2.44-0.62,5.07-1.08,7.63-1.53
			c9.7-1.69,19.73-3.44,23.07-13.91c5.14-16.11-10.85-23.85-20.4-28.48c-1.6-0.77-3.24-1.51-4.83-2.23
			c-0.29-0.13-0.57-0.26-0.86-0.39c7.81-7.23,13.78-10.6,18.72-10.6c6.16,0,11.13,5.37,15.17,16.41c0.8,2.2,3.31,3.55,5.74,4.87
			c1.02,0.55,2.08,1.13,2.94,1.73l0.82,0.58l0.57-0.83c0.63-0.91,1.39-1.82,2.12-2.7c1.69-2.03,3.44-4.14,4.05-6.61
			c2.4-9.77,4.63-19.74,6.79-29.38c2-8.91,4.06-18.12,6.25-27.14c0.61-2.53-0.03-4.04-0.67-4.87c-0.76-0.97-1.94-1.52-3.25-1.52
			c-0.54,0-1.08,0.1-1.56,0.29c-4.23,1.69-7.67,2.55-10.22,2.55c-6.12,0-6.6-4.76-6.67-12.59c-0.03-3.69-0.06-7.49-1.35-10.27
			C145.08,67.45,153,66.49,160.49,66.49L160.49,66.49 M160.49,65.49c-8.07,0-16.45,1.08-25.11,3.19c4.73,6.71-2.68,24.53,9.54,24.53
			c2.57,0,6-0.79,10.59-2.63c0.36-0.14,0.77-0.22,1.19-0.22c1.81,0,3.86,1.42,2.95,5.15c-4.56,18.79-8.43,37.75-13.04,56.52
			c-0.81,3.29-3.95,6-6.02,8.98c-2.85-2.01-7.32-3.43-8.31-6.12c-4.52-12.33-10-17.06-16.11-17.06c-6.28,0-13.23,5-20.5,11.9
			c2.34,1.07,4.71,2.09,7.03,3.22c11.6,5.62,24.52,12.77,19.89,27.27c-4.27,13.37-20.42,11.74-31.98,15.32
			c8.45,6.45,15.42,9.12,21.38,9.12c13.64,0,21.95-13.99,30.29-28.66c2.51-4.42,7.82-7.26,11.84-10.83
			c10.49-27.92,2.46-69.49,50.86-69.49c0.24,0,0.49,0,0.74,0c0.05,0,0.1,0,0.15,0c4.97,0,9.95-2.17,14.93-3.32
			C203.31,73.97,183.08,65.49,160.49,65.49L160.49,65.49z"/>
	</g>
	<g>
		<path d="M135,69.99c1.2,2.38,1.23,6.07,1.26,9.64c0.06,6.83,0.12,14.58,8.67,14.58c2.85,0,6.43-0.88,10.96-2.7
			c0.24-0.1,0.53-0.15,0.82-0.15c0.33,0,1.14,0.07,1.68,0.76c0.53,0.68,0.64,1.77,0.3,3.16c-2.19,9.04-4.26,18.26-6.25,27.17
			c-2.16,9.64-4.39,19.6-6.78,29.34c-0.5,2.03-2.03,3.86-3.64,5.81c-0.55,0.67-1.12,1.35-1.65,2.05c-0.74-0.46-1.54-0.89-2.31-1.31
			c-2.1-1.14-4.27-2.31-4.81-3.8c-4.37-11.92-9.95-17.72-17.05-17.72c-5.73,0-12.2,3.69-20.94,11.94l-8.75,1.01l7.3-46.56
			l7.99-16.25L135,69.99 M135.38,68.67c-11.45,5.85-22.91,11.7-34.36,17.55c-2.74,5.56-5.47,11.13-8.21,16.69
			c-2.51,16-5.02,32.01-7.52,48.01c3.46-0.4,6.92-0.8,10.38-1.2c7.27-6.9,14.22-11.9,20.5-11.9c6.11,0,11.59,4.74,16.11,17.06
			c0.99,2.69,5.46,4.11,8.31,6.12c2.07-2.98,5.21-5.69,6.02-8.98c4.61-18.78,8.48-37.73,13.04-56.52c0.9-3.73-1.14-5.15-2.95-5.15
			c-0.42,0-0.83,0.08-1.19,0.22c-4.59,1.84-8.02,2.63-10.59,2.63C132.71,93.21,140.11,75.39,135.38,68.67L135.38,68.67z"/>
	</g>
	<g>
		<path d="M605.47,1L605.47,1c4.02,0,7.11,2.54,8.7,7.16c8.63,25.08,13.38,48.07,14.53,70.27c1.3,25.02-1.99,48.29-10.05,71.15
			c-0.08,0.24-0.22,0.47-0.38,0.71c0.05-4.27,0.18-8.61,0.31-12.82c0.31-9.83,0.62-19.99-0.17-29.93
			c-1.61-20.24-17.47-25.81-32.82-31.2c-0.83-0.29-1.66-0.58-2.49-0.88c-6.78-28.15-3.53-49.57,10.2-67.39
			C596.67,3.71,601.33,1,605.47,1 M605.47,0c-4.45,0-9.37,2.81-12.96,7.46c-16.02,20.78-16.2,44.44-10.26,68.76
			c16.01,5.71,33.5,10.5,35.16,31.4c1.14,14.3-0.02,28.78-0.15,43.18c0.1,0.65,0.2,1.31,0.3,1.96c0.69-0.95,1.66-1.79,2.03-2.85
			c16.89-47.92,11.55-95.48-4.48-142.07C613.23,2.36,609.55,0,605.47,0L605.47,0z"/>
	</g>
	<g>
		<path d="M462.96,395.45c19.55,0,39.05,6.54,57.98,19.44l1.27,1.07l-2.34,1.71c-2.37,1.73-4.74,3.47-7.11,5.21
			c-3.67-6.69-10.15-8.99-16.43-11.22c-1.5-0.53-3.06-1.08-4.52-1.68c-8.02-3.27-16.68-5-25.07-5c-21.89,0-37.96,11.17-38.71,26.7
			l-0.75-0.01l-0.85-0.61c-4.31-3.1-8.38-6.03-12.09-6.03c-4.32,0-7.09,3.97-8.48,12.11c-0.18,0.51-2.06,1.61-3.36,1.71
			c-25.87,1.93-46.66,15.23-66.78,28.1c-9.57,6.12-19.46,12.45-29.75,17.45c-6.86-24.87,10.45-30.16,28.75-35.75l1.64-0.5
			c2.12-0.65,3.95-2.04,5.71-3.38c0.72-0.55,1.46-1.11,2.2-1.6c2.31-0.68,4.68-1.31,6.98-1.91c5.4-1.42,10.98-2.9,16.16-5.16
			c2.76-1.21,5.92-1.78,8.97-2.33c6.25-1.12,12.71-2.29,16.9-8.8c2.22-2.06,4.44-4.12,6.66-6.18c2.22-2.06,4.44-4.12,6.66-6.18
			C425.61,401.23,444.58,395.45,462.96,395.45L462.96,395.45 M462.95,394.45c-18.87,0-37.87,5.91-56.97,17.37
			c-4.49,4.17-8.99,8.35-13.48,12.51c-5.98,9.43-17.04,7.14-25.5,10.85c-7.35,3.21-15.41,4.78-23.16,7.07
			c-2.58,1.69-4.95,4.07-7.78,4.94c-19.17,5.89-38.95,11.05-30.73,38.63c32.37-15.38,58.91-43.11,97.24-45.96
			c1.53-0.12,4.08-1.44,4.27-2.52c1.44-8.47,4.15-11.3,7.5-11.3c3.7,0,8.19,3.47,12.62,6.63c0.69,0.01,1.37,0.02,2.05,0.03
			c0.09-16.22,17.08-26.72,37.74-26.72c7.94,0,16.42,1.55,24.69,4.92c7.73,3.16,16.81,4.62,20.98,13.48
			c3.8-2.79,7.61-5.58,11.42-8.36c-0.76-0.64-1.52-1.28-2.28-1.93C502.15,400.86,482.62,394.45,462.95,394.45L462.95,394.45z"/>
	</g>
	<g>
		<path d="M603.66,177.45c-0.02,0.04-0.04,0.08-0.06,0.13c-10.09,19.75-20.52,40.18-32.51,59.15c-5.51,8.72-7.73,15.21-7.19,21.04
			c0.59,6.3,4.46,11.82,12.2,17.37c1.27,0.91,2.35,2.09,3.39,3.39c-9.19-5.78-17.21-8.5-24.91-8.5c-7.24,0-14.14,2.57-20.53,7.63
			c-17,13.47-14.87,33.25-11.23,52.34c3.76,19.75,7.79,39.78,11.68,59.16c1.62,8.06,3.24,16.12,4.84,24.19l-5.04,1.54l-0.79,0.24
			c0.67-1.01,1.13-1.96,0.75-2.85c-10.77-25.38-18.18-51.74-22.01-78.35c-3.78-26.26-4.18-53.51-1.2-81l8.63-8.25
			c2.45,0.83,4.89,1.66,7.34,2.49c9.33,3.17,18.98,6.46,28.55,9.46c0.22,0.07,0.47,0.11,0.73,0.11c1.64,0,4.14-1.48,4.96-2.94
			C575.44,228.42,589.72,202.64,603.66,177.45 M617.26,150.8c-18.92,34.19-37.81,68.39-56.86,102.5c-0.64,1.15-2.79,2.43-4.08,2.43
			c-0.16,0-0.3-0.02-0.43-0.06c-12.21-3.84-24.31-8.04-36.44-12.14c-3.11,2.97-6.22,5.95-9.34,8.92
			c-6.07,55.4,1.43,108.83,23.24,160.21c0.39,0.93-1.46,2.81-2.27,4.25c3.14-0.96,6.28-1.92,9.43-2.88
			c-5.59-28.07-11.34-56.11-16.7-84.23c-3.54-18.57-5.96-38.03,10.87-51.37c6.62-5.25,13.3-7.41,19.91-7.41
			c10.1,0,20.07,5.04,29.53,11.82c-2.45-2.88-4.45-6.38-7.43-8.52c-15.09-10.82-14.75-21.23-4.75-37.06
			c17.06-27,30.6-56.21,45.63-84.5C617.46,152.11,617.36,151.46,617.26,150.8L617.26,150.8z"/>
	</g>
	<g>
		<path d="M571.63,139.97c9.03,14.73,1.54,23.97-6.39,33.74c-3.61,4.45-7.34,9.05-9.49,14.24c-3.48,8.4-10.74,14.35-17.76,20.11
			c-10.59,8.68-21.54,17.66-19.59,35.09l-0.07,0.07l-8.84,8.45l-11.78,8.18l-6.14-3.12l-0.9-0.46l-0.45,0.91
			c-0.48,0.98-1.01,1.97-1.52,2.93c-1.19,2.22-2.42,4.52-3.21,6.96c-0.24,0.75-0.44,1.54-0.62,2.3c-0.77,3.16-1.37,5.1-3.76,5.1
			c-0.46,0-0.99-0.07-1.56-0.21c-0.84-0.2-1.9-0.59-2.2-1.27c-0.4-0.9,0.44-2.46,1.11-3.71c0.42-0.78,0.81-1.52,1-2.19
			c2.63-9.72,2.1-17.32-1.61-23.23c-4.25-6.76-12.59-11.11-26.27-13.67c-1.19-0.22-2.39-0.42-3.56-0.62
			c-8.13-1.35-15.84-2.64-19.51-11.13c5.05,0.26,10.17,0.47,15.13,0.67c12.03,0.49,24.48,0.99,36.62,2.26
			c3.01,0.32,5.98,0.48,8.83,0.48c36.64,0,54.39-26.4,65.75-49.4c3.88-7.85,8.03-15.74,12.05-23.38
			C568.44,146.05,570.04,143.01,571.63,139.97 M571.53,137.98c-5.89,11.34-11.97,22.58-17.63,34.03
			c-13.9,28.12-32.31,48.85-64.86,48.85c-2.8,0-5.71-0.15-8.73-0.47c-17.69-1.85-35.55-2.06-53.34-3.01
			c4.09,11.74,14.58,11.98,24.38,13.81c19.64,3.68,33.54,11.82,27.1,35.66c-0.65,2.4-5.18,6.95,0.83,8.4
			c0.67,0.16,1.27,0.24,1.8,0.24c4.16,0,4.22-4.65,5.34-8.1c1.11-3.4,3.08-6.51,4.68-9.75c2.22,1.13,4.45,2.26,6.67,3.39
			c4.11-2.86,8.23-5.71,12.34-8.57c3.11-2.97,6.22-5.95,9.33-8.92c-3.58-28.74,28.3-33.66,37.22-55.19
			C563.56,171.72,587.12,161.24,571.53,137.98L571.53,137.98z"/>
	</g>
	<g>
		<path d="M152.59,179.95l2.33,7.02l2.24,6.75l4.12,36.81c-9.7-1.65-18.27-2.49-25.49-2.49c-15.19,0-25.27,3.56-30.83,10.89
			c-5.96,7.86-6.55,19.91-1.81,36.84c0.74,4.46-0.39,9.11-1.58,14.02c-2.08,8.6-4.23,17.47,4.25,25.17l-17.76,0.19L74,286.23
			l-1.18-2.42c12.3-18.24,20.3-38.25,23.78-59.49c18.7-5.68,38.03-11.55,48.48-31.14c1.87-3.5,3.9-7.01,5.87-10.39
			C151.5,181.84,152.04,180.89,152.59,179.95 M152.83,177.52c-2.89,5.06-5.9,10.05-8.64,15.18c-10.36,19.43-29.46,25.06-48.48,30.84
			c-3.49,21.87-11.61,41.89-24.04,60.19c5.26,10.82,10.51,21.63,15.77,32.45c7.05-0.08,14.1-0.15,21.15-0.23
			c-16.08-11.85-2.21-27.01-4.46-40.38c-8.86-31.59,0.91-46.51,31.66-46.51c7.59,0,16.45,0.91,26.63,2.7
			c-1.43-12.75-2.86-25.49-4.28-38.24C156.38,188.18,154.6,182.85,152.83,177.52L152.83,177.52z"/>
	</g>
	<g>
		<path d="M508.89,254.52c-2.79,27.04-2.32,53.84,1.4,79.69c3.85,26.75,11.29,53.26,22.12,78.78c-0.06,0.37-0.74,1.32-1.16,1.89
			c-0.23,0.32-0.46,0.64-0.68,0.96l-6.32-0.77l-1.98-1.67c-2.35-2.88-4.93-5.6-7.42-8.23c-6.13-6.47-11.93-12.57-15.19-21.41
			c-7.16-19.39-13.89-31.4-25.28-31.4c-6.6,0-14.47,3.85-26.59,13.12c2.85-5.31,5.7-10.62,8.55-15.93
			c9.71-18.1,19.75-36.82,29.82-55.13c3.4-6.18,6.36-12.35,5.19-19.88c1.18-2.12,2.37-4.23,3.56-6.34c1.21-2.16,2.42-4.32,3.63-6.48
			l4.36-3.03C504.89,257.29,506.89,255.9,508.89,254.52 M510.11,252.45c-4.12,2.85-8.23,5.72-12.34,8.57
			c-2.49,4.44-4.99,8.88-7.48,13.32c1.24,7.29-1.59,13.34-5.03,19.58c-13.75,24.98-27.12,50.15-40.63,75.26
			c12.99-10.36,22.28-15.84,29.73-15.84c9.94,0,16.59,9.77,24.34,30.75c4.74,12.83,14.92,20.27,22.83,29.99
			c0.76,0.64,1.52,1.28,2.28,1.93c2.42,0.3,4.84,0.59,7.25,0.89c0.81-1.43,2.67-3.32,2.27-4.25
			C511.53,361.27,504.04,307.85,510.11,252.45L510.11,252.45z"/>
	</g>
	<g>
		<path d="M208.84,272.47c9.33,2.85,9.04,9.98,8.74,17.53c-0.05,1.37-0.11,2.79-0.1,4.14c0.07,10.06,5.37,17.43,10.49,24.55
			c0.69,0.96,1.39,1.93,2.07,2.9l-2.82,10.27c-4.5,0.85-5.19,4.4-5.74,7.28c-0.09,0.46-0.17,0.9-0.27,1.33
			c-7.06-5.89-14.7-8.76-23.32-8.76c-10.03,0-20.1,3.88-29.83,7.63c-1.37,0.53-2.74,1.06-4.11,1.57c-6.45,2.44-12.34,3.67-17.5,3.67
			c-12.73,0-21.89-7.38-28.01-22.56c-0.73-1.82-2.34-3.18-3.95-4.48c1.18,0.08,2.37,0.12,3.54,0.12c9.97,0,19.84-2.84,31.01-8.95
			c2.73,0.35,5.43,0.53,8.01,0.53C183.41,309.28,198.05,290.79,208.84,272.47 M208.37,271.3c-12.04,20.59-26.65,36.98-51.3,36.98
			c-2.62,0-5.35-0.18-8.2-0.57c-9.73,5.35-19.86,8.98-30.81,8.98c-2.18,0-4.39-0.14-6.64-0.45c2.09,2.04,5.12,3.7,6.12,6.17
			c6.39,15.87,16.04,23.19,28.94,23.19c5.38,0,11.33-1.28,17.85-3.74c11.11-4.2,22.36-9.14,33.59-9.14c7.98,0,15.95,2.5,23.85,9.54
			c1.33-3.67,0.44-8.8,6.27-9.5c1.04-3.78,2.08-7.57,3.12-11.35c-5.81-8.34-12.58-16.04-12.65-27.28
			C218.42,285.34,221.15,274.71,208.37,271.3L208.37,271.3z"/>
	</g>
	<g>
		<path d="M105.38,279.25c7.41,10.44,16.42,15.53,27.43,15.53c7.02,0,15.02-2.12,24.4-6.46l-1.28,2.61l-7.84,16.05
			c-10.87,5.94-20.43,8.71-30.05,8.71c-2.16,0-4.35-0.15-6.54-0.44l-2.54-0.27c-9.67-7.27-7.62-15.74-5.45-24.71
			C104.4,286.64,105.3,282.92,105.38,279.25 M104.14,275.56c2.25,13.38-11.62,28.53,4.46,40.39c0.94,0.1,1.88,0.2,2.82,0.3
			c2.25,0.3,4.46,0.45,6.64,0.45c10.95,0,21.08-3.63,30.81-8.98c3.5-7.18,7.01-14.35,10.51-21.53c-9.24,4.56-18.19,7.6-26.56,7.6
			C122.09,293.78,112.32,288.77,104.14,275.56L104.14,275.56z"/>
	</g>
	<g>
		<path d="M227.51,333.86l15.66,25.8l14.27,23.52c-0.92-0.51-1.83-1.02-2.73-1.52c-16.12-8.97-31.36-17.44-31.96-39.23
			c0.32-0.93,0.51-1.93,0.7-2.89C224.05,336.43,224.58,334.44,227.51,333.86 M228.02,332.76c-5.84,0.7-4.94,5.84-6.27,9.5
			c0.6,25.35,20.82,33.41,38.54,43.68C249.53,368.22,238.78,350.49,228.02,332.76L228.02,332.76z"/>
	</g>
	<g>
		<path d="M267.71,401.08c11.47,21.71,11.2,44.33-0.84,68.93L267.71,401.08 M266.76,397.32c-0.31,25.65-0.62,51.3-0.94,76.95
			C279.42,448.78,281.88,423.15,266.76,397.32L266.76,397.32z"/>
	</g>
	<g>
		<path d="M199.89,503.34v1c0.6,0,1.22,0.01,1.85,0.04c5.12,2.55,10.85,3.57,16.38,4.56c8.74,1.57,17,3.05,23.18,10
			c1.71,1.93,2.49,4.74,3.32,7.72c0.37,1.32,0.74,2.68,1.21,3.96c-0.2,12.8-0.28,25.82-0.36,38.42c-0.18,29.64-0.38,60.3-2.17,90.33
			c-1.12,18.67-7.72,26.99-21.43,26.99c-7.56,0-17.47-2.54-30.28-7.77l-2.14-55.11l-3.21-82.62c0.12-1.07,0.33-2.19,0.53-3.27
			c0.47-2.54,0.96-5.17,0.46-7.67l-0.32-1.61c-1.6-8.02-3.12-15.59,0.46-19.96c2.23-2.72,6.32-4.04,12.51-4.04L199.89,503.34
			 M199.89,503.34c-19.79,0-16.27,13.44-13.63,26.8c0.67,3.37-0.62,7.13-1.01,10.7c1.79,46.15,3.58,92.29,5.38,138.44
			c12.92,5.32,23.24,8.09,31.26,8.09c14.34,0,21.29-8.88,22.42-27.93c2.56-42.89,1.85-85.98,2.54-128.98
			c-1.54-4.11-2.07-9.12-4.79-12.18c-10.55-11.89-27.22-8.4-40.05-14.89C201.27,503.36,200.57,503.34,199.89,503.34L199.89,503.34z"
			/>
	</g>
	<g>
		<path d="M165.62,233.77l45.65,2.18l-3.88,35.02c-10.53,17.98-24.76,36.3-50.33,36.3c-2.16,0-4.4-0.13-6.69-0.39l9.9-20.27
			l0.01-0.03l0.01-0.03c1.08-2.59,2.3-5.23,3.47-7.78C170.33,264.54,177.1,249.83,165.62,233.77 M163.54,232.67
			c15.16,19.12,3.09,36.13-4.16,53.51c-3.5,7.18-7.01,14.36-10.51,21.53c2.85,0.38,5.58,0.57,8.2,0.57
			c24.65,0,39.27-16.39,51.3-36.98c1.34-12.1,2.68-24.2,4.02-36.29C196.1,234.22,179.82,233.45,163.54,232.67L163.54,232.67z"/>
	</g>
	<g>
		<path d="M153.38,167.1l2.21,15.55l-1.81-5.45l-0.71-2.13l-1.11,1.95c-0.91,1.59-1.83,3.17-2.75,4.75
			c-1.98,3.4-4.02,6.92-5.9,10.45c-10.06,18.87-28.15,24.36-47.3,30.17l-0.33,0.1l-3.44-0.86l-4.77-1.19l-9.38-37.52l8.36,9.44
			l3.4,3.84l0.06,0.07l0.08,0.06c8.22,6.27,15.41,9.32,21.99,9.32c14.59,0,23.39-15.49,31.16-29.17c1.62-2.85,4.48-5.01,7.51-7.29
			C151.56,168.52,152.49,167.82,153.38,167.1 M154.12,165.17c-4.02,3.57-9.33,6.4-11.84,10.83c-8.33,14.67-16.64,28.66-30.29,28.66
			c-5.96,0-12.94-2.67-21.38-9.12c-4.82-5.44-9.64-10.89-14.47-16.33c3.5,14.02,7.01,28.04,10.51,42.07
			c3.02,0.75,6.04,1.51,9.06,2.26c19.03-5.78,38.12-11.41,48.48-30.84c2.74-5.14,5.75-10.13,8.64-15.18
			c1.77,5.33,3.54,10.66,5.31,15.99C156.8,184.06,155.46,174.62,154.12,165.17L154.12,165.17z"/>
	</g>
	<g>
		<path d="M91.53,103.38l0.18,0.09l-2.77,17.66l-4.56,29.09c-16.19,7.16-13.04,20.11-9.2,29.3l9.9,39.6
			c-19.18-12.55-20.11-32.52-19.37-51.96c0.63-16.6,8.44-30.79,15.99-44.51C85.14,116.43,88.68,110,91.53,103.38 M91.04,102
			c-9.06,21.6-25.37,40.36-26.31,65.13c-0.81,21.21,0.76,41.71,21.93,54.14c-3.5-14.02-7.01-28.04-10.51-42.07
			c-5.05-12.05-4.78-22.37,9.15-28.29c2.51-16,5.01-32.01,7.52-48.01C92.22,102.61,91.63,102.3,91.04,102L91.04,102z"/>
	</g>
	<g>
		<path d="M155.59,469.32l0,1h0c5.64,0,13.26,1.25,22.96,3.12c2.41,0.46,4.93,0.77,7.37,1.07c11.9,1.45,22.17,2.7,20.16,20.24
			c-0.2,1.77-1.54,3.52-2.96,5.37c-0.56,0.73-1.14,1.48-1.65,2.25c-0.54-0.02-1.07-0.03-1.58-0.03c-6.83,0-11.43,1.56-14.06,4.77
			c-4.18,5.1-2.57,13.12-0.88,21.61l0.32,1.61c0.42,2.12-0.01,4.45-0.47,6.91c-0.21,1.14-0.43,2.33-0.56,3.52l-0.94,12.63
			c-1.72,23.06-3.44,46.12-5.17,69.18c-0.02,0.27-0.06,0.54-0.11,0.82c-13.85-31.43-28.15-63.92-34.41-99.26
			c-0.21-2.1-0.45-4.23-0.69-6.29c-0.51-4.48-1.03-9.1-1.28-13.66c-0.95-16.9-0.68-26.27,3.44-30.62c2.14-2.26,5.38-3.27,10.51-3.27
			L155.59,469.32 M155.59,469.32c-14.98,0-16.43,8.59-14.95,34.94c0.38,6.69,1.3,13.35,1.98,20.02c6.21,35.1,20.35,67.46,34.6,99.78
			c0.21,0.48,0.96,0.72,1.46,1.08c0.15-0.83,0.39-1.65,0.45-2.48c2.05-27.27,4.08-54.54,6.11-81.81c0.39-3.58,1.68-7.33,1.01-10.7
			c-2.64-13.36-6.16-26.8,13.63-26.8c0.68,0,1.38,0.02,2.11,0.05c1.76-2.84,4.73-5.53,5.07-8.53c2.56-22.39-14.59-19.75-28.33-22.4
			C168.74,470.52,161.21,469.32,155.59,469.32L155.59,469.32z"/>
	</g>
	<g>
		<path d="M466.74,406.98L466.74,406.98c8.12,0,16.53,1.68,24.31,4.85c1.51,0.61,3.08,1.17,4.6,1.71
			c6.45,2.28,12.54,4.44,15.76,11.06l0.01,6.33l0.01,5.96l0,0.06l0.01,0.06c1.31,11.15-4.67,19.05-11,27.4
			c-5.52,7.29-11.22,14.83-11.7,24.7c-0.05,1.08-1.43,1.89-3.21,1.89c-1.8,0-3.57-0.82-4.84-2.25
			c-12.49-13.96-25.22-28.11-37.53-41.8c-4.38-4.88-8.77-9.75-13.15-14.63C430.36,417.61,445.72,406.98,466.74,406.98
			 M466.74,405.98c-20.65,0-37.64,10.5-37.73,26.71c16.99,18.9,34,37.78,50.94,56.73c1.63,1.82,3.74,2.58,5.59,2.58
			c2.26,0,4.12-1.14,4.2-2.84c0.99-20.49,25.23-30.61,22.69-52.27c-0.01-4.17-0.02-8.34-0.03-12.51
			c-4.17-8.86-13.25-10.32-20.98-13.47C483.16,407.53,474.68,405.98,466.74,405.98L466.74,405.98z"/>
	</g>
	<g>
		<path d="M474.37,353.35v1h0c8.84,0,15.4,8.44,23.4,30.1c3.41,9.22,9.61,15.76,15.62,22.09c0.88,0.93,1.78,1.87,2.66,2.83
			c-17.38-10.56-35.21-15.91-53.1-15.91c-17,0-34.46,4.83-51.99,14.37c5.02-5.54,10.04-11.08,15.06-16.62
			c6.43-7.1,12.87-14.19,19.3-21.29c13.69-10.91,22.38-15.57,29.04-15.57L474.37,353.35 M474.37,353.35
			c-7.45,0-16.74,5.48-29.73,15.84c-12.89,14.21-25.77,28.42-38.65,42.63c19.1-11.46,38.09-17.37,56.97-17.37
			c19.66,0,39.2,6.41,58.59,19.64c-7.91-9.73-18.09-17.16-22.83-29.99C490.97,363.12,484.32,353.35,474.37,353.35L474.37,353.35z"/>
	</g>
</g>
<g id="details">
	<path fill="#232320" d="M163.54,232.67c15.16,19.12,3.09,36.13-4.16,53.51c-21.1,10.41-40.67,12.9-55.24-10.62
		c-11.04-39.39,6.87-52.85,58.29-43.81C162.8,232.06,163.17,232.36,163.54,232.67z"/>
	<path fill="#241C18" d="M197.94,212.43c-11.52-1.41-28.41,0.48-27.61-18.79c0.65-15.91,8.65-29.74,28.15-29.45
		c18.48,0.27,27.89,10.16,27.7,28.79C225.98,211.42,212.96,212.22,197.94,212.43z"/>
	<path fill="#2F2726" d="M76.14,179.21c-5.05-12.05-4.78-22.37,9.15-28.29c3.46-0.4,6.92-0.8,10.38-1.2
		c2.34,1.07,4.71,2.09,7.03,3.22c11.6,5.62,24.52,12.77,19.89,27.27c-4.27,13.37-20.42,11.74-31.98,15.32
		C85.79,190.1,80.97,184.65,76.14,179.21z"/>
	<g>
		<g>
			<path fill="#FFFFFF" d="M93.34,161.68c-0.07-0.13-0.18-0.26-0.27-0.36c-0.1-0.11-0.23-0.2-0.35-0.28
				c-0.03-0.02-0.05-0.03-0.08-0.05c-0.13-0.07-0.29-0.14-0.44-0.18c-0.44-0.11-0.88-0.07-1.3,0.11c-0.41,0.17-0.78,0.47-0.98,0.88
				c-0.13,0.27-0.19,0.46-0.23,0.75c-0.04,0.3-0.02,0.52,0.03,0.84c0.02,0.09,0.04,0.18,0.07,0.27c0.07,0.18,0.14,0.37,0.24,0.54
				c0.09,0.16,0.22,0.31,0.33,0.45c0.05,0.06,0.1,0.11,0.15,0.16c0.38,0.37,0.84,0.62,1.34,0.78c1.01,0.31,2.14,0.07,2.91-0.64
				c0.18-0.17,0.35-0.38,0.47-0.6c0.16-0.31,0.24-0.57,0.28-0.91c0.05-0.35,0.03-0.59-0.03-0.95c-0.04-0.26-0.15-0.5-0.26-0.73
				c-0.11-0.24-0.28-0.45-0.45-0.66c-0.17-0.2-0.39-0.37-0.61-0.51c-0.16-0.1-0.35-0.17-0.53-0.24c-0.07-0.03-0.13-0.05-0.21-0.06
				c-0.41-0.08-0.79-0.09-1.2,0.03c-0.36,0.1-0.71,0.36-0.9,0.69c-0.19,0.32-0.27,0.8-0.15,1.16c0.12,0.36,0.34,0.71,0.69,0.9
				c0.36,0.19,0.76,0.26,1.16,0.15c0.05-0.01,0.09-0.02,0.14-0.03c-0.13,0.02-0.27,0.04-0.4,0.05c0.08-0.01,0.16-0.01,0.25,0
				c-0.13-0.02-0.27-0.04-0.4-0.05c0.08,0.01,0.16,0.04,0.23,0.07c-0.12-0.05-0.24-0.1-0.36-0.15c0.09,0.04,0.18,0.09,0.26,0.15
				c-0.1-0.08-0.2-0.16-0.3-0.23c0.09,0.07,0.17,0.15,0.24,0.24c-0.08-0.1-0.16-0.2-0.23-0.3c0.08,0.11,0.15,0.22,0.2,0.35
				c-0.05-0.12-0.1-0.24-0.15-0.36c0.05,0.13,0.09,0.25,0.1,0.39c-0.02-0.13-0.04-0.27-0.05-0.4c0.01,0.1,0.01,0.21,0,0.31
				c0.02-0.13,0.04-0.27,0.05-0.4c-0.01,0.09-0.04,0.18-0.07,0.27c0.05-0.12,0.1-0.24,0.15-0.36c-0.03,0.08-0.08,0.15-0.13,0.22
				c0.08-0.1,0.16-0.2,0.23-0.3c-0.07,0.09-0.14,0.16-0.23,0.23c0.1-0.08,0.2-0.16,0.3-0.23c-0.09,0.06-0.18,0.11-0.27,0.16
				c0.12-0.05,0.24-0.1,0.36-0.15c-0.12,0.05-0.24,0.08-0.36,0.1c0.13-0.02,0.27-0.04,0.4-0.05c-0.15,0.02-0.29,0.02-0.44,0
				c0.13,0.02,0.27,0.04,0.4,0.05c-0.16-0.02-0.31-0.06-0.46-0.13c0.12,0.05,0.24,0.1,0.36,0.15c-0.14-0.06-0.27-0.13-0.39-0.22
				c0.1,0.08,0.2,0.16,0.3,0.23c-0.1-0.08-0.19-0.17-0.27-0.27c0.08,0.1,0.16,0.2,0.23,0.3c-0.07-0.09-0.13-0.19-0.17-0.29
				c0.05,0.12,0.1,0.24,0.15,0.36c-0.04-0.1-0.07-0.2-0.09-0.31c0.02,0.13,0.04,0.27,0.05,0.4c-0.01-0.08-0.01-0.16,0-0.24
				c-0.02,0.13-0.04,0.27-0.05,0.4c0.01-0.07,0.03-0.13,0.05-0.19c-0.05,0.12-0.1,0.24-0.15,0.36c0.02-0.04,0.04-0.09,0.07-0.13
				c-0.08,0.1-0.16,0.2-0.23,0.3c0.03-0.03,0.05-0.05,0.08-0.08c-0.1,0.08-0.2,0.16-0.3,0.23c0.03-0.02,0.06-0.04,0.1-0.06
				c-0.12,0.05-0.24,0.1-0.36,0.15c0.05-0.02,0.09-0.03,0.14-0.04c-0.13,0.02-0.27,0.04-0.4,0.05c0.05-0.01,0.09-0.01,0.14,0
				c-0.13-0.02-0.27-0.04-0.4-0.05c0.04,0.01,0.07,0.01,0.11,0.03c-0.12-0.05-0.24-0.1-0.36-0.15c0.03,0.02,0.06,0.03,0.09,0.05
				c-0.1-0.08-0.2-0.16-0.3-0.23c0.02,0.02,0.04,0.04,0.05,0.06c-0.08-0.1-0.16-0.2-0.23-0.3c0.01,0.02,0.02,0.03,0.03,0.05
				c0.17,0.32,0.55,0.59,0.9,0.69c0.36,0.1,0.84,0.05,1.16-0.15c0.32-0.21,0.6-0.51,0.69-0.9
				C93.58,162.43,93.54,162.05,93.34,161.68L93.34,161.68z"/>
		</g>
	</g>
	<g>
		<g>
			<path fill="#FFFFFF" d="M191.83,177.23c-1.32,0.28-1.97,1.81-1.64,3.03c0.28,1.04,1.21,1.77,2.16,2.18
				c0.29,0.13,0.58,0.26,0.9,0.31c0.45,0.08,0.84,0.09,1.29-0.01c0.64-0.15,1.13-0.58,1.5-1.1c0.31-0.44,0.42-0.97,0.46-1.5
				c0.04-0.54-0.11-1.06-0.34-1.54c-0.27-0.57-0.77-1.01-1.27-1.37c-0.43-0.3-0.94-0.5-1.43-0.66c-0.36-0.12-0.83-0.04-1.16,0.15
				c-0.31,0.18-0.61,0.54-0.69,0.9c-0.19,0.82,0.25,1.59,1.05,1.85c0.14,0.05,0.28,0.1,0.42,0.16c-0.12-0.05-0.24-0.1-0.36-0.15
				c0.28,0.12,0.54,0.26,0.77,0.44c-0.1-0.08-0.2-0.16-0.3-0.23c0.15,0.12,0.29,0.26,0.41,0.41c-0.08-0.1-0.16-0.2-0.23-0.3
				c0.09,0.13,0.18,0.26,0.24,0.4c-0.05-0.12-0.1-0.24-0.15-0.36c0.04,0.11,0.08,0.23,0.1,0.35c-0.02-0.13-0.04-0.27-0.05-0.4
				c0.02,0.15,0.02,0.3,0,0.44c0.02-0.13,0.04-0.27,0.05-0.4c-0.02,0.13-0.05,0.26-0.1,0.39c0.05-0.12,0.1-0.24,0.15-0.36
				c-0.05,0.11-0.1,0.21-0.17,0.3c0.08-0.1,0.16-0.2,0.23-0.3c-0.06,0.07-0.12,0.13-0.19,0.19c0.1-0.08,0.2-0.16,0.3-0.23
				c-0.07,0.06-0.15,0.1-0.23,0.14c0.12-0.05,0.24-0.1,0.36-0.15c-0.09,0.04-0.18,0.06-0.27,0.07c0.13-0.02,0.27-0.04,0.4-0.05
				c-0.11,0.01-0.22,0.01-0.33,0c0.13,0.02,0.27,0.04,0.4,0.05c-0.21-0.03-0.4-0.09-0.6-0.17c0.12,0.05,0.24,0.1,0.36,0.15
				c-0.31-0.13-0.62-0.3-0.89-0.5c0.1,0.08,0.2,0.16,0.3,0.23c-0.13-0.1-0.24-0.21-0.35-0.34c0.08,0.1,0.16,0.2,0.23,0.3
				c-0.08-0.1-0.14-0.21-0.19-0.33c0.05,0.12,0.1,0.24,0.15,0.36c-0.03-0.07-0.05-0.15-0.06-0.23c0.02,0.13,0.04,0.27,0.05,0.4
				c-0.01-0.11-0.01-0.21,0-0.32c-0.02,0.13-0.04,0.27-0.05,0.4c0.01-0.09,0.04-0.18,0.07-0.27c-0.05,0.12-0.1,0.24-0.15,0.36
				c0.03-0.07,0.07-0.14,0.11-0.2c-0.08,0.1-0.16,0.2-0.23,0.3c0.05-0.06,0.1-0.11,0.16-0.16c-0.1,0.08-0.2,0.16-0.3,0.23
				c0.04-0.03,0.08-0.05,0.13-0.07c-0.12,0.05-0.24,0.1-0.36,0.15c0.05-0.02,0.1-0.03,0.15-0.04c0.36-0.08,0.72-0.38,0.9-0.69
				c0.19-0.32,0.27-0.8,0.15-1.16c-0.12-0.36-0.34-0.71-0.69-0.9C192.62,177.18,192.24,177.14,191.83,177.23L191.83,177.23z"/>
		</g>
	</g>
	<g>
		<g>
			<path d="M123.5,294.01c-0.64,2.85-1.27,5.7-1.91,8.55c-0.17,0.76,0.23,1.66,1.05,1.85c0.76,0.17,1.66-0.23,1.85-1.05
				c0.64-2.85,1.27-5.7,1.91-8.55c0.17-0.76-0.23-1.66-1.05-1.85C124.58,292.79,123.68,293.19,123.5,294.01L123.5,294.01z"/>
		</g>
	</g>
	<g>
		<g>
			<path d="M112.15,305.63c4.68,0.68,9.36,0.16,14.01-0.5c3.59-0.51,7.16-1.53,9.4-4.58c1.14-1.56-1.46-3.06-2.59-1.51
				c-1.74,2.37-5.16,2.87-7.86,3.24c-4,0.54-8.14,1.05-12.16,0.46c-0.81-0.12-1.6,0.2-1.85,1.05
				C110.9,304.49,111.35,305.51,112.15,305.63L112.15,305.63z"/>
		</g>
	</g>
	<g>
		<g>
			<path d="M83.93,289.19c1.93,0,1.93-3,0-3C81.99,286.19,81.99,289.19,83.93,289.19L83.93,289.19z"/>
		</g>
	</g>
	<g>
		<g>
			<path d="M91.74,289.56c1.93,0,1.93-3,0-3C89.81,286.56,89.81,289.56,91.74,289.56L91.74,289.56z"/>
		</g>
	</g>
	<g>
		<g>
			<path d="M87.65,296.26c1.93,0,1.93-3,0-3C85.72,293.26,85.71,296.26,87.65,296.26L87.65,296.26z"/>
		</g>
	</g>
	<g>
		<g>
			<path d="M168.39,288.08c1.93,0,1.93-3,0-3C166.46,285.08,166.46,288.08,168.39,288.08L168.39,288.08z"/>
		</g>
	</g>
	<g>
		<g>
			<path d="M174.72,288.45c1.93,0,1.93-3,0-3C172.79,285.45,172.78,288.45,174.72,288.45L174.72,288.45z"/>
		</g>
	</g>
	<g>
		<g>
			<path d="M170.99,293.66c1.93,0,1.93-3,0-3C169.06,290.66,169.06,293.66,170.99,293.66L170.99,293.66z"/>
		</g>
	</g>
	<g>
		<g>
			<path d="M149.71,695.5c-0.69,6.21-1.39,12.41-2.08,18.62c-0.09,0.81,0.75,1.5,1.5,1.5c0.89,0,1.41-0.69,1.5-1.5
				c0.69-6.21,1.39-12.41,2.08-18.62c0.09-0.81-0.75-1.5-1.5-1.5C150.32,694,149.8,694.69,149.71,695.5L149.71,695.5z"/>
		</g>
	</g>
	<g>
		<g>
			<path d="M164.81,696.98c-0.34,5.84-0.69,11.68-1.03,17.52c-0.11,1.93,2.89,1.92,3,0c0.34-5.84,0.69-11.68,1.03-17.52
				C167.92,695.05,164.92,695.06,164.81,696.98L164.81,696.98z"/>
		</g>
	</g>
	<g>
		<g>
			<path d="M253.26,720.78c-0.78,4.71-1.55,9.42-2.33,14.12c-0.13,0.8,0.21,1.61,1.05,1.85c0.72,0.2,1.71-0.24,1.85-1.05
				c0.78-4.71,1.55-9.42,2.33-14.12c0.13-0.8-0.21-1.61-1.05-1.85C254.39,719.53,253.39,719.98,253.26,720.78L253.26,720.78z"/>
		</g>
	</g>
	<g>
		<g>
			<path d="M264.05,721.89c-0.71,4.6-1.41,9.19-2.12,13.79c-0.12,0.8,0.2,1.61,1.05,1.85c0.71,0.2,1.72-0.24,1.85-1.05
				c0.71-4.6,1.41-9.19,2.12-13.79c0.12-0.8-0.2-1.61-1.05-1.85C265.18,720.65,264.17,721.09,264.05,721.89L264.05,721.89z"/>
		</g>
	</g>
	<g>
		<g>
			<path d="M522.13,590.14c-1.51,7.22-3.01,14.43-4.52,21.65c-0.39,1.88,2.5,2.69,2.89,0.8c1.51-7.22,3.01-14.43,4.52-21.65
				C525.41,589.06,522.52,588.25,522.13,590.14L522.13,590.14z"/>
		</g>
	</g>
	<g>
		<g>
			<path d="M632.66,636.71c-0.21,4.92-1.01,9.78-2.37,14.51c-0.54,1.86,2.36,2.65,2.89,0.8c1.43-4.98,2.26-10.13,2.48-15.31
				C635.74,634.78,632.74,634.78,632.66,636.71L632.66,636.71z"/>
		</g>
	</g>
	<g>
		<g>
			<path d="M648.72,640.44c0.04,6.83,0.31,13.65,0.81,20.46c0.14,1.91,3.14,1.93,3,0c-0.5-6.81-0.78-13.63-0.81-20.46
				C651.71,638.51,648.71,638.5,648.72,640.44L648.72,640.44z"/>
		</g>
	</g>
	<g>
		<g>
			<path d="M506.64,589.51c-1.38,3.45-2.52,6.99-3.41,10.59c-0.19,0.79,0.25,1.63,1.05,1.85c0.77,0.21,1.65-0.26,1.85-1.05
				c0.89-3.61,2.03-7.15,3.41-10.59c0.3-0.75-0.33-1.65-1.05-1.85C507.63,588.23,506.94,588.76,506.64,589.51L506.64,589.51z"/>
		</g>
	</g>
</g>
<g id="colors">
	<rect class="color" x="1007.61" y="111.34" fill="#9F6E46" width="120.59" height="120.59"/>
	<rect class="color" x="1197.24" y="111.34" fill="#373633" width="120.59" height="120.59"/>
	<rect class="color" x="1197.24" y="264.14" fill="#D6AD88" width="120.59" height="120.59"/>
	<rect class="color" x="1197.24" y="421.55" fill="#241C18" width="120.59" height="120.59"/>
	<rect class="color" x="1197.24" y="569.75" fill="#B9B0A8" width="120.59" height="120.59"/>
	<rect class="color" x="1007.61" y="264.14" fill="#F5F2EF" width="120.59" height="120.59"/>
	<rect class="color" x="1007.61" y="416.94" fill="#86512C" width="120.59" height="120.59"/>
	<rect class="color" x="1007.61" y="563.31" fill="#BD9270" width="120.59" height="120.59"/>
</g>
</svg>
