<?xml version="1.0" encoding="utf-8"?>
<!-- Generator: Adobe Illustrator 24.3.0, SVG Export Plug-In . SVG Version: 6.00 Build 0)  -->
<svg version="1.1" xmlns="http://www.w3.org/2000/svg" xmlns:xlink="http://www.w3.org/1999/xlink" x="0px" y="0px"
	viewBox="0 0 2200 810" enable-background="new 0 0 1432.68 826.85" xml:space="preserve">
	<g id="duck" fill="white">
		<path d="M246.09,436.5c-22.11-20.61-44.21-41.21-66.32-61.81c-15.7-12.36-14.63-46.58-47.15-36.81
		c-15.52,4.66-28.85,15.9-46.11,15.51c-19.56-6.89-39.14-13.78-58.7-20.68v-7.24c41.29-26.06,84.23-7.5,126.55-4.52
		c21.62,1.52,41.44-2.75,58.97-15.93c8.1,17.78,16.22,35.55,24.33,53.34c-3.74,8.37-34.79,12.86-3.71,26.18
		c-0.41,2.4-0.81,4.81-1.22,7.22C228.21,409.36,246,420.28,246.09,436.5z" />
		<path d="M981.91,140.95c-6.16,0.74-12.33,1.46-18.49,2.19c-0.48-0.13-0.99-0.24-1.5-0.34
		c-2.38-0.45-4.96-0.58-7.42-0.9c-0.33-0.04-0.65-0.08-0.96-0.13c-0.62-0.08-1.22-0.21-1.81-0.34c-0.25-0.06-0.49-0.12-0.74-0.18
		c-0.83-0.22-1.64-0.51-2.39-0.87c-0.23-0.12-0.45-0.23-0.66-0.36c-0.11-0.06-0.22-0.12-0.33-0.19c-0.14-0.1-0.29-0.19-0.43-0.3
		c-0.43-0.3-0.83-0.65-1.21-1.05c-0.17-0.18-0.33-0.37-0.48-0.58c-0.08-0.1-0.16-0.19-0.23-0.3c-0.08-0.11-0.16-0.21-0.22-0.33
		c-0.14-0.22-0.28-0.45-0.41-0.69c-0.12-0.24-0.25-0.49-0.36-0.76c-0.11-0.27-0.22-0.54-0.31-0.83c-0.1-0.29-0.18-0.58-0.27-0.89
		c-0.16-0.63-0.29-1.3-0.39-2.04v-0.04c0.01-0.01,0.01-0.01,0-0.02c-0.04-0.31-0.07-0.64-0.1-0.98c-0.02-0.3-0.04-0.63-0.05-0.95
		c-0.94-5.61-1.89-11.2-2.83-16.8c-0.51-4.73,0.53-10.41-1.74-14.03C909.65,53.07,873.19-1.3,798.31,15.78
		c-16.55,4.97-33.56,8.79-49.53,15.22c-19.32,7.77-37.76,17.74-56.59,26.77c38.7-27.24,81.27-45.33,127.75-54.2h22.91
		C875.43,4.72,904.8,15,930.87,34.59c21.76,23.31,22.87,56.21,38.32,82.45C973.43,125.02,977.66,132.98,981.91,140.95z" />
		<path d="M1025.08,173.51c7.18,4.84,14.36,9.68,21.54,14.52c0,4.02,0,8.04,0,12.06c-4.16,2.6-2.59,11.68-10.87,9.61
		c4.63-4.84,2.83-7.98-2.23-11.31C1024.48,192.43,1018.36,185.03,1025.08,173.51z" />
		<path d="M922.9,372.56v0.01c-0.06,0.35-0.11,0.7-0.13,1.05c-0.05,0.4-0.07,0.8-0.1,1.21
		c-0.9,27.07-8.88,51.97-23.11,74.93c-1.57-5.03-3.12-10.06-4.69-15.09c-3.62,6.07-6.92,12.37-11,18.11
		c-2.3,3.24-7.48,5.02-8.67,8.39c-6.8,19.27-28.46,16.93-40.2,28.56c-5.11,5.07-0.05,15.55-9.03,19.21
		c-8.25-0.89-19.18,1.28-24.28-3.2c-19.67-17.27-39.64-35.08-54.87-56.06c-5.74-7.89-17.31-17.74-13.74-31.57
		c2.41,1.34,4.82,2.68,7.22,4.02c3.16-5.96,6.31-11.9,9.47-17.85c0.64-1.21,1.28-2.4,1.92-3.59c0.71,1.37,1.42,2.75,2.12,4.12
		c2.29,5.37,4.58,10.73,6.87,16.11c1.63-2.38,3.98-4.55,4.73-7.18c1.68-5.9,2.54-12.04,3.74-18.07c3.05,0.89,5.16,0.98,6.62,0.52
		c0.19-0.06,0.36-0.12,0.53-0.2c0.12-0.05,0.24-0.11,0.35-0.18c0.82-0.47,1.37-1.18,1.75-2.03c0.05-0.13,0.11-0.27,0.16-0.4
		c0.04-0.1,0.06-0.19,0.1-0.29c0.06-0.17,0.11-0.34,0.14-0.52c0.05-0.17,0.08-0.34,0.12-0.52c0.01-0.05,0.01-0.08,0.02-0.12
		c0.04-0.17,0.06-0.35,0.08-0.52c0.05-0.3,0.08-0.62,0.12-0.93c0.04-0.31,0.06-0.63,0.08-0.95c0.02-0.29,0.04-0.59,0.06-0.89
		c0.01-0.23,0.02-0.46,0.04-0.68c0.02-0.41,0.06-0.81,0.1-1.21l0.04-0.43c0.01-0.21,0.04-0.42,0.07-0.63
		c0.01-0.14,0.04-0.3,0.06-0.45c0.11-0.72,0.27-1.4,0.49-2.01c0.05-0.13,0.1-0.27,0.16-0.39c0.22-0.48,0.49-0.9,0.83-1.28
		c0.12-0.12,0.25-0.24,0.39-0.35v-0.01c2.47-2.15,4.94-4.31,7.42-6.45c0.68,2.21,1.65,4.38,1.94,6.65
		c0.55,4.25,0.72,8.55,1.05,12.83c2.83-3.26,5.68-6.52,8.51-9.79c3.67,6.42,7.32,12.84,10.99,19.26c2.33-6.02,4.82-11.98,6.93-18.07
		c2.16-6.24,3.05-1.99,4.2,0.39c2.27,4.63,4.5,9.3,6.73,13.95c6.98-3.59-7.97-35.84,18.4-14.09c1.1,1.01,2.18,2.03,3.28,3.04
		c0.49-0.82,1.56-1.77,1.4-2.44c-4.81-20.54,11.48-34.78,15.62-52.63c0.28-5.14,1.56-10.46,0.68-15.39
		c-4.91-27.65-20.88-53.6-12.76-83.34c0.22-0.8-2.92-2.51-4.49-3.79c-11.46-11.42-11.54-19.9,6.57-22.01
		c9.82-1.15,23.54-9.85,28.57,1.89c3.7,8.66,0.6,19.18,5.66,31.01C909.74,283.46,927.24,325.83,922.9,372.56z" />
		<path d="M922.9,372.57c-0.07,0.75-0.14,1.5-0.23,2.26c0.02-0.41,0.05-0.81,0.1-1.21
		C922.79,373.27,922.84,372.92,922.9,372.57z" />
		<path d="M601.49,586.09c-8.84,38.52-4.71,75.45,13.38,110.73c3.19,6.21,7.6,10.63,14.71,11.84
		c-1.8,0.51-3.6,1.02-5.39,1.53c1.53,1.18,2.9,2.75,4.63,3.46c10.56,4.33,21.29,8.24,31.73,12.8c2.59,1.13,4.34,4.19,6.47,6.36
		c-3.35,0.63-7.11,2.56-10,1.67c-14.35-4.4-28.45-9.63-42.7-14.36c-2.49-0.83-5.29-0.7-7.95-1.01c1.65,2.35,2.89,5.21,5.02,6.98
		c19.54,16.2,44.7,21.02,66.57,32.52c-3.19,8.22-8.01,12.54-17.58,8.87c-2.25-0.86-7.96,0.93-8.27,2.32
		c-6.68,30.86-29.84,23.35-50.35,22.03c2.25-0.76,4.98-0.95,6.65-2.38c5.4-4.63-1.55-3.88-2.74-4.88c-4.35-3.63-9.22-6.65-13.89-9.9
		c5.43-5.53,12.02-4.04,18.5-3.01c4.13,0.65,8.24,2.05,12.35,2.01c4.92-0.04,12.46,3.47,13.88-3.71c1.34-6.78-6.75-4.91-10.62-6.54
		c-6.21-2.62-12.86-4.17-19.33-6.17c3.66-0.66,7.31-1.33,10.97-1.99c-3.56-1.54-7.04-3.33-10.7-4.56
		c-11.94-4.02-23.87-8.13-35.96-11.66c-18.81-5.51,3.77-27.56-13.63-33.43c14.12-10.94,9.88-26.33,11.74-41.12
		c3.7-29.33-12.32-56.73-5.79-85.79C574.97,586.38,586.71,594.16,601.49,586.09z" />
		<path d="M899.56,449.76c-47.88,99.65-139.39,112.04-234.63,118.55c-21.72,1.5-47.87-7.62-63.44,17.79
		c-14.8,8.06-26.53,0.28-38.29-7.38c-3.06-5.02-8.14-8.88-12.63-4.22c-15.56,16.16-30.19,33.23-45.17,49.94
		c-2.09-1.15-4.16-2.29-6.24-3.44c16.96-16.62,23.79-41.81,46.48-53.72c18.52-9.73,36.49-20.49,54.7-30.79
		c1.91,4.39-4.74,13.56,6.01,12.9c40.58-2.5,81.12-5.57,121.67-8.43c19.15,5.38,38.17,9.73,54.54-6.89
		c12.57,3.67,22.78-4.43,33.58-7.91c5.28-1.71,19.36-4.41,9.82-17.22c8.98-3.67,3.92-14.15,9.03-19.21
		c11.73-11.63,33.39-9.29,40.2-28.56c1.19-3.38,6.37-5.15,8.67-8.39c4.08-5.74,7.38-12.05,11-18.11
		C896.44,439.7,898,444.73,899.56,449.76z" />
		<path d="M499.18,621c2.08,1.15,4.15,2.3,6.23,3.44c-1.88,8.35-4.09,16.64-5.57,25.05
		c-5.48,31.1,12.87,89.34,30.72,98.13c2.67,1.33,5.65,2.25,7.96,4.04c9.83,7.64,33.37,13.35,30.71,16.65
		c-11.65,14.48-23.69-4.23-36.56-5.64c-4.9-0.54-9.66-7.41-14.12-1.24c-0.67,0.92,6.18,8.52,10.55,11.6
		c15.04,10.6,36.46,6.83,49.77,21.68c-8.11,17.19-19.89,5.33-29.28,2.72c-25.62-7.13-50.82-15.79-76.15-23.95
		c-6.62-2.13-4.94-7.72-4.04-12.17c8.84-43.97,12.33-87.69-3.5-131.07c-1.49-4.09,0.48-9.44,0.84-14.2
		c3.61,0.35,7.21,0.71,10.82,1.06C484.77,618.41,491.97,619.71,499.18,621z" />
		<path d="M922.9,372.57c-0.07,0.75-0.14,1.5-0.23,2.26c0.02-0.41,0.05-0.81,0.1-1.21
		C922.79,373.27,922.84,372.92,922.9,372.57z" />
		<path d="M933.39,345.11c-0.01,0.25-0.04,0.52-0.07,0.77c-0.04,0.35-0.07,0.69-0.13,1.03c0,0.05-0.01,0.08-0.02,0.12
		c-0.05,0.33-0.1,0.64-0.17,0.94c-0.39,1.89-1.01,3.7-1.76,5.46c-0.1,0.24-0.2,0.47-0.3,0.7c-0.68,1.51-1.44,2.98-2.21,4.44
		c-0.29,0.54-0.59,1.09-0.88,1.63c-0.86,1.6-1.71,3.21-2.47,4.84c-0.14,0.3-0.29,0.62-0.42,0.93c-0.28,0.63-0.54,1.25-0.77,1.89
		c-0.24,0.64-0.46,1.28-0.65,1.93c-0.14,0.51-0.28,1.03-0.39,1.54c-0.1,0.41-0.18,0.82-0.24,1.23c4.34-46.73-13.16-89.1-30.73-130.3
		c-5.05-11.83-1.95-22.35-5.66-31.01c-5.03-11.75-18.75-3.04-28.57-1.89c-18.11,2.11-18.03,10.59-6.57,22.01
		c-4.51,1.62-9.01,3.23-13.52,4.85c-12.72-8.51-6.99-21.65-8.29-33.02c-0.17-1.48-0.58-2.94-0.88-4.4
		c-1.31,0.31-3.15,0.18-3.88,1.01c-11.88,13.45-21.49,8.72-30.25-3.59c1.23-1.54,2.45-3.09,3.68-4.64
		c-18.43-16.56,3.75-11.87,8.55-16.23c0.52-0.47,1.51-0.43,2.28-0.64c13.58,3.53,28.84,4.49,40.82,8.47
		c28.94,9.61,52.1,7.56,73.77-13.37c0.4,4.84,0.81,9.68,1.22,14.52c-20.76,7.57-34.9,35.31-28.12,42.63
		c15.34,16.56,15.49,35.43,21.41,53.21c6.13,18.38,7.86,38.22,14.07,56.55C933.26,339.73,933.57,342.51,933.39,345.11z" />
		<path d="M1025.08,173.51c-6.72,11.51-0.6,18.92,8.44,24.87c5.06,3.33,6.86,6.47,2.23,11.31
		c-18.12-5.25-36.24-10.51-54.37-15.76c-8.29-4.74-16.27-10.17-24.94-14.04c-9.37-4.18-22.78-3.5-19.56-19.85
		c2.95-14.94,14.61-16.12,26.54-16.91c6.16-0.73,12.33-1.46,18.49-2.19C996.3,151.81,1010.69,162.66,1025.08,173.51z" />
		<path d="M677.98,758.62c-21.88-11.5-47.03-16.32-66.57-32.52c-2.14-1.77-3.37-4.63-5.02-6.98
		c2.66,0.31,5.46,0.18,7.95,1.01c14.25,4.73,28.35,9.96,42.7,14.36c2.89,0.89,6.64-1.04,10-1.67c-2.14-2.17-3.88-5.23-6.47-6.36
		c-10.45-4.57-21.18-8.48-31.73-12.8c-1.73-0.71-3.09-2.28-4.63-3.46c1.8-0.51,3.6-1.02,5.39-1.53c14.05,2.46,28.09,4.92,42.14,7.37
		c15.56,11.83,34.65,6.97,51.76,11.26c4.08,1.02,7.13,6.15,10.66,9.4c-2.01,0.75-4.08,2.27-6.02,2.12
		c-10.45-0.85-20.84-2.42-31.29-3.04c-3.18-0.19-6.49,1.85-9.74,2.86c2.67,1.37,5.2,3.38,8.03,4c7.08,1.54,12.98,4.12,14.99,11.87
		C699.4,755.88,688.69,757.25,677.98,758.62z" />
		<path d="M578.89,794.73c-13.31-14.85-34.73-11.08-49.77-21.68c-4.37-3.08-11.22-10.68-10.55-11.6
		c4.46-6.17,9.22,0.7,14.12,1.24c12.86,1.4,24.91,20.11,36.56,5.64c2.65-3.3-20.88-9.01-30.71-16.65c-2.31-1.79-5.29-2.72-7.96-4.04
		c25.34,3.22,50.68,6.44,76.02,9.65c6.47,2,13.12,3.55,19.33,6.17c3.87,1.63,11.97-0.23,10.62,6.54c-1.42,7.18-8.96,3.67-13.88,3.71
		c-4.11,0.03-8.22-1.36-12.35-2.01c-6.48-1.03-13.07-2.52-18.5,3.01c4.67,3.25,9.54,6.27,13.89,9.9c1.2,1,8.14,0.25,2.74,4.88
		c-1.67,1.43-4.41,1.62-6.65,2.38C594.15,792.8,586.52,793.77,578.89,794.73z" />
		<path d="M86.51,353.4c17.25,0.38,30.59-10.85,46.1-15.51c32.53-9.77,31.46,24.44,47.16,36.8
		c-23.94-13.01-51.14-8.16-76.35-14.06C97.54,359.26,92.13,355.87,86.51,353.4z" />
		<path d="M710.11,754.5c-2-7.75-7.91-10.33-14.99-11.87c-2.83-0.62-5.36-2.62-8.03-4c3.25-1.02,6.56-3.05,9.74-2.86
		c10.45,0.62,20.85,2.2,31.29,3.04c1.94,0.16,4.01-1.37,6.02-2.12c-3.52-3.24-6.58-8.37-10.66-9.4
		c-17.12-4.29-36.21,0.57-51.76-11.26c24.09,2.45,48.2,4.77,72.25,7.59c2.19,0.26,6,4.18,5.68,5.7
		c-2.51,12.11-4.38,25.63-20.14,27.55C723.24,757.65,716.59,755.39,710.11,754.5z" />
		<path d="M477.56,617.12c-3.61-0.35-7.21-0.7-10.82-1.06c-7.18-15.41-6.69-31.84-5.93-48.19
		c0.57-12.25-4.45-20.26-15.98-24.28c-0.23-2.32-0.45-4.63-0.68-6.95c9.17,2.32,18.34,4.64,27.51,6.97
		c-0.87,1.37-2.82,3.21-2.46,4.05C478.79,570.02,480.06,593.33,477.56,617.12z" />
		<path d="M963.42,143.14c-11.93,0.79-23.6,1.97-26.54,16.91c-3.22,16.35,10.19,15.66,19.56,19.85
		c8.68,3.87,16.66,9.3,24.94,14.04c-18.83-3.21-37.67-6.42-56.5-9.62c-0.41-4.84-0.81-9.68-1.22-14.53
		c-3.56-18.19,21.91-22.12,19.52-39.73C943.63,144.16,955.25,140.98,963.42,143.14z" />
		<path d="M353.39,223.05c-3.99,7.24-7.97,14.45-11.95,21.68c0.59-7.02-0.46-11.38-2.83-13.71
		c-0.1-0.11-0.22-0.22-0.33-0.31c-3.45-2.98-9.43-2.11-17.11,0.96c-25.7,10.3-51.7,19.3-80.2,17.34
		c-4.35-0.29-12.78,3.32-12.75,4.99c0.1,5.74,0.92,12.33,7.57,15.87c7.75,4.12,13.87,11.86,9.82,19.66
		c-10.52,20.19-13.1,39.27,0.48,58.78c-0.28,1.6-0.55,3.22-0.83,4.82c-2.53,1.74-5.07,3.47-7.6,5.22
		c-8.1-17.79-16.22-35.57-24.33-53.34c-5.32-27.9-0.34-54.73,8.35-81.18c2.06,5.11,6.02,9.19,9.59,2.75
		c15.17-27.38,41.17-35.63,69.09-40.7C339.02,178.88,362.02,195.15,353.39,223.05z" />
		<path d="M409.89,119.38c-2.82,0.58-5.66,1.16-8.48,1.72c2.51,2.16,5.03,4.33,7.55,6.49
		c-16.26,3.04-38.4-12.01-47.85,10.88c-9.23,22.35,4.31,39.41,21.25,53.33c-3.08,6.68-4.31,14.6-12.14,18.08
		c-4.39,5.07-8.77,10.12-13.16,15.2c-1.23-0.68-2.45-1.35-3.67-2.03c8.63-27.91-14.36-44.18-53.03-37.16
		c-27.92,5.08-53.92,13.33-69.09,40.7c-3.57,6.44-7.53,2.36-9.59-2.75c12.81-22.59,24.96-45.61,38.75-67.61
		c6.4-10.21,18.83-12.16,30.26-13.99c17.26-2.81,35.47-3.04,48.25-17.89c24.19-5.97,47.48-17.33,73.52-12.18
		C411.6,114.58,410.74,116.98,409.89,119.38z" />
		<path d="M692.15,58.92c-4.86,5.64-9.72,11.29-14.57,16.93c-16.92,14.58-35.06,28.08-44.33,49.51
		c-9.32,16.84-18.66,33.67-27.99,50.5c-5.57,14.07-11.14,28.14-16.72,42.2c-5.85,10.38-5.46,28.16-21.3,26.99
		c-6.22-0.47-11.38-15.05-17.03-23.22c-19.43-29.2,4.75-44.51,20.36-61.89c34.26-38.16,70.52-74.16,116.14-99.07
		C688.39,59.95,690.33,59.55,692.15,58.92z" />
		<path d="M450.78,165.14c-0.64,1.25-1.28,2.51-1.92,3.77c-7.13-9.99-16.34-17.91-28.57-19.14
		c-11.49-1.16-15,9.08-18.74,17.73c-6.4,8.1-12.8,16.21-19.2,24.3c-16.94-13.92-30.48-30.98-21.25-53.33
		c9.46-22.89,31.6-7.84,47.85-10.88c-2.52-2.16-5.04-4.33-7.55-6.49c2.82-0.57,5.66-1.15,8.48-1.72c0.86-2.4,1.71-4.8,2.57-7.2
		C456.89,104.13,460.68,109.37,450.78,165.14z" />
		<path d="M868.03,81.9c12.9-14.93,2.92-28.69-2.81-42.19c-3.11-7.28,0.19-7.32,5.31-7.32
		c-18.58-16.55-40.85-17.97-64.06-15.69c-2.67,0.25-5.43-0.59-8.15-0.93c-16.55,4.97-33.58,8.79-49.54,15.22
		c-19.32,7.77-37.75,17.74-56.57,26.77c-0.01,0.37-0.02,0.76-0.04,1.15c-4.87,5.64-9.73,11.29-14.58,16.93
		c25.65-14.24,50.77-29.66,77.26-42.1c9.52-4.46,22.38-1.76,33.71-2.33c23.19,3.96,42.02,15.61,57.37,33.04
		c1.27,1.45,1.45,5.23,0.48,7.01c-4.12,7.36-12.51,13.71-19.01,11.07c-29.05-11.82-46.96,8.39-67.67,21.01
		c4.31,1.57,8.61,3.12,12.9,4.69c0.89-1.16,1.8-2.32,2.7-3.47c9.29,1.18,18.57,2.38,27.85,3.56c14.81,7.24,29.62,14.47,44.42,21.71
		C877.96,123.99,904.3,116.23,868.03,81.9z M866.83,117.79c-12.69,7.16-24.04,6.4-33.18-5.93c-4.81-6.49-7.22-13.12,0.72-19.24
		c5.15-6.57,11.99-8.78,19.71-6.2c9.09,3.04,17.67,7.34,19.61,18.15C874.75,110.45,872.39,115.09,866.83,117.79z" />
		<path d="M648.38,227.23c-1.11,2.09-1.68,5.16-3.41,6.11c-19.59,10.77-39.35,21.2-59.06,31.72
		c-6.15,3.43-3.88,6.66,0.22,9.85c-1.69,2.81-3.38,5.61-5.05,8.42c-10.48,3.1-23.79-1.62-30.77,10.46c-1.04,1.78,2.71,6.33,4.25,9.6
		c-3.96-2.51-7.75-5.34-11.92-7.42c-5.16-2.58-10.54-4.78-15.98-6.71c-44.36-15.81-82.79,16.45-125.33,15.53
		c-8.83-6.17-17.51,10.06-26.36,0.17c-0.72-0.43-1.45-0.87-2.16-1.31c-1.56-9.12-3.11-18.23-4.67-27.35
		c-0.58-8.47-1.16-16.94-1.75-25.42c25.4-5.75,52.96-1.86,76.24-17.05c9.15-6.04,22.2,4.88,30.04-6.87
		c9.62,0.27,19.24,0.53,28.85,0.81c14.52-1.18,29.04-2.3,43.55-3.63c1.77-0.17,3.44-1.51,5.15-2.3
		c5.64,8.16,10.81,22.75,17.03,23.22c15.83,1.17,15.45-16.61,21.3-26.99c1.66-0.41,3.33-0.82,5-1.23
		c15.85,12.96-1.3,20.53-4.97,30.29c22.37,7.03,33.42-16.26,51.98-19.4C643.12,227.27,645.77,227.37,648.38,227.23z" />
		<path d="M472.67,226.95c-7.84,11.76-20.89,0.83-30.04,6.87c-6.4-11.64-11.07-23.67-8.48-37.35
		c21.35-0.41,7.72-19.49,14.71-27.56c0.64-1.27,1.28-2.52,1.92-3.77C453.73,187.28,445.62,213.34,472.67,226.95z" />
		<path d="M338.94,124.36c-12.79,14.85-31,15.08-48.25,17.89C306.77,136.29,322.85,130.32,338.94,124.36z" />
		<path d="M969.18,117.04c-15.44-26.24-16.55-59.14-38.31-82.45C959.01,54.93,965.29,85.43,969.18,117.04z" />
		<path d="M601.91,375.89c-0.47,3.29-0.95,6.57-1.42,9.87c-51.35-5.85-95.08,14.57-137.41,39.85
		c-3.12,2.16-6.26,4.33-9.39,6.49c0.25-2.24,0.65-4.47,0.68-6.72c0.01-0.66-1.4-1.97-1.5-1.91c-1.81,1.11-5.02,2.38-5.03,3.62
		c-0.07,14.34-14.12,17.49-21,26.28c-4.03,5.15-6.55,0.06-7.86-4.05c-1.98-6.2,0.98-17.44-7.84-17
		c-10.15,0.48-17.55,9.29-21.86,19.16c-0.69,1.59-1.34,3.18-2.01,4.78c-1.15-1.5-3.04-4.43-3.34-4.27
		c-3.46,1.77,0.57-15.44-6.68-2.67c-1.93-3.14-4.28-6.1-5.64-9.47c-0.83-2.06-0.04-4.76-0.19-7.16c-0.12-1.63-0.63-3.24-0.96-4.86
		c-0.89,1.3-1.89,2.54-2.67,3.91c-5.75,10.19-6.75,10.44-13.27,3.23c-6.71,13.15-4.94-6.14-12.7-3.09
		c-24.8,9.76-47.23-1.59-66.14-16.59c-13.3-10.56-33.36-7.33-42.93-23.51c0.41-2.41,0.81-4.82,1.22-7.22
		c9.6-9.27,19.19-18.55,28.79-27.81c6.31,2.97,12.42,2.8,18.28-1.17c18.58-1.42,37.4-1.47,55.71-4.56
		c36.52-6.17,72.37-19.89,109.8-15.9c51.68,5.51,101.7,25.93,155.02,16.87C601.65,359.96,601.78,367.92,601.91,375.89z" />
		<path d="M943.32,132v0.04c0,0,0.01,0,0,0.01c0.06,3.1-0.77,5.76-2.13,8.16c-0.82,1.44-1.81,2.77-2.91,4.06
		c-0.28,0.31-0.57,0.64-0.84,0.95c-0.29,0.31-0.59,0.63-0.88,0.94c-0.14,0.14-0.29,0.3-0.45,0.46c-0.14,0.14-0.3,0.3-0.46,0.47
		c-1.37,1.37-2.8,2.73-4.18,4.1l-0.46,0.46c-0.16,0.16-0.31,0.31-0.46,0.47c-0.16,0.14-0.3,0.3-0.45,0.46
		c-0.14,0.14-0.3,0.31-0.45,0.47c-0.3,0.31-0.59,0.63-0.87,0.95c-0.28,0.31-0.55,0.64-0.82,0.96c-0.81,0.96-1.56,1.98-2.2,3.03
		c-0.2,0.36-0.41,0.71-0.6,1.07c-1.59,3.04-2.34,6.5-1.51,10.72c-21.67,20.94-44.83,22.99-73.77,13.37
		c-11.99-3.98-27.24-4.93-40.82-8.47c7.41-7.16-25.57-8.61-2.54-17.98c-0.89-0.84-1.66-1.97-2.73-2.47c-2.28-1.07-4.7-1.82-7.07-2.7
		c2.15-1.91,4.28-3.82,6.43-5.73c10.36,20,27.83-8.9,41.12,6.07c3.93,4.43,21.09,2.3,28.47-2.52c21.26-13.91,38.04-34.87,65-39.5
		c0.86,1.13,1.71,2.27,2.58,3.4c0.94,5.6,1.89,11.19,2.83,16.8c0.05,0.37,0.08,0.74,0.11,1.1
		C943.31,131.44,943.32,131.73,943.32,132z" />
		<path d="M781.47,381.23v0.01c-0.13,0.11-0.27,0.23-0.39,0.35C781.19,381.47,781.33,381.34,781.47,381.23z" />
		<path d="M781.47,381.23v0.01c-0.13,0.11-0.27,0.23-0.39,0.35C781.19,381.47,781.33,381.34,781.47,381.23z" />
		<path d="M649.94,509.9c-22.07,15.27-47.11,1.18-71.13,5.7c-14.82,2.79-33.39-5.54-49.62,5.92
		c-12,8.47-21.86,4.67-29.26-7.09c-1.42-2.28-1.94-5.11-2.87-7.69c-1.28,3.35-2.74,6.65-3.74,10.08c-0.42,1.44,0.75,4.1,0.07,4.57
		c-1.72,1.18-4.09,1.44-6.2,2.06c0.72-2.81,1.22-5.68,2.19-8.39c1.48-4.14,4.04-8.02,4.73-12.25c0.57-3.43-0.95-7.2-1.56-10.82
		c-1.53,2.16-2.67,5.69-4.64,6.25c-11.95,3.36-1.48,26.48-18.58,22.79c-22.02-4.75-45.47-7.3-62.98-24.33
		c-5.99-7.14-1.7-4.92,1.18-10.5c18.84-36.53,34.06,1.52,50.76,1.59c3.75,0.01,4.55,0.19,2.48-2.35c-2.52-3.11-5.37-5.95-7.78-9.12
		c-2.16-2.85-3.92-5.99-5.85-9c3.1,0.37,6.22,0.59,9.29,1.17c8.35,1.58,14.33-0.01,15.34-9.95c0.16-1.53,2.41-2.83,3.69-4.25
		c1.07,2.51,2.39,4.94,3.17,7.54c1.3,4.28,1.28,10.24,7.75,9.25c7.1-1.09,2.35-6.03,2.01-9.39c-0.9-8.83,5.22-14.3,9.71-20.56
		c-8.16-10-14.42-27.97-29.96-7.18c-0.94-0.99-2.11-1.85-2.77-3c-0.96-1.68-1.57-3.56-2.33-5.35
		c42.33-25.28,86.06-45.7,137.41-39.85c-2.81,8.45-5.62,16.9-8.43,25.35c3.79,17.96,7.6,35.91,11.34,53.87
		c2.39,11.47,2.3,11.38,9.77,8.2c1.22-0.52,3.1-0.07,4.47,0.46C634.64,480.14,638.5,498.4,649.94,509.9z" />
		<path d="M669.35,530.26c-2.12,0.76-4.22,2.11-6.38,2.21c-22.84,0.99-45.68,1.78-68.54,2.63
		c-41,1.66-81.16,15.61-122.77,8.51c-9.17-2.33-18.34-4.66-27.51-6.97c0.23,2.32,0.45,4.63,0.68,6.95
		c-58.91-26.28-122.63-43.14-172.11-87.88c-8.88-6.4-17.75-12.81-26.63-19.2c-0.08-16.22-17.87-27.15-13.36-44.73
		c9.58,16.17,29.63,12.94,42.93,23.51c18.91,15,41.34,26.35,66.14,16.59c7.75-3.05,5.99,16.23,12.7,3.09
		c6.51,7.21,7.51,6.96,13.27-3.23c0.77-1.36,1.77-2.6,2.67-3.91c0.34,1.62,0.84,3.23,0.96,4.86c0.16,2.4-0.64,5.1,0.19,7.16
		c1.36,3.36,3.71,6.33,5.64,9.47c7.25-12.77,3.22,4.44,6.68,2.67c0.3-0.16,2.19,2.77,3.34,4.27c0.68-1.59,1.33-3.18,2.01-4.78
		c4.32-9.88,11.71-18.68,21.86-19.16c8.82-0.43,5.86,10.81,7.84,17c1.31,4.11,3.84,9.2,7.86,4.05c6.87-8.79,20.92-11.94,21-26.28
		c0.01-1.24,3.22-2.51,5.03-3.62c0.1-0.06,1.51,1.24,1.5,1.91c-0.02,2.24-0.42,4.47-0.68,6.72c3.14-2.16,6.27-4.33,9.39-6.49
		c0.76,1.8,1.36,3.68,2.33,5.35c0.66,1.16,1.83,2.01,2.77,3c15.53-20.79,21.79-2.82,29.96,7.18c-4.49,6.26-10.61,11.73-9.71,20.56
		c0.34,3.36,5.09,8.31-2.01,9.39c-6.48,0.99-6.45-4.97-7.75-9.25c-0.78-2.59-2.1-5.03-3.17-7.54c-1.28,1.41-3.53,2.71-3.69,4.25
		c-1.01,9.94-6.99,11.53-15.34,9.95c-3.06-0.58-6.19-0.8-9.29-1.17c1.93,3,3.69,6.15,5.85,9c2.41,3.17,5.26,6.01,7.78,9.12
		c2.06,2.54,1.27,2.36-2.48,2.35c-16.7-0.07-31.92-38.12-50.76-1.59c-2.88,5.58-7.18,3.36-1.18,10.5
		c17.51,17.03,40.96,19.57,62.98,24.33c17.1,3.69,6.63-19.43,18.58-22.79c1.98-0.55,3.11-4.09,4.64-6.25
		c0.6,3.62,2.12,7.39,1.56,10.82c-0.69,4.23-3.24,8.12-4.73,12.25c-0.98,2.71-1.47,5.58-2.19,8.39c2.11-0.63,4.47-0.88,6.2-2.06
		c0.68-0.47-0.49-3.14-0.07-4.57c1-3.44,2.46-6.73,3.74-10.08c0.93,2.58,1.45,5.41,2.87,7.69c7.39,11.76,17.26,15.56,29.26,7.09
		c16.22-11.46,34.79-3.14,49.62-5.92c24.02-4.52,49.06,9.56,71.13-5.7c2.67,1.36,6.07,2.11,7.85,4.22
		C662.05,519.16,665.55,524.83,669.35,530.26z" />
		<path d="M728.04,540.97c-40.56,2.86-81.09,5.93-121.67,8.43c-10.75,0.65-4.1-8.51-6.01-12.9
		c-1.98-0.47-3.96-0.93-5.93-1.4c22.85-0.84,45.7-1.64,68.54-2.63c2.16-0.1,4.26-1.45,6.38-2.21c-3.8-5.43-7.3-11.1-11.55-16.14
		c-1.78-2.11-5.19-2.86-7.85-4.22c-11.45-11.51-15.3-29.76-32.31-36.26c-1.37-0.53-3.26-0.98-4.47-0.46
		c-7.47,3.18-7.38,3.27-9.77-8.2c-3.74-17.96-7.55-35.92-11.34-53.87c2.81-8.45,5.62-16.9,8.43-25.35c0.47-3.29,0.95-6.57,1.42-9.87
		c2.11,13.22,3.62,26.57,6.45,39.63c6.67,30.63,32.66,47.82,49.83,71.21c15.74,21.45,36.78,33.17,60.31,42.42
		C718.83,535.4,730.67,532.35,728.04,540.97z" />
		<path d="M600.36,536.5c-18.21,10.3-36.18,21.06-54.7,30.79c-22.69,11.9-29.52,37.1-46.48,53.72
		c-7.21-1.29-14.41-2.59-21.62-3.88c2.51-23.78,1.23-47.09-8.36-69.45c-0.36-0.84,1.59-2.68,2.46-4.05
		c41.61,7.09,81.77-6.85,122.77-8.51C596.41,535.57,598.39,536.02,600.36,536.5z" />
		<path d="M816.16,526.17c-10.79,3.49-21.01,11.58-33.58,7.91c-16.37,16.62-35.38,12.27-54.54,6.89
		c2.63-8.62-9.21-5.57-9.54-11.82c-18.5-27.44-44.06-49.59-59.15-79.63c-16.53-32.9-36.19-65.02-21.01-104.25
		c18.31-3.11,0.23,11.38,6.75,13.97c0.08,0.82,0.16,1.63,0.24,2.44c7.83,47.25,25.28,89.72,61.7,122.51
		c5.99,5.39,16.47,8.57,18.66,14.92c6.69,19.38,21.73,26.1,38.8,31.38c17.89-4.51,18.9-7.65,6.68-20.61
		c-0.41-0.43-0.76-0.94-1.19-1.35c-29.49-27.45-39-65.49-53.47-100.88c2.36-0.62,4.73-1.24,7.1-1.86c5.8,2.09,9.26,5.98,9.48,12.35
		c-3.57,13.83,8,23.69,13.74,31.57c15.23,20.97,35.2,38.79,54.87,56.06c5.1,4.47,16.03,2.3,24.28,3.2
		C835.51,521.76,821.44,524.46,816.16,526.17z" />
		<path d="M794.69,219.31c-0.08-0.08-0.16-0.16-0.22-0.23v-0.01c0.06-0.54,0.06-1.06,0.01-1.57
		c0.06,0.51,0.06,1.03,0,1.57C794.56,219.15,794.63,219.23,794.69,219.31z" />
		<path d="M809.06,174.7c-0.77,0.21-1.76,0.17-2.28,0.64c-4.8,4.37-26.98-0.33-8.55,16.23
		c-22.77-11.35-41.46,2.93-61.34,9.76c-6.48-1.29-14.11,9.58-19.44-1.15c-6.11-12.3,8.62-7.88,10.97-13.22
		c0.35-0.78-4.09-4.68-6.81-5.57c-4.09-1.35-8.63-1.31-12.98-1.87c5.51-1.99,11.01-4.03,16.56-5.95c2.03-0.71,4.16-1.12,6.25-1.66
		c-2.15-0.25-4.29-0.62-6.45-0.75c-21.03-1.29-42.08-2.53-63.11-3.79c3.43-13.8,17.96-7.9,25.51-14.38
		c16.22-15.52,40.68,2.29,56.96-14c1.65-1.65,8.26,0.94,9.24-0.58c9.32-14.56,21.82-14.91,36.06-9.25
		c-4.5,12.84,5.93,13.59,13.51,16.64c-2.15,1.91-4.28,3.82-6.43,5.73c2.36,0.88,4.79,1.63,7.07,2.7c1.06,0.51,1.83,1.63,2.73,2.47
		C783.5,166.09,816.47,167.54,809.06,174.7z" />
		<polygon points="780.13,199.17 778.99,199.17 779.55,199.13 	" />
		<path d="M330.76,312.18c-33.39-0.07-61.8,11.55-84.67,36.14c-13.58-19.51-11-38.59-0.48-58.78
		c4.05-7.8-2.06-15.53-9.82-19.66c-6.66-3.55-7.48-10.13-7.57-15.87c-0.04-1.68,8.39-5.28,12.75-4.99
		c28.5,1.95,54.5-7.04,80.2-17.34c7.68-3.08,13.66-3.94,17.11-0.96c0.11,0.1,0.23,0.21,0.33,0.31c2.38,2.33,3.43,6.69,2.83,13.71
		v0.01c0.11,16.5-6.96,32.82-0.23,49.58C344.94,303.63,339.89,309.51,330.76,312.18z" />
		<path d="M363.33,308.5c-1.74,2.01-3.14,5.27-5.26,5.85c-24.41,6.72-48.94,13.01-73.42,19.43
		c-5.89,4.02-11.77,8.03-17.66,12.05c-0.12,1.66-0.24,3.33-0.36,4.99c-1.3,1.98-2.6,3.94-3.91,5.92
		c-9.6,9.26-19.19,18.54-28.79,27.81c-31.08-13.33-0.02-17.81,3.71-26.18c2.53-1.75,5.07-3.49,7.6-5.22
		c0.28-1.6,0.55-3.22,0.83-4.82c22.88-24.59,51.28-36.22,84.67-36.14c9.13-2.67,14.18-8.55,10.44-17.85
		c-6.73-16.76,0.34-33.08,0.23-49.58v-0.01c3.98-7.24,7.96-14.45,11.95-21.68c1.22,0.68,2.44,1.35,3.67,2.04
		C350.61,253.54,351.06,281.46,363.33,308.5z" />
		<path d="M442.63,233.82c-23.29,15.2-50.85,11.3-76.24,17.05c1.28-13.66,2.54-27.33,3.82-40.99
		c7.84-3.47,9.07-11.4,12.14-18.08c6.4-8.09,12.8-16.2,19.2-24.3c12.2,8.15,34.67,4.74,32.6,28.97
		C431.56,210.15,436.23,222.18,442.63,233.82z" />
		<path d="M372.8,303.65c-0.14,7.49-3.15,9.41-9.47,4.85c-12.28-27.04-12.72-54.96-6.28-83.41v-0.01
		c4.39-5.08,8.77-10.13,13.16-15.2c-1.28,13.66-2.54,27.33-3.82,40.99c0.59,8.48,1.17,16.96,1.75,25.42
		C369.69,285.42,371.25,294.53,372.8,303.65z" />
		<path d="M730.43,220.71c-24.48,15.12-48.53,31.15-76.97,38.34c-8.33-6.01,0.99-6.97,3.08-9.14
		c3.41-3.57,8.04-5.95,11.86-9.19c1.81-1.54,2.92-3.92,4.34-5.92c-2.28,0.1-5.08-0.64-6.77,0.42
		c-18.64,11.58-37.12,23.44-55.66,35.23c-0.8,0.51-1.66,0.9-2.51,1.35c0.33-0.78,0.54-1.65,1-2.36c3.12-4.72,6.3-9.41,9.44-14.11
		c-5.29,2.74-10.78,5.19-15.85,8.3c-5.62,3.45-10.87,7.5-16.28,11.29c-4.1-3.2-6.37-6.43-0.22-9.85
		c19.71-10.52,39.47-20.95,59.06-31.72c1.74-0.95,2.3-4.03,3.41-6.11c-2.6,0.14-5.26,0.05-7.81,0.48
		c-18.56,3.15-29.61,26.44-51.98,19.4c3.67-9.77,20.82-17.33,4.97-30.29c5.44-11.63,10.88-23.25,16.33-34.87
		c0.55-0.72,1.11-1.44,1.66-2.16c16.93-3.55,32.19-13.86,50.34-12.41c21.03,1.25,42.08,2.5,63.11,3.79
		c2.16,0.13,4.31,0.49,6.45,0.75c-2.09,0.54-4.22,0.95-6.25,1.66c-5.55,1.92-11.05,3.96-16.56,5.95c4.34,0.55,8.89,0.52,12.98,1.87
		c2.73,0.89,7.16,4.79,6.81,5.57c-2.35,5.34-17.09,0.92-10.97,13.22c5.33,10.72,12.96-0.14,19.44,1.15
		C729.07,205.9,723.37,211.17,730.43,220.71z" />
		<path d="M623.51,328.13c-6.42,9.85-16.64-6.09-23.11,3.4c-18.92-1.88-36.92-11-56.56-7.15
		c-5.57,0.36-11.14,0.69-16.72,1.11c-38.24,2.87-72.54-16.75-109.84-19.22c-5.32-0.49-10.64-0.98-15.96-1.47
		c42.54,0.92,80.97-31.34,125.33-15.53c5.44,1.93,10.82,4.12,15.98,6.71c4.16,2.07,7.96,4.91,11.92,7.42
		c-1.53-3.27-5.28-7.82-4.25-9.6c6.97-12.07,20.29-7.36,30.77-10.46c10.5,6.98,14.29,22.89,30.15,22.78
		c-2.83,10.48-1.35,18.77,10.95,21.54C622.62,327.82,623.06,327.98,623.51,328.13z" />
		<path d="M672.74,234.8c-1.42,2-2.53,4.38-4.34,5.92c-3.81,3.24-8.44,5.62-11.86,9.19
		c-2.09,2.17-11.41,3.14-3.08,9.14c-14.09,15.69-28.16,31.38-42.25,47.06c-15.86,0.11-19.65-15.8-30.15-22.78
		c1.68-2.81,3.36-5.61,5.05-8.42c5.41-3.79,10.66-7.84,16.28-11.29c5.07-3.11,10.55-5.56,15.85-8.3c-3.15,4.7-6.32,9.39-9.44,14.11
		c-0.46,0.71-0.68,1.58-1,2.36c0.84-0.45,1.71-0.84,2.51-1.35c18.54-11.78,37.01-23.65,55.66-35.23
		C667.66,234.16,670.46,234.9,672.74,234.8z" />
		<path d="M609.88,181.95c-5.45,11.61-10.89,23.24-16.33,34.87c-1.68,0.41-3.34,0.82-5,1.23
		c5.57-14.06,11.14-28.12,16.72-42.2C606.8,177.89,608.34,179.91,609.88,181.95z" />
		<path d="M846.39,71.47c-4.11,7.36-12.51,13.71-19.01,11.07c-29.05-11.82-46.95,8.39-67.67,21.01
		c-6.85,0.37-13.69,0.75-20.54,1.12c-10.9,1.33-21.8,2.65-32.71,3.98c-16.92-3.85-30.86,3.39-44.44,11.93
		c0.93-2.95,1.86-5.9,2.8-8.85c-3.24,1.27-6.54,2.44-9.72,3.82c-7.31,3.21-14.57,6.52-21.85,9.8c9.27-21.43,27.41-34.93,44.33-49.51
		c25.65-14.24,50.76-29.66,77.26-42.1c9.5-4.46,22.37-1.76,33.71-2.33c23.18,3.96,42.01,15.61,57.36,33.04
		C847.17,65.91,847.37,69.7,846.39,71.47z" />
		<path d="M664.83,111.73c-0.94,2.95-1.87,5.9-2.8,8.85c-21.45,15.8-41.74,32.59-50.48,59.22
		c-0.55,0.72-1.11,1.44-1.66,2.16c-1.54-2.04-3.08-4.06-4.62-6.1c9.33-16.82,18.67-33.66,27.99-50.5c7.28-3.28,14.54-6.6,21.85-9.8
		C658.29,114.16,661.58,112.99,664.83,111.73z" />
		<path d="M434.15,196.47c2.07-24.23-20.39-20.82-32.6-28.97c3.74-8.65,7.25-18.89,18.74-17.73
		c12.23,1.23,21.44,9.15,28.57,19.14C441.87,176.98,455.5,196.06,434.15,196.47z" />
		<path d="M940.34,113.27c-0.87-1.13-1.72-2.27-2.58-3.4c-26.97,4.63-43.74,25.59-65,39.5
		c-7.38,4.82-24.54,6.95-28.47,2.52c-13.29-14.97-30.77,13.93-41.12-6.07c-7.57-3.05-18.01-3.8-13.51-16.64
		c4-14.86-3.98-19.95-17.02-20.94c0.89-1.16,1.8-2.32,2.7-3.47c9.27,1.18,18.56,2.38,27.83,3.56c14.81,7.24,29.62,14.47,44.42,21.71
		c30.37-6.04,56.71-13.8,20.44-48.13c12.9-14.93,2.92-28.69-2.81-42.19c-3.1-7.28,0.19-7.32,5.31-7.32
		c-18.58-16.55-40.85-17.97-64.06-15.69c-2.67,0.25-5.43-0.59-8.15-0.93C873.19-1.3,909.65,53.07,938.6,99.24
		C940.87,102.86,939.83,108.54,940.34,113.27z" />
		<path d="M718.51,529.15c-23.53-9.25-44.57-20.96-60.31-42.42c-17.17-23.4-43.16-40.58-49.83-71.21
		c-2.83-13.06-4.34-26.41-6.45-39.63c-0.13-7.97-0.25-15.93-0.37-23.9c-0.39-6.81-0.76-13.64-1.13-20.45
		c6.46-9.49,16.69,6.45,23.11-3.4c1.97-1.15,3.92-2.28,5.89-3.43c2.98,6.85,5.96,13.71,8.95,20.56
		c-15.18,39.23,4.47,71.35,21.01,104.25C674.45,479.56,700,501.71,718.51,529.15z" />
		<path d="M601.53,351.99c-53.32,9.06-103.34-11.36-155.02-16.87c-37.42-3.99-73.28,9.72-109.8,15.9
		c-18.31,3.09-37.12,3.14-55.71,4.56c-5.86,3.97-11.98,4.14-18.28,1.17c1.3-1.98,2.61-3.94,3.91-5.92c0.12-1.66,0.24-3.33,0.36-4.99
		c5.89-4.02,11.77-8.03,17.66-12.05c24.48-6.42,49.01-12.71,73.42-19.43c2.12-0.58,3.52-3.84,5.26-5.85
		c6.32,4.56,9.32,2.64,9.47-4.85c0.71,0.45,1.44,0.88,2.16,1.31c8.85,9.89,17.54-6.34,26.36-0.17c5.32,0.49,10.64,0.98,15.96,1.47
		c37.3,2.47,71.6,22.09,109.84,19.22c5.57-0.42,11.14-0.75,16.72-1.11c19.65-3.85,37.64,5.27,56.56,7.15
		C600.77,338.35,601.15,345.17,601.53,351.99z" />
		<path d="M764.49,530.48c-17.06-5.28-32.1-12-38.8-31.38c-2.18-6.34-12.66-9.53-18.66-14.92
		c-36.42-32.79-53.87-75.26-61.7-122.51c1.42-1.66,2.57-3.73,4.32-4.92c4.14-2.83,7.78-5.5,11.14-9.77
		c3.02-3.85,5.84,3.33,5.39,6.71c-0.65,4.91-2.95,9.59-4.55,14.38c2.22-1.29,4.44-2.57,6.66-3.85l6.66-3.86v0.01
		c0.04,1.07,0.06,2.15,0.1,3.22c0.02,0.71,0.05,1.42,0.07,2.13c0.05,1.06,0.1,2.12,0.18,3.15c0.05,0.69,0.12,1.37,0.2,2.04
		c1.06,8.65,4.69,15.12,19.04,12.45c4.63,10.52,9.96,20.41,21.95,24.28c14.47,35.4,23.99,73.43,53.47,100.88
		c0.43,0.41,0.78,0.92,1.19,1.35C783.39,522.83,782.38,525.97,764.49,530.48z" />
		<path d="M794.56,196.22c1.23-1.54,2.45-3.09,3.68-4.64c-22.77-11.35-41.46,2.93-61.34,9.76
		c-7.83,4.57-13.53,9.84-6.46,19.38c-24.48,15.12-48.53,31.15-76.97,38.34c-14.09,15.69-28.16,31.38-42.25,47.06
		c-2.83,10.48-1.35,18.77,10.95,21.54c0.45,0.17,0.89,0.33,1.34,0.48c1.97-1.15,3.92-2.28,5.89-3.43
		c2.98,6.85,5.96,13.71,8.95,20.56c18.31-3.11,0.23,11.38,6.75,13.97c0.08,0.82,0.16,1.63,0.24,2.44c1.42-1.66,2.57-3.73,4.32-4.92
		c4.14-2.83,7.78-5.5,11.14-9.77c3.02-3.85,5.84,3.33,5.39,6.71c-0.65,4.91-2.95,9.59-4.55,14.38c2.22-1.29,4.44-2.57,6.66-3.85
		l6.66-3.86h0.01c0.04,1.07,0.06,2.15,0.08,3.23c0.02,0.71,0.05,1.42,0.07,2.13c0.05,1.06,0.1,2.12,0.18,3.15
		c0.06,0.69,0.12,1.37,0.2,2.04c1.06,8.65,4.69,15.12,19.04,12.45c6.8-28.26,19.4-53.12,42.14-72.07
		c13.44-34.38,31.34-65.96,57.78-92.2v-0.01c0.06-0.54,0.06-1.06,0.01-1.57c-0.04-0.24-0.07-0.47-0.12-0.71
		c-0.05-0.22-0.11-0.45-0.19-0.65c-0.04-0.13-0.08-0.25-0.13-0.37c-0.01-0.05-0.04-0.1-0.06-0.13c-0.1-0.24-0.22-0.48-0.34-0.71
		c-0.12-0.24-0.27-0.47-0.4-0.7c-0.01-0.01-0.01-0.01-0.01-0.01c-0.14-0.23-0.3-0.46-0.46-0.68c-0.16-0.22-0.33-0.43-0.51-0.66
		c-0.23-0.29-0.47-0.58-0.72-0.86c0-0.01-0.01-0.01-0.01-0.01c-0.37-0.43-0.76-0.86-1.15-1.27c-0.12-0.14-0.25-0.29-0.39-0.43
		c-0.25-0.28-0.51-0.57-0.76-0.84c-1-1.15-1.91-2.33-2.45-3.63c-0.13-0.33-0.25-0.66-0.34-1c-0.05-0.18-0.08-0.35-0.11-0.53
		c-0.04-0.17-0.06-0.35-0.07-0.53c-0.12-1.36,0.19-2.88,1.13-4.62C789.78,198.17,792.17,197.2,794.56,196.22z M778.99,199.17
		l0.57-0.05l0.58,0.05H778.99z" />
		<polygon points="780.13,199.17 778.99,199.17 779.55,199.13 	" />
		<path d="M794.48,219.07l-0.01,0.01v-0.01c0.06-0.54,0.06-1.06,0.01-1.57C794.54,218.01,794.54,218.53,794.48,219.07
		z" />
		<path d="M674.96,360.36v0.01c-2.23,1.28-4.45,2.56-6.66,3.85L674.96,360.36z" />
		<path d="M867.94,333.89c-4.14,17.85-20.43,32.09-15.62,52.63c0.16,0.66-0.9,1.62-1.4,2.44
		c-1.1-1.01-2.18-2.03-3.28-3.04c-26.38-21.76-11.42,10.49-18.4,14.09c-2.23-4.66-4.46-9.32-6.73-13.95
		c-1.15-2.38-2.04-6.62-4.2-0.39c-2.11,6.09-4.61,12.05-6.93,18.07c-3.67-6.42-7.32-12.84-10.99-19.26
		c-2.83,3.27-5.68,6.54-8.51,9.79c-0.33-4.28-0.49-8.59-1.05-12.83c-0.29-2.27-1.27-4.44-1.94-6.65c-2.47,2.15-4.94,4.31-7.42,6.45
		c-0.14,0.11-0.28,0.24-0.39,0.36c-0.34,0.37-0.62,0.8-0.83,1.28c-0.06,0.12-0.11,0.25-0.16,0.39c-0.23,0.62-0.39,1.29-0.49,2.01
		c-0.02,0.14-0.05,0.3-0.06,0.45c-0.04,0.21-0.06,0.42-0.07,0.63l-0.04,0.43c-0.04,0.4-0.07,0.8-0.1,1.21
		c-0.01,0.22-0.02,0.45-0.04,0.68c-0.02,0.3-0.04,0.6-0.06,0.89c-0.02,0.33-0.05,0.64-0.08,0.95c-0.04,0.31-0.07,0.63-0.12,0.93
		c-0.02,0.17-0.05,0.35-0.08,0.52c-0.01,0.04-0.01,0.07-0.02,0.12c-0.04,0.18-0.07,0.35-0.12,0.52c-0.04,0.18-0.08,0.35-0.14,0.52
		c-0.04,0.1-0.06,0.19-0.1,0.29c-0.05,0.13-0.11,0.27-0.16,0.4c-0.37,0.84-0.93,1.56-1.75,2.03c-0.11,0.07-0.23,0.13-0.35,0.18
		c-0.17,0.08-0.34,0.14-0.53,0.2c-1.46,0.46-3.57,0.37-6.62-0.52c-1.19,6.03-2.06,12.17-3.74,18.07c-0.75,2.63-3.1,4.8-4.73,7.18
		c-2.29-5.38-4.58-10.75-6.87-16.11c-0.7-1.37-1.41-2.75-2.12-4.12c-0.64,1.19-1.28,2.39-1.92,3.59
		c-3.16,5.95-6.31,11.89-9.47,17.85c-2.4-1.34-4.81-2.68-7.22-4.02c-0.22-6.37-3.68-10.26-9.48-12.35c-2.38,0.62-4.74,1.24-7.1,1.86
		c-11.99-3.87-17.32-13.76-21.95-24.28c6.8-28.26,19.4-53.12,42.14-72.07c13.44-34.38,31.34-65.96,57.78-92.2
		c0.06,0.07,0.13,0.14,0.22,0.23c-0.06-0.08-0.13-0.17-0.2-0.24c0.06-0.54,0.06-1.06,0-1.57c-0.04-0.24-0.07-0.47-0.12-0.71
		c-0.05-0.22-0.11-0.45-0.19-0.65c-0.04-0.13-0.08-0.25-0.13-0.37c-0.01-0.05-0.04-0.1-0.06-0.13c-0.1-0.24-0.22-0.48-0.34-0.71
		c-0.12-0.24-0.27-0.47-0.4-0.7c-0.01-0.01-0.01-0.01-0.01-0.01c-0.14-0.23-0.3-0.46-0.46-0.68c-0.16-0.22-0.33-0.43-0.51-0.66
		c-0.23-0.29-0.47-0.58-0.72-0.86c0-0.01-0.01-0.01-0.01-0.01c-0.37-0.43-0.76-0.86-1.15-1.27c-0.12-0.14-0.25-0.29-0.39-0.43
		c-0.25-0.28-0.51-0.57-0.76-0.84c-1-1.15-1.91-2.33-2.45-3.63c-0.13-0.33-0.25-0.66-0.34-1c-0.05-0.18-0.08-0.35-0.11-0.53
		c-0.04-0.17-0.06-0.35-0.07-0.53c-0.12-1.36,0.19-2.88,1.13-4.62c2.38-0.98,4.76-1.95,7.15-2.93c8.76,12.31,18.37,17.04,30.25,3.59
		c0.74-0.83,2.57-0.7,3.88-1.01c0.3,1.46,0.71,2.92,0.88,4.4c1.29,11.37-4.44,24.51,8.29,33.02c4.51-1.62,9.01-3.23,13.52-4.85
		c1.57,1.28,4.7,2.99,4.49,3.79c-8.12,29.74,7.85,55.68,12.76,83.34C869.5,323.43,868.22,328.75,867.94,333.89z" />
		<path d="M794.69,219.31c-0.08-0.08-0.16-0.16-0.22-0.23l0.01-0.01C794.56,219.15,794.63,219.23,794.69,219.31z" />
		<path d="M789.65,129.18c-14.24-5.66-26.74-5.31-36.06,9.25c-0.98,1.52-7.59-1.07-9.24,0.58
		c-16.28,16.29-40.74-1.52-56.96,14c-7.55,6.48-22.08,0.58-25.51,14.38c-18.15-1.45-33.41,8.86-50.34,12.41
		c8.74-26.63,29.03-43.42,50.48-59.22c13.58-8.54,27.52-15.77,44.44-11.93c10.9-1.33,21.8-2.65,32.71-3.98
		c6.85-0.37,13.69-0.75,20.54-1.12c4.31,1.57,8.61,3.12,12.92,4.69C785.67,109.23,793.65,114.32,789.65,129.18z" />
		<polygon points="780.13,199.17 778.99,199.17 779.55,199.13 	" />
	</g>
	<g id="outlines">
		<path fill="none" stroke="#000000" stroke-miterlimit="10" d="M246.09,436.5c-22.11-20.61-44.21-41.21-66.32-61.81
		c-15.7-12.36-14.63-46.58-47.15-36.81c-15.52,4.66-28.85,15.9-46.11,15.51c-19.56-6.89-39.14-13.78-58.7-20.68v-7.24
		c41.29-26.06,84.23-7.5,126.55-4.52c21.62,1.52,41.44-2.75,58.97-15.93c8.1,17.78,16.22,35.55,24.33,53.34
		c-3.74,8.37-34.79,12.86-3.71,26.18c-0.41,2.4-0.81,4.81-1.22,7.22C228.21,409.36,246,420.28,246.09,436.5z" />
		<path fill="none" stroke="#000000" stroke-miterlimit="10" d="M981.91,140.95c-6.16,0.74-12.33,1.46-18.49,2.19
		c-0.48-0.13-0.99-0.24-1.5-0.34c-2.38-0.45-4.96-0.58-7.42-0.9c-0.33-0.04-0.65-0.08-0.96-0.13c-0.62-0.08-1.22-0.21-1.81-0.34
		c-0.25-0.06-0.49-0.12-0.74-0.18c-0.83-0.22-1.64-0.51-2.39-0.87c-0.23-0.12-0.45-0.23-0.66-0.36c-0.11-0.06-0.22-0.12-0.33-0.19
		c-0.14-0.1-0.29-0.19-0.43-0.3c-0.43-0.3-0.83-0.65-1.21-1.05c-0.17-0.18-0.33-0.37-0.48-0.58c-0.08-0.1-0.16-0.19-0.23-0.3
		c-0.08-0.11-0.16-0.21-0.22-0.33c-0.14-0.22-0.28-0.45-0.41-0.69c-0.12-0.24-0.25-0.49-0.36-0.76c-0.11-0.27-0.22-0.54-0.31-0.83
		c-0.1-0.29-0.18-0.58-0.27-0.89c-0.16-0.63-0.29-1.3-0.39-2.04v-0.04c0.01-0.01,0.01-0.01,0-0.02c-0.04-0.31-0.07-0.64-0.1-0.98
		c-0.02-0.3-0.04-0.63-0.05-0.95c-0.94-5.61-1.89-11.2-2.83-16.8c-0.51-4.73,0.53-10.41-1.74-14.03
		C909.65,53.07,873.19-1.3,798.31,15.78c-16.55,4.97-33.56,8.79-49.53,15.22c-19.32,7.77-37.76,17.74-56.59,26.77
		c38.7-27.24,81.27-45.33,127.75-54.2h22.91C875.43,4.72,904.8,15,930.87,34.59c21.76,23.31,22.87,56.21,38.32,82.45
		C973.43,125.02,977.66,132.98,981.91,140.95z" />
		<path fill="none" stroke="#000000" stroke-miterlimit="10" d="M1025.08,173.51c7.18,4.84,14.36,9.68,21.54,14.52
		c0,4.02,0,8.04,0,12.06c-4.16,2.6-2.59,11.68-10.87,9.61c4.63-4.84,2.83-7.98-2.23-11.31
		C1024.48,192.43,1018.36,185.03,1025.08,173.51z" />
		<path fill="none" stroke="#000000" stroke-miterlimit="10" d="M922.9,372.56v0.01c-0.06,0.35-0.11,0.7-0.13,1.05
		c-0.05,0.4-0.07,0.8-0.1,1.21c-0.9,27.07-8.88,51.97-23.11,74.93c-1.57-5.03-3.12-10.06-4.69-15.09c-3.62,6.07-6.92,12.37-11,18.11
		c-2.3,3.24-7.48,5.02-8.67,8.39c-6.8,19.27-28.46,16.93-40.2,28.56c-5.11,5.07-0.05,15.55-9.03,19.21
		c-8.25-0.89-19.18,1.28-24.28-3.2c-19.67-17.27-39.64-35.08-54.87-56.06c-5.74-7.89-17.31-17.74-13.74-31.57
		c2.41,1.34,4.82,2.68,7.22,4.02c3.16-5.96,6.31-11.9,9.47-17.85c0.64-1.21,1.28-2.4,1.92-3.59c0.71,1.37,1.42,2.75,2.12,4.12
		c2.29,5.37,4.58,10.73,6.87,16.11c1.63-2.38,3.98-4.55,4.73-7.18c1.68-5.9,2.54-12.04,3.74-18.07c3.05,0.89,5.16,0.98,6.62,0.52
		c0.19-0.06,0.36-0.12,0.53-0.2c0.12-0.05,0.24-0.11,0.35-0.18c0.82-0.47,1.37-1.18,1.75-2.03c0.05-0.13,0.11-0.27,0.16-0.4
		c0.04-0.1,0.06-0.19,0.1-0.29c0.06-0.17,0.11-0.34,0.14-0.52c0.05-0.17,0.08-0.34,0.12-0.52c0.01-0.05,0.01-0.08,0.02-0.12
		c0.04-0.17,0.06-0.35,0.08-0.52c0.05-0.3,0.08-0.62,0.12-0.93c0.04-0.31,0.06-0.63,0.08-0.95c0.02-0.29,0.04-0.59,0.06-0.89
		c0.01-0.23,0.02-0.46,0.04-0.68c0.02-0.41,0.06-0.81,0.1-1.21l0.04-0.43c0.01-0.21,0.04-0.42,0.07-0.63
		c0.01-0.14,0.04-0.3,0.06-0.45c0.11-0.72,0.27-1.4,0.49-2.01c0.05-0.13,0.1-0.27,0.16-0.39c0.22-0.48,0.49-0.9,0.83-1.28
		c0.12-0.12,0.25-0.24,0.39-0.35v-0.01c2.47-2.15,4.94-4.31,7.42-6.45c0.68,2.21,1.65,4.38,1.94,6.65
		c0.55,4.25,0.72,8.55,1.05,12.83c2.83-3.26,5.68-6.52,8.51-9.79c3.67,6.42,7.32,12.84,10.99,19.26c2.33-6.02,4.82-11.98,6.93-18.07
		c2.16-6.24,3.05-1.99,4.2,0.39c2.27,4.63,4.5,9.3,6.73,13.95c6.98-3.59-7.97-35.84,18.4-14.09c1.1,1.01,2.18,2.03,3.28,3.04
		c0.49-0.82,1.56-1.77,1.4-2.44c-4.81-20.54,11.48-34.78,15.62-52.63c0.28-5.14,1.56-10.46,0.68-15.39
		c-4.91-27.65-20.88-53.6-12.76-83.34c0.22-0.8-2.92-2.51-4.49-3.79c-11.46-11.42-11.54-19.9,6.57-22.01
		c9.82-1.15,23.54-9.85,28.57,1.89c3.7,8.66,0.6,19.18,5.66,31.01C909.74,283.46,927.24,325.83,922.9,372.56z" />
		<path fill="none" stroke="#000000" stroke-miterlimit="10" d="M922.9,372.57c-0.07,0.75-0.14,1.5-0.23,2.26
		c0.02-0.41,0.05-0.81,0.1-1.21C922.79,373.27,922.84,372.92,922.9,372.57z" />
		<path fill="none" stroke="#000000" stroke-miterlimit="10" d="M601.49,586.09c-8.84,38.52-4.71,75.45,13.38,110.73
		c3.19,6.21,7.6,10.63,14.71,11.84c-1.8,0.51-3.6,1.02-5.39,1.53c1.53,1.18,2.9,2.75,4.63,3.46c10.56,4.33,21.29,8.24,31.73,12.8
		c2.59,1.13,4.34,4.19,6.47,6.36c-3.35,0.63-7.11,2.56-10,1.67c-14.35-4.4-28.45-9.63-42.7-14.36c-2.49-0.83-5.29-0.7-7.95-1.01
		c1.65,2.35,2.89,5.21,5.02,6.98c19.54,16.2,44.7,21.02,66.57,32.52c-3.19,8.22-8.01,12.54-17.58,8.87
		c-2.25-0.86-7.96,0.93-8.27,2.32c-6.68,30.86-29.84,23.35-50.35,22.03c2.25-0.76,4.98-0.95,6.65-2.38c5.4-4.63-1.55-3.88-2.74-4.88
		c-4.35-3.63-9.22-6.65-13.89-9.9c5.43-5.53,12.02-4.04,18.5-3.01c4.13,0.65,8.24,2.05,12.35,2.01c4.92-0.04,12.46,3.47,13.88-3.71
		c1.34-6.78-6.75-4.91-10.62-6.54c-6.21-2.62-12.86-4.17-19.33-6.17c3.66-0.66,7.31-1.33,10.97-1.99c-3.56-1.54-7.04-3.33-10.7-4.56
		c-11.94-4.02-23.87-8.13-35.96-11.66c-18.81-5.51,3.77-27.56-13.63-33.43c14.12-10.94,9.88-26.33,11.74-41.12
		c3.7-29.33-12.32-56.73-5.79-85.79C574.97,586.38,586.71,594.16,601.49,586.09z" />
		<path fill="none" stroke="#000000" stroke-miterlimit="10" d="M899.56,449.76c-47.88,99.65-139.39,112.04-234.63,118.55
		c-21.72,1.5-47.87-7.62-63.44,17.79c-14.8,8.06-26.53,0.28-38.29-7.38c-3.06-5.02-8.14-8.88-12.63-4.22
		c-15.56,16.16-30.19,33.23-45.17,49.94c-2.09-1.15-4.16-2.29-6.24-3.44c16.96-16.62,23.79-41.81,46.48-53.72
		c18.52-9.73,36.49-20.49,54.7-30.79c1.91,4.39-4.74,13.56,6.01,12.9c40.58-2.5,81.12-5.57,121.67-8.43
		c19.15,5.38,38.17,9.73,54.54-6.89c12.57,3.67,22.78-4.43,33.58-7.91c5.28-1.71,19.36-4.41,9.82-17.22
		c8.98-3.67,3.92-14.15,9.03-19.21c11.73-11.63,33.39-9.29,40.2-28.56c1.19-3.38,6.37-5.15,8.67-8.39c4.08-5.74,7.38-12.05,11-18.11
		C896.44,439.7,898,444.73,899.56,449.76z" />
		<path fill="none" stroke="#000000" stroke-miterlimit="10" d="M499.18,621c2.08,1.15,4.15,2.3,6.23,3.44
		c-1.88,8.35-4.09,16.64-5.57,25.05c-5.48,31.1,12.87,89.34,30.72,98.13c2.67,1.33,5.65,2.25,7.96,4.04
		c9.83,7.64,33.37,13.35,30.71,16.65c-11.65,14.48-23.69-4.23-36.56-5.64c-4.9-0.54-9.66-7.41-14.12-1.24
		c-0.67,0.92,6.18,8.52,10.55,11.6c15.04,10.6,36.46,6.83,49.77,21.68c-8.11,17.19-19.89,5.33-29.28,2.72
		c-25.62-7.13-50.82-15.79-76.15-23.95c-6.62-2.13-4.94-7.72-4.04-12.17c8.84-43.97,12.33-87.69-3.5-131.07
		c-1.49-4.09,0.48-9.44,0.84-14.2c3.61,0.35,7.21,0.71,10.82,1.06C484.77,618.41,491.97,619.71,499.18,621z" />
		<path fill="none" stroke="#000000" stroke-miterlimit="10" d="M922.9,372.57c-0.07,0.75-0.14,1.5-0.23,2.26
		c0.02-0.41,0.05-0.81,0.1-1.21C922.79,373.27,922.84,372.92,922.9,372.57z" />
		<path fill="none" stroke="#000000" stroke-miterlimit="10" d="M933.39,345.11c-0.01,0.25-0.04,0.52-0.07,0.77
		c-0.04,0.35-0.07,0.69-0.13,1.03c0,0.05-0.01,0.08-0.02,0.12c-0.05,0.33-0.1,0.64-0.17,0.94c-0.39,1.89-1.01,3.7-1.76,5.46
		c-0.1,0.24-0.2,0.47-0.3,0.7c-0.68,1.51-1.44,2.98-2.21,4.44c-0.29,0.54-0.59,1.09-0.88,1.63c-0.86,1.6-1.71,3.21-2.47,4.84
		c-0.14,0.3-0.29,0.62-0.42,0.93c-0.28,0.63-0.54,1.25-0.77,1.89c-0.24,0.64-0.46,1.28-0.65,1.93c-0.14,0.51-0.28,1.03-0.39,1.54
		c-0.1,0.41-0.18,0.82-0.24,1.23c4.34-46.73-13.16-89.1-30.73-130.3c-5.05-11.83-1.95-22.35-5.66-31.01
		c-5.03-11.75-18.75-3.04-28.57-1.89c-18.11,2.11-18.03,10.59-6.57,22.01c-4.51,1.62-9.01,3.23-13.52,4.85
		c-12.72-8.51-6.99-21.65-8.29-33.02c-0.17-1.48-0.58-2.94-0.88-4.4c-1.31,0.31-3.15,0.18-3.88,1.01
		c-11.88,13.45-21.49,8.72-30.25-3.59c1.23-1.54,2.45-3.09,3.68-4.64c-18.43-16.56,3.75-11.87,8.55-16.23
		c0.52-0.47,1.51-0.43,2.28-0.64c13.58,3.53,28.84,4.49,40.82,8.47c28.94,9.61,52.1,7.56,73.77-13.37c0.4,4.84,0.81,9.68,1.22,14.52
		c-20.76,7.57-34.9,35.31-28.12,42.63c15.34,16.56,15.49,35.43,21.41,53.21c6.13,18.38,7.86,38.22,14.07,56.55
		C933.26,339.73,933.57,342.51,933.39,345.11z" />
		<path fill="none" stroke="#000000" stroke-miterlimit="10" d="M1025.08,173.51c-6.72,11.51-0.6,18.92,8.44,24.87
		c5.06,3.33,6.86,6.47,2.23,11.31c-18.12-5.25-36.24-10.51-54.37-15.76c-8.29-4.74-16.27-10.17-24.94-14.04
		c-9.37-4.18-22.78-3.5-19.56-19.85c2.95-14.94,14.61-16.12,26.54-16.91c6.16-0.73,12.33-1.46,18.49-2.19
		C996.3,151.81,1010.69,162.66,1025.08,173.51z" />
		<path fill="none" stroke="#000000" stroke-miterlimit="10" d="M677.98,758.62c-21.88-11.5-47.03-16.32-66.57-32.52
		c-2.14-1.77-3.37-4.63-5.02-6.98c2.66,0.31,5.46,0.18,7.95,1.01c14.25,4.73,28.35,9.96,42.7,14.36c2.89,0.89,6.64-1.04,10-1.67
		c-2.14-2.17-3.88-5.23-6.47-6.36c-10.45-4.57-21.18-8.48-31.73-12.8c-1.73-0.71-3.09-2.28-4.63-3.46c1.8-0.51,3.6-1.02,5.39-1.53
		c14.05,2.46,28.09,4.92,42.14,7.37c15.56,11.83,34.65,6.97,51.76,11.26c4.08,1.02,7.13,6.15,10.66,9.4
		c-2.01,0.75-4.08,2.27-6.02,2.12c-10.45-0.85-20.84-2.42-31.29-3.04c-3.18-0.19-6.49,1.85-9.74,2.86c2.67,1.37,5.2,3.38,8.03,4
		c7.08,1.54,12.98,4.12,14.99,11.87C699.4,755.88,688.69,757.25,677.98,758.62z" />
		<path fill="none" stroke="#000000" stroke-miterlimit="10" d="M578.89,794.73c-13.31-14.85-34.73-11.08-49.77-21.68
		c-4.37-3.08-11.22-10.68-10.55-11.6c4.46-6.17,9.22,0.7,14.12,1.24c12.86,1.4,24.91,20.11,36.56,5.64
		c2.65-3.3-20.88-9.01-30.71-16.65c-2.31-1.79-5.29-2.72-7.96-4.04c25.34,3.22,50.68,6.44,76.02,9.65c6.47,2,13.12,3.55,19.33,6.17
		c3.87,1.63,11.97-0.23,10.62,6.54c-1.42,7.18-8.96,3.67-13.88,3.71c-4.11,0.03-8.22-1.36-12.35-2.01
		c-6.48-1.03-13.07-2.52-18.5,3.01c4.67,3.25,9.54,6.27,13.89,9.9c1.2,1,8.14,0.25,2.74,4.88c-1.67,1.43-4.41,1.62-6.65,2.38
		C594.15,792.8,586.52,793.77,578.89,794.73z" />
		<path fill="none" stroke="#000000" stroke-miterlimit="10" d="M86.51,353.4c17.25,0.38,30.59-10.85,46.1-15.51
		c32.53-9.77,31.46,24.44,47.16,36.8c-23.94-13.01-51.14-8.16-76.35-14.06C97.54,359.26,92.13,355.87,86.51,353.4z" />
		<path fill="none" stroke="#000000" stroke-miterlimit="10" d="M710.11,754.5c-2-7.75-7.91-10.33-14.99-11.87
		c-2.83-0.62-5.36-2.62-8.03-4c3.25-1.02,6.56-3.05,9.74-2.86c10.45,0.62,20.85,2.2,31.29,3.04c1.94,0.16,4.01-1.37,6.02-2.12
		c-3.52-3.24-6.58-8.37-10.66-9.4c-17.12-4.29-36.21,0.57-51.76-11.26c24.09,2.45,48.2,4.77,72.25,7.59c2.19,0.26,6,4.18,5.68,5.7
		c-2.51,12.11-4.38,25.63-20.14,27.55C723.24,757.65,716.59,755.39,710.11,754.5z" />
		<path fill="none" stroke="#000000" stroke-miterlimit="10" d="M477.56,617.12c-3.61-0.35-7.21-0.7-10.82-1.06
		c-7.18-15.41-6.69-31.84-5.93-48.19c0.57-12.25-4.45-20.26-15.98-24.28c-0.23-2.32-0.45-4.63-0.68-6.95
		c9.17,2.32,18.34,4.64,27.51,6.97c-0.87,1.37-2.82,3.21-2.46,4.05C478.79,570.02,480.06,593.33,477.56,617.12z" />
		<path fill="none" stroke="#000000" stroke-miterlimit="10" d="M963.42,143.14c-11.93,0.79-23.6,1.97-26.54,16.91
		c-3.22,16.35,10.19,15.66,19.56,19.85c8.68,3.87,16.66,9.3,24.94,14.04c-18.83-3.21-37.67-6.42-56.5-9.62
		c-0.41-4.84-0.81-9.68-1.22-14.53c-3.56-18.19,21.91-22.12,19.52-39.73C943.63,144.16,955.25,140.98,963.42,143.14z" />
		<path fill="none" stroke="#000000" stroke-miterlimit="10" d="M353.39,223.05c-3.99,7.24-7.97,14.45-11.95,21.68
		c0.59-7.02-0.46-11.38-2.83-13.71c-0.1-0.11-0.22-0.22-0.33-0.31c-3.45-2.98-9.43-2.11-17.11,0.96c-25.7,10.3-51.7,19.3-80.2,17.34
		c-4.35-0.29-12.78,3.32-12.75,4.99c0.1,5.74,0.92,12.33,7.57,15.87c7.75,4.12,13.87,11.86,9.82,19.66
		c-10.52,20.19-13.1,39.27,0.48,58.78c-0.28,1.6-0.55,3.22-0.83,4.82c-2.53,1.74-5.07,3.47-7.6,5.22
		c-8.1-17.79-16.22-35.57-24.33-53.34c-5.32-27.9-0.34-54.73,8.35-81.18c2.06,5.11,6.02,9.19,9.59,2.75
		c15.17-27.38,41.17-35.63,69.09-40.7C339.02,178.88,362.02,195.15,353.39,223.05z" />
		<path fill="none" stroke="#000000" stroke-miterlimit="10" d="M409.89,119.38c-2.82,0.58-5.66,1.16-8.48,1.72
		c2.51,2.16,5.03,4.33,7.55,6.49c-16.26,3.04-38.4-12.01-47.85,10.88c-9.23,22.35,4.31,39.41,21.25,53.33
		c-3.08,6.68-4.31,14.6-12.14,18.08c-4.39,5.07-8.77,10.12-13.16,15.2c-1.23-0.68-2.45-1.35-3.67-2.03
		c8.63-27.91-14.36-44.18-53.03-37.16c-27.92,5.08-53.92,13.33-69.09,40.7c-3.57,6.44-7.53,2.36-9.59-2.75
		c12.81-22.59,24.96-45.61,38.75-67.61c6.4-10.21,18.83-12.16,30.26-13.99c17.26-2.81,35.47-3.04,48.25-17.89
		c24.19-5.97,47.48-17.33,73.52-12.18C411.6,114.58,410.74,116.98,409.89,119.38z" />
		<path fill="none" stroke="#000000" stroke-miterlimit="10" d="M692.15,58.92c-4.86,5.64-9.72,11.29-14.57,16.93
		c-16.92,14.58-35.06,28.08-44.33,49.51c-9.32,16.84-18.66,33.67-27.99,50.5c-5.57,14.07-11.14,28.14-16.72,42.2
		c-5.85,10.38-5.46,28.16-21.3,26.99c-6.22-0.47-11.38-15.05-17.03-23.22c-19.43-29.2,4.75-44.51,20.36-61.89
		c34.26-38.16,70.52-74.16,116.14-99.07C688.39,59.95,690.33,59.55,692.15,58.92z" />
		<path fill="none" stroke="#000000" stroke-miterlimit="10" d="M450.78,165.14c-0.64,1.25-1.28,2.51-1.92,3.77
		c-7.13-9.99-16.34-17.91-28.57-19.14c-11.49-1.16-15,9.08-18.74,17.73c-6.4,8.1-12.8,16.21-19.2,24.3
		c-16.94-13.92-30.48-30.98-21.25-53.33c9.46-22.89,31.6-7.84,47.85-10.88c-2.52-2.16-5.04-4.33-7.55-6.49
		c2.82-0.57,5.66-1.15,8.48-1.72c0.86-2.4,1.71-4.8,2.57-7.2C456.89,104.13,460.68,109.37,450.78,165.14z" />
		<path fill="none" stroke="#000000" stroke-miterlimit="10" d="M868.03,81.9c12.9-14.93,2.92-28.69-2.81-42.19
		c-3.11-7.28,0.19-7.32,5.31-7.32c-18.58-16.55-40.85-17.97-64.06-15.69c-2.67,0.25-5.43-0.59-8.15-0.93
		c-16.55,4.97-33.58,8.79-49.54,15.22c-19.32,7.77-37.75,17.74-56.57,26.77c-0.01,0.37-0.02,0.76-0.04,1.15
		c-4.87,5.64-9.73,11.29-14.58,16.93c25.65-14.24,50.77-29.66,77.26-42.1c9.52-4.46,22.38-1.76,33.71-2.33
		c23.19,3.96,42.02,15.61,57.37,33.04c1.27,1.45,1.45,5.23,0.48,7.01c-4.12,7.36-12.51,13.71-19.01,11.07
		c-29.05-11.82-46.96,8.39-67.67,21.01c4.31,1.57,8.61,3.12,12.9,4.69c0.89-1.16,1.8-2.32,2.7-3.47c9.29,1.18,18.57,2.38,27.85,3.56
		c14.81,7.24,29.62,14.47,44.42,21.71C877.96,123.99,904.3,116.23,868.03,81.9z M866.83,117.79c-12.69,7.16-24.04,6.4-33.18-5.93
		c-4.81-6.49-7.22-13.12,0.72-19.24c5.15-6.57,11.99-8.78,19.71-6.2c9.09,3.04,17.67,7.34,19.61,18.15
		C874.75,110.45,872.39,115.09,866.83,117.79z" />
		<path fill="none" stroke="#000000" stroke-miterlimit="10" d="M648.38,227.23c-1.11,2.09-1.68,5.16-3.41,6.11
		c-19.59,10.77-39.35,21.2-59.06,31.72c-6.15,3.43-3.88,6.66,0.22,9.85c-1.69,2.81-3.38,5.61-5.05,8.42
		c-10.48,3.1-23.79-1.62-30.77,10.46c-1.04,1.78,2.71,6.33,4.25,9.6c-3.96-2.51-7.75-5.34-11.92-7.42
		c-5.16-2.58-10.54-4.78-15.98-6.71c-44.36-15.81-82.79,16.45-125.33,15.53c-8.83-6.17-17.51,10.06-26.36,0.17
		c-0.72-0.43-1.45-0.87-2.16-1.31c-1.56-9.12-3.11-18.23-4.67-27.35c-0.58-8.47-1.16-16.94-1.75-25.42
		c25.4-5.75,52.96-1.86,76.24-17.05c9.15-6.04,22.2,4.88,30.04-6.87c9.62,0.27,19.24,0.53,28.85,0.81
		c14.52-1.18,29.04-2.3,43.55-3.63c1.77-0.17,3.44-1.51,5.15-2.3c5.64,8.16,10.81,22.75,17.03,23.22
		c15.83,1.17,15.45-16.61,21.3-26.99c1.66-0.41,3.33-0.82,5-1.23c15.85,12.96-1.3,20.53-4.97,30.29
		c22.37,7.03,33.42-16.26,51.98-19.4C643.12,227.27,645.77,227.37,648.38,227.23z" />
		<path fill="none" stroke="#000000" stroke-miterlimit="10" d="M472.67,226.95c-7.84,11.76-20.89,0.83-30.04,6.87
		c-6.4-11.64-11.07-23.67-8.48-37.35c21.35-0.41,7.72-19.49,14.71-27.56c0.64-1.27,1.28-2.52,1.92-3.77
		C453.73,187.28,445.62,213.34,472.67,226.95z" />
		<path fill="none" stroke="#000000" stroke-miterlimit="10" d="M338.94,124.36c-12.79,14.85-31,15.08-48.25,17.89
		C306.77,136.29,322.85,130.32,338.94,124.36z" />
		<path fill="none" stroke="#000000" stroke-miterlimit="10" d="M969.18,117.04c-15.44-26.24-16.55-59.14-38.31-82.45
		C959.01,54.93,965.29,85.43,969.18,117.04z" />
		<path fill="none" stroke="#000000" stroke-miterlimit="10" d="M601.91,375.89c-0.47,3.29-0.95,6.57-1.42,9.87
		c-51.35-5.85-95.08,14.57-137.41,39.85c-3.12,2.16-6.26,4.33-9.39,6.49c0.25-2.24,0.65-4.47,0.68-6.72c0.01-0.66-1.4-1.97-1.5-1.91
		c-1.81,1.11-5.02,2.38-5.03,3.62c-0.07,14.34-14.12,17.49-21,26.28c-4.03,5.15-6.55,0.06-7.86-4.05c-1.98-6.2,0.98-17.44-7.84-17
		c-10.15,0.48-17.55,9.29-21.86,19.16c-0.69,1.59-1.34,3.18-2.01,4.78c-1.15-1.5-3.04-4.43-3.34-4.27
		c-3.46,1.77,0.57-15.44-6.68-2.67c-1.93-3.14-4.28-6.1-5.64-9.47c-0.83-2.06-0.04-4.76-0.19-7.16c-0.12-1.63-0.63-3.24-0.96-4.86
		c-0.89,1.3-1.89,2.54-2.67,3.91c-5.75,10.19-6.75,10.44-13.27,3.23c-6.71,13.15-4.94-6.14-12.7-3.09
		c-24.8,9.76-47.23-1.59-66.14-16.59c-13.3-10.56-33.36-7.33-42.93-23.51c0.41-2.41,0.81-4.82,1.22-7.22
		c9.6-9.27,19.19-18.55,28.79-27.81c6.31,2.97,12.42,2.8,18.28-1.17c18.58-1.42,37.4-1.47,55.71-4.56
		c36.52-6.17,72.37-19.89,109.8-15.9c51.68,5.51,101.7,25.93,155.02,16.87C601.65,359.96,601.78,367.92,601.91,375.89z" />
		<path fill="none" stroke="#000000" stroke-miterlimit="10" d="M943.32,132v0.04c0,0,0.01,0,0,0.01c0.06,3.1-0.77,5.76-2.13,8.16
		c-0.82,1.44-1.81,2.77-2.91,4.06c-0.28,0.31-0.57,0.64-0.84,0.95c-0.29,0.31-0.59,0.63-0.88,0.94c-0.14,0.14-0.29,0.3-0.45,0.46
		c-0.14,0.14-0.3,0.3-0.46,0.47c-1.37,1.37-2.8,2.73-4.18,4.1l-0.46,0.46c-0.16,0.16-0.31,0.31-0.46,0.47
		c-0.16,0.14-0.3,0.3-0.45,0.46c-0.14,0.14-0.3,0.31-0.45,0.47c-0.3,0.31-0.59,0.63-0.87,0.95c-0.28,0.31-0.55,0.64-0.82,0.96
		c-0.81,0.96-1.56,1.98-2.2,3.03c-0.2,0.36-0.41,0.71-0.6,1.07c-1.59,3.04-2.34,6.5-1.51,10.72
		c-21.67,20.94-44.83,22.99-73.77,13.37c-11.99-3.98-27.24-4.93-40.82-8.47c7.41-7.16-25.57-8.61-2.54-17.98
		c-0.89-0.84-1.66-1.97-2.73-2.47c-2.28-1.07-4.7-1.82-7.07-2.7c2.15-1.91,4.28-3.82,6.43-5.73c10.36,20,27.83-8.9,41.12,6.07
		c3.93,4.43,21.09,2.3,28.47-2.52c21.26-13.91,38.04-34.87,65-39.5c0.86,1.13,1.71,2.27,2.58,3.4c0.94,5.6,1.89,11.19,2.83,16.8
		c0.05,0.37,0.08,0.74,0.11,1.1C943.31,131.44,943.32,131.73,943.32,132z" />
		<path fill="none" stroke="#000000" stroke-miterlimit="10" d="M781.47,381.23v0.01c-0.13,0.11-0.27,0.23-0.39,0.35
		C781.19,381.47,781.33,381.34,781.47,381.23z" />
		<path fill="none" stroke="#000000" stroke-miterlimit="10" d="M781.47,381.23v0.01c-0.13,0.11-0.27,0.23-0.39,0.35
		C781.19,381.47,781.33,381.34,781.47,381.23z" />
		<path fill="none" stroke="#000000" stroke-miterlimit="10" d="M649.94,509.9c-22.07,15.27-47.11,1.18-71.13,5.7
		c-14.82,2.79-33.39-5.54-49.62,5.92c-12,8.47-21.86,4.67-29.26-7.09c-1.42-2.28-1.94-5.11-2.87-7.69
		c-1.28,3.35-2.74,6.65-3.74,10.08c-0.42,1.44,0.75,4.1,0.07,4.57c-1.72,1.18-4.09,1.44-6.2,2.06c0.72-2.81,1.22-5.68,2.19-8.39
		c1.48-4.14,4.04-8.02,4.73-12.25c0.57-3.43-0.95-7.2-1.56-10.82c-1.53,2.16-2.67,5.69-4.64,6.25
		c-11.95,3.36-1.48,26.48-18.58,22.79c-22.02-4.75-45.47-7.3-62.98-24.33c-5.99-7.14-1.7-4.92,1.18-10.5
		c18.84-36.53,34.06,1.52,50.76,1.59c3.75,0.01,4.55,0.19,2.48-2.35c-2.52-3.11-5.37-5.95-7.78-9.12c-2.16-2.85-3.92-5.99-5.85-9
		c3.1,0.37,6.22,0.59,9.29,1.17c8.35,1.58,14.33-0.01,15.34-9.95c0.16-1.53,2.41-2.83,3.69-4.25c1.07,2.51,2.39,4.94,3.17,7.54
		c1.3,4.28,1.28,10.24,7.75,9.25c7.1-1.09,2.35-6.03,2.01-9.39c-0.9-8.83,5.22-14.3,9.71-20.56c-8.16-10-14.42-27.97-29.96-7.18
		c-0.94-0.99-2.11-1.85-2.77-3c-0.96-1.68-1.57-3.56-2.33-5.35c42.33-25.28,86.06-45.7,137.41-39.85
		c-2.81,8.45-5.62,16.9-8.43,25.35c3.79,17.96,7.6,35.91,11.34,53.87c2.39,11.47,2.3,11.38,9.77,8.2c1.22-0.52,3.1-0.07,4.47,0.46
		C634.64,480.14,638.5,498.4,649.94,509.9z" />
		<path fill="none" stroke="#000000" stroke-miterlimit="10" d="M669.35,530.26c-2.12,0.76-4.22,2.11-6.38,2.21
		c-22.84,0.99-45.68,1.78-68.54,2.63c-41,1.66-81.16,15.61-122.77,8.51c-9.17-2.33-18.34-4.66-27.51-6.97
		c0.23,2.32,0.45,4.63,0.68,6.95c-58.91-26.28-122.63-43.14-172.11-87.88c-8.88-6.4-17.75-12.81-26.63-19.2
		c-0.08-16.22-17.87-27.15-13.36-44.73c9.58,16.17,29.63,12.94,42.93,23.51c18.91,15,41.34,26.35,66.14,16.59
		c7.75-3.05,5.99,16.23,12.7,3.09c6.51,7.21,7.51,6.96,13.27-3.23c0.77-1.36,1.77-2.6,2.67-3.91c0.34,1.62,0.84,3.23,0.96,4.86
		c0.16,2.4-0.64,5.1,0.19,7.16c1.36,3.36,3.71,6.33,5.64,9.47c7.25-12.77,3.22,4.44,6.68,2.67c0.3-0.16,2.19,2.77,3.34,4.27
		c0.68-1.59,1.33-3.18,2.01-4.78c4.32-9.88,11.71-18.68,21.86-19.16c8.82-0.43,5.86,10.81,7.84,17c1.31,4.11,3.84,9.2,7.86,4.05
		c6.87-8.79,20.92-11.94,21-26.28c0.01-1.24,3.22-2.51,5.03-3.62c0.1-0.06,1.51,1.24,1.5,1.91c-0.02,2.24-0.42,4.47-0.68,6.72
		c3.14-2.16,6.27-4.33,9.39-6.49c0.76,1.8,1.36,3.68,2.33,5.35c0.66,1.16,1.83,2.01,2.77,3c15.53-20.79,21.79-2.82,29.96,7.18
		c-4.49,6.26-10.61,11.73-9.71,20.56c0.34,3.36,5.09,8.31-2.01,9.39c-6.48,0.99-6.45-4.97-7.75-9.25c-0.78-2.59-2.1-5.03-3.17-7.54
		c-1.28,1.41-3.53,2.71-3.69,4.25c-1.01,9.94-6.99,11.53-15.34,9.95c-3.06-0.58-6.19-0.8-9.29-1.17c1.93,3,3.69,6.15,5.85,9
		c2.41,3.17,5.26,6.01,7.78,9.12c2.06,2.54,1.27,2.36-2.48,2.35c-16.7-0.07-31.92-38.12-50.76-1.59c-2.88,5.58-7.18,3.36-1.18,10.5
		c17.51,17.03,40.96,19.57,62.98,24.33c17.1,3.69,6.63-19.43,18.58-22.79c1.98-0.55,3.11-4.09,4.64-6.25
		c0.6,3.62,2.12,7.39,1.56,10.82c-0.69,4.23-3.24,8.12-4.73,12.25c-0.98,2.71-1.47,5.58-2.19,8.39c2.11-0.63,4.47-0.88,6.2-2.06
		c0.68-0.47-0.49-3.14-0.07-4.57c1-3.44,2.46-6.73,3.74-10.08c0.93,2.58,1.45,5.41,2.87,7.69c7.39,11.76,17.26,15.56,29.26,7.09
		c16.22-11.46,34.79-3.14,49.62-5.92c24.02-4.52,49.06,9.56,71.13-5.7c2.67,1.36,6.07,2.11,7.85,4.22
		C662.05,519.16,665.55,524.83,669.35,530.26z" />
		<path fill="none" stroke="#000000" stroke-miterlimit="10" d="M728.04,540.97c-40.56,2.86-81.09,5.93-121.67,8.43
		c-10.75,0.65-4.1-8.51-6.01-12.9c-1.98-0.47-3.96-0.93-5.93-1.4c22.85-0.84,45.7-1.64,68.54-2.63c2.16-0.1,4.26-1.45,6.38-2.21
		c-3.8-5.43-7.3-11.1-11.55-16.14c-1.78-2.11-5.19-2.86-7.85-4.22c-11.45-11.51-15.3-29.76-32.31-36.26
		c-1.37-0.53-3.26-0.98-4.47-0.46c-7.47,3.18-7.38,3.27-9.77-8.2c-3.74-17.96-7.55-35.92-11.34-53.87
		c2.81-8.45,5.62-16.9,8.43-25.35c0.47-3.29,0.95-6.57,1.42-9.87c2.11,13.22,3.62,26.57,6.45,39.63
		c6.67,30.63,32.66,47.82,49.83,71.21c15.74,21.45,36.78,33.17,60.31,42.42C718.83,535.4,730.67,532.35,728.04,540.97z" />
		<path fill="none" stroke="#000000" stroke-miterlimit="10" d="M600.36,536.5c-18.21,10.3-36.18,21.06-54.7,30.79
		c-22.69,11.9-29.52,37.1-46.48,53.72c-7.21-1.29-14.41-2.59-21.62-3.88c2.51-23.78,1.23-47.09-8.36-69.45
		c-0.36-0.84,1.59-2.68,2.46-4.05c41.61,7.09,81.77-6.85,122.77-8.51C596.41,535.57,598.39,536.02,600.36,536.5z" />
		<path fill="none" stroke="#000000" stroke-miterlimit="10" d="M816.16,526.17c-10.79,3.49-21.01,11.58-33.58,7.91
		c-16.37,16.62-35.38,12.27-54.54,6.89c2.63-8.62-9.21-5.57-9.54-11.82c-18.5-27.44-44.06-49.59-59.15-79.63
		c-16.53-32.9-36.19-65.02-21.01-104.25c18.31-3.11,0.23,11.38,6.75,13.97c0.08,0.82,0.16,1.63,0.24,2.44
		c7.83,47.25,25.28,89.72,61.7,122.51c5.99,5.39,16.47,8.57,18.66,14.92c6.69,19.38,21.73,26.1,38.8,31.38
		c17.89-4.51,18.9-7.65,6.68-20.61c-0.41-0.43-0.76-0.94-1.19-1.35c-29.49-27.45-39-65.49-53.47-100.88
		c2.36-0.62,4.73-1.24,7.1-1.86c5.8,2.09,9.26,5.98,9.48,12.35c-3.57,13.83,8,23.69,13.74,31.57c15.23,20.97,35.2,38.79,54.87,56.06
		c5.1,4.47,16.03,2.3,24.28,3.2C835.51,521.76,821.44,524.46,816.16,526.17z" />
		<path fill="none" stroke="#000000" stroke-miterlimit="10" d="M794.69,219.31c-0.08-0.08-0.16-0.16-0.22-0.23v-0.01
		c0.06-0.54,0.06-1.06,0.01-1.57c0.06,0.51,0.06,1.03,0,1.57C794.56,219.15,794.63,219.23,794.69,219.31z" />
		<path fill="none" stroke="#000000" stroke-miterlimit="10" d="M809.06,174.7c-0.77,0.21-1.76,0.17-2.28,0.64
		c-4.8,4.37-26.98-0.33-8.55,16.23c-22.77-11.35-41.46,2.93-61.34,9.76c-6.48-1.29-14.11,9.58-19.44-1.15
		c-6.11-12.3,8.62-7.88,10.97-13.22c0.35-0.78-4.09-4.68-6.81-5.57c-4.09-1.35-8.63-1.31-12.98-1.87
		c5.51-1.99,11.01-4.03,16.56-5.95c2.03-0.71,4.16-1.12,6.25-1.66c-2.15-0.25-4.29-0.62-6.45-0.75
		c-21.03-1.29-42.08-2.53-63.11-3.79c3.43-13.8,17.96-7.9,25.51-14.38c16.22-15.52,40.68,2.29,56.96-14
		c1.65-1.65,8.26,0.94,9.24-0.58c9.32-14.56,21.82-14.91,36.06-9.25c-4.5,12.84,5.93,13.59,13.51,16.64
		c-2.15,1.91-4.28,3.82-6.43,5.73c2.36,0.88,4.79,1.63,7.07,2.7c1.06,0.51,1.83,1.63,2.73,2.47
		C783.5,166.09,816.47,167.54,809.06,174.7z" />
		<polygon fill="none" stroke="#000000" stroke-miterlimit="10" points="780.13,199.17 778.99,199.17 779.55,199.13 	" />
		<path fill="none" stroke="#000000" stroke-miterlimit="10" d="M330.76,312.18c-33.39-0.07-61.8,11.55-84.67,36.14
		c-13.58-19.51-11-38.59-0.48-58.78c4.05-7.8-2.06-15.53-9.82-19.66c-6.66-3.55-7.48-10.13-7.57-15.87
		c-0.04-1.68,8.39-5.28,12.75-4.99c28.5,1.95,54.5-7.04,80.2-17.34c7.68-3.08,13.66-3.94,17.11-0.96c0.11,0.1,0.23,0.21,0.33,0.31
		c2.38,2.33,3.43,6.69,2.83,13.71v0.01c0.11,16.5-6.96,32.82-0.23,49.58C344.94,303.63,339.89,309.51,330.76,312.18z" />
		<path fill="none" stroke="#000000" stroke-miterlimit="10" d="M363.33,308.5c-1.74,2.01-3.14,5.27-5.26,5.85
		c-24.41,6.72-48.94,13.01-73.42,19.43c-5.89,4.02-11.77,8.03-17.66,12.05c-0.12,1.66-0.24,3.33-0.36,4.99
		c-1.3,1.98-2.6,3.94-3.91,5.92c-9.6,9.26-19.19,18.54-28.79,27.81c-31.08-13.33-0.02-17.81,3.71-26.18
		c2.53-1.75,5.07-3.49,7.6-5.22c0.28-1.6,0.55-3.22,0.83-4.82c22.88-24.59,51.28-36.22,84.67-36.14
		c9.13-2.67,14.18-8.55,10.44-17.85c-6.73-16.76,0.34-33.08,0.23-49.58v-0.01c3.98-7.24,7.96-14.45,11.95-21.68
		c1.22,0.68,2.44,1.35,3.67,2.04C350.61,253.54,351.06,281.46,363.33,308.5z" />
		<path fill="none" stroke="#000000" stroke-miterlimit="10" d="M442.63,233.82c-23.29,15.2-50.85,11.3-76.24,17.05
		c1.28-13.66,2.54-27.33,3.82-40.99c7.84-3.47,9.07-11.4,12.14-18.08c6.4-8.09,12.8-16.2,19.2-24.3c12.2,8.15,34.67,4.74,32.6,28.97
		C431.56,210.15,436.23,222.18,442.63,233.82z" />
		<path fill="none" stroke="#000000" stroke-miterlimit="10" d="M372.8,303.65c-0.14,7.49-3.15,9.41-9.47,4.85
		c-12.28-27.04-12.72-54.96-6.28-83.41v-0.01c4.39-5.08,8.77-10.13,13.16-15.2c-1.28,13.66-2.54,27.33-3.82,40.99
		c0.59,8.48,1.17,16.96,1.75,25.42C369.69,285.42,371.25,294.53,372.8,303.65z" />
		<path fill="none" stroke="#000000" stroke-miterlimit="10" d="M730.43,220.71c-24.48,15.12-48.53,31.15-76.97,38.34
		c-8.33-6.01,0.99-6.97,3.08-9.14c3.41-3.57,8.04-5.95,11.86-9.19c1.81-1.54,2.92-3.92,4.34-5.92c-2.28,0.1-5.08-0.64-6.77,0.42
		c-18.64,11.58-37.12,23.44-55.66,35.23c-0.8,0.51-1.66,0.9-2.51,1.35c0.33-0.78,0.54-1.65,1-2.36c3.12-4.72,6.3-9.41,9.44-14.11
		c-5.29,2.74-10.78,5.19-15.85,8.3c-5.62,3.45-10.87,7.5-16.28,11.29c-4.1-3.2-6.37-6.43-0.22-9.85
		c19.71-10.52,39.47-20.95,59.06-31.72c1.74-0.95,2.3-4.03,3.41-6.11c-2.6,0.14-5.26,0.05-7.81,0.48
		c-18.56,3.15-29.61,26.44-51.98,19.4c3.67-9.77,20.82-17.33,4.97-30.29c5.44-11.63,10.88-23.25,16.33-34.87
		c0.55-0.72,1.11-1.44,1.66-2.16c16.93-3.55,32.19-13.86,50.34-12.41c21.03,1.25,42.08,2.5,63.11,3.79
		c2.16,0.13,4.31,0.49,6.45,0.75c-2.09,0.54-4.22,0.95-6.25,1.66c-5.55,1.92-11.05,3.96-16.56,5.95c4.34,0.55,8.89,0.52,12.98,1.87
		c2.73,0.89,7.16,4.79,6.81,5.57c-2.35,5.34-17.09,0.92-10.97,13.22c5.33,10.72,12.96-0.14,19.44,1.15
		C729.07,205.9,723.37,211.17,730.43,220.71z" />
		<path fill="none" stroke="#000000" stroke-miterlimit="10" d="M623.51,328.13c-6.42,9.85-16.64-6.09-23.11,3.4
		c-18.92-1.88-36.92-11-56.56-7.15c-5.57,0.36-11.14,0.69-16.72,1.11c-38.24,2.87-72.54-16.75-109.84-19.22
		c-5.32-0.49-10.64-0.98-15.96-1.47c42.54,0.92,80.97-31.34,125.33-15.53c5.44,1.93,10.82,4.12,15.98,6.71
		c4.16,2.07,7.96,4.91,11.92,7.42c-1.53-3.27-5.28-7.82-4.25-9.6c6.97-12.07,20.29-7.36,30.77-10.46
		c10.5,6.98,14.29,22.89,30.15,22.78c-2.83,10.48-1.35,18.77,10.95,21.54C622.62,327.82,623.06,327.98,623.51,328.13z" />
		<path fill="none" stroke="#000000" stroke-miterlimit="10" d="M672.74,234.8c-1.42,2-2.53,4.38-4.34,5.92
		c-3.81,3.24-8.44,5.62-11.86,9.19c-2.09,2.17-11.41,3.14-3.08,9.14c-14.09,15.69-28.16,31.38-42.25,47.06
		c-15.86,0.11-19.65-15.8-30.15-22.78c1.68-2.81,3.36-5.61,5.05-8.42c5.41-3.79,10.66-7.84,16.28-11.29
		c5.07-3.11,10.55-5.56,15.85-8.3c-3.15,4.7-6.32,9.39-9.44,14.11c-0.46,0.71-0.68,1.58-1,2.36c0.84-0.45,1.71-0.84,2.51-1.35
		c18.54-11.78,37.01-23.65,55.66-35.23C667.66,234.16,670.46,234.9,672.74,234.8z" />
		<path fill="none" stroke="#000000" stroke-miterlimit="10" d="M609.88,181.95c-5.45,11.61-10.89,23.24-16.33,34.87
		c-1.68,0.41-3.34,0.82-5,1.23c5.57-14.06,11.14-28.12,16.72-42.2C606.8,177.89,608.34,179.91,609.88,181.95z" />
		<path fill="none" stroke="#000000" stroke-miterlimit="10" d="M846.39,71.47c-4.11,7.36-12.51,13.71-19.01,11.07
		c-29.05-11.82-46.95,8.39-67.67,21.01c-6.85,0.37-13.69,0.75-20.54,1.12c-10.9,1.33-21.8,2.65-32.71,3.98
		c-16.92-3.85-30.86,3.39-44.44,11.93c0.93-2.95,1.86-5.9,2.8-8.85c-3.24,1.27-6.54,2.44-9.72,3.82c-7.31,3.21-14.57,6.52-21.85,9.8
		c9.27-21.43,27.41-34.93,44.33-49.51c25.65-14.24,50.76-29.66,77.26-42.1c9.5-4.46,22.37-1.76,33.71-2.33
		c23.18,3.96,42.01,15.61,57.36,33.04C847.17,65.91,847.37,69.7,846.39,71.47z" />
		<path fill="none" stroke="#000000" stroke-miterlimit="10" d="M664.83,111.73c-0.94,2.95-1.87,5.9-2.8,8.85
		c-21.45,15.8-41.74,32.59-50.48,59.22c-0.55,0.72-1.11,1.44-1.66,2.16c-1.54-2.04-3.08-4.06-4.62-6.1
		c9.33-16.82,18.67-33.66,27.99-50.5c7.28-3.28,14.54-6.6,21.85-9.8C658.29,114.16,661.58,112.99,664.83,111.73z" />
		<path fill="none" stroke="#000000" stroke-miterlimit="10" d="M434.15,196.47c2.07-24.23-20.39-20.82-32.6-28.97
		c3.74-8.65,7.25-18.89,18.74-17.73c12.23,1.23,21.44,9.15,28.57,19.14C441.87,176.98,455.5,196.06,434.15,196.47z" />
		<path fill="none" stroke="#000000" stroke-miterlimit="10" d="M940.34,113.27c-0.87-1.13-1.72-2.27-2.58-3.4
		c-26.97,4.63-43.74,25.59-65,39.5c-7.38,4.82-24.54,6.95-28.47,2.52c-13.29-14.97-30.77,13.93-41.12-6.07
		c-7.57-3.05-18.01-3.8-13.51-16.64c4-14.86-3.98-19.95-17.02-20.94c0.89-1.16,1.8-2.32,2.7-3.47c9.27,1.18,18.56,2.38,27.83,3.56
		c14.81,7.24,29.62,14.47,44.42,21.71c30.37-6.04,56.71-13.8,20.44-48.13c12.9-14.93,2.92-28.69-2.81-42.19
		c-3.1-7.28,0.19-7.32,5.31-7.32c-18.58-16.55-40.85-17.97-64.06-15.69c-2.67,0.25-5.43-0.59-8.15-0.93
		C873.19-1.3,909.65,53.07,938.6,99.24C940.87,102.86,939.83,108.54,940.34,113.27z" />
		<path fill="none" stroke="#000000" stroke-miterlimit="10" d="M718.51,529.15c-23.53-9.25-44.57-20.96-60.31-42.42
		c-17.17-23.4-43.16-40.58-49.83-71.21c-2.83-13.06-4.34-26.41-6.45-39.63c-0.13-7.97-0.25-15.93-0.37-23.9
		c-0.39-6.81-0.76-13.64-1.13-20.45c6.46-9.49,16.69,6.45,23.11-3.4c1.97-1.15,3.92-2.28,5.89-3.43c2.98,6.85,5.96,13.71,8.95,20.56
		c-15.18,39.23,4.47,71.35,21.01,104.25C674.45,479.56,700,501.71,718.51,529.15z" />
		<path fill="none" stroke="#000000" stroke-miterlimit="10" d="M601.53,351.99c-53.32,9.06-103.34-11.36-155.02-16.87
		c-37.42-3.99-73.28,9.72-109.8,15.9c-18.31,3.09-37.12,3.14-55.71,4.56c-5.86,3.97-11.98,4.14-18.28,1.17
		c1.3-1.98,2.61-3.94,3.91-5.92c0.12-1.66,0.24-3.33,0.36-4.99c5.89-4.02,11.77-8.03,17.66-12.05
		c24.48-6.42,49.01-12.71,73.42-19.43c2.12-0.58,3.52-3.84,5.26-5.85c6.32,4.56,9.32,2.64,9.47-4.85c0.71,0.45,1.44,0.88,2.16,1.31
		c8.85,9.89,17.54-6.34,26.36-0.17c5.32,0.49,10.64,0.98,15.96,1.47c37.3,2.47,71.6,22.09,109.84,19.22
		c5.57-0.42,11.14-0.75,16.72-1.11c19.65-3.85,37.64,5.27,56.56,7.15C600.77,338.35,601.15,345.17,601.53,351.99z" />
		<path fill="none" stroke="#000000" stroke-miterlimit="10" d="M764.49,530.48c-17.06-5.28-32.1-12-38.8-31.38
		c-2.18-6.34-12.66-9.53-18.66-14.92c-36.42-32.79-53.87-75.26-61.7-122.51c1.42-1.66,2.57-3.73,4.32-4.92
		c4.14-2.83,7.78-5.5,11.14-9.77c3.02-3.85,5.84,3.33,5.39,6.71c-0.65,4.91-2.95,9.59-4.55,14.38c2.22-1.29,4.44-2.57,6.66-3.85
		l6.66-3.86v0.01c0.04,1.07,0.06,2.15,0.1,3.22c0.02,0.71,0.05,1.42,0.07,2.13c0.05,1.06,0.1,2.12,0.18,3.15
		c0.05,0.69,0.12,1.37,0.2,2.04c1.06,8.65,4.69,15.12,19.04,12.45c4.63,10.52,9.96,20.41,21.95,24.28
		c14.47,35.4,23.99,73.43,53.47,100.88c0.43,0.41,0.78,0.92,1.19,1.35C783.39,522.83,782.38,525.97,764.49,530.48z" />
		<path fill="none" stroke="#000000" stroke-miterlimit="10" d="M794.56,196.22c1.23-1.54,2.45-3.09,3.68-4.64
		c-22.77-11.35-41.46,2.93-61.34,9.76c-7.83,4.57-13.53,9.84-6.46,19.38c-24.48,15.12-48.53,31.15-76.97,38.34
		c-14.09,15.69-28.16,31.38-42.25,47.06c-2.83,10.48-1.35,18.77,10.95,21.54c0.45,0.17,0.89,0.33,1.34,0.48
		c1.97-1.15,3.92-2.28,5.89-3.43c2.98,6.85,5.96,13.71,8.95,20.56c18.31-3.11,0.23,11.38,6.75,13.97c0.08,0.82,0.16,1.63,0.24,2.44
		c1.42-1.66,2.57-3.73,4.32-4.92c4.14-2.83,7.78-5.5,11.14-9.77c3.02-3.85,5.84,3.33,5.39,6.71c-0.65,4.91-2.95,9.59-4.55,14.38
		c2.22-1.29,4.44-2.57,6.66-3.85l6.66-3.86h0.01c0.04,1.07,0.06,2.15,0.08,3.23c0.02,0.71,0.05,1.42,0.07,2.13
		c0.05,1.06,0.1,2.12,0.18,3.15c0.06,0.69,0.12,1.37,0.2,2.04c1.06,8.65,4.69,15.12,19.04,12.45c6.8-28.26,19.4-53.12,42.14-72.07
		c13.44-34.38,31.34-65.96,57.78-92.2v-0.01c0.06-0.54,0.06-1.06,0.01-1.57c-0.04-0.24-0.07-0.47-0.12-0.71
		c-0.05-0.22-0.11-0.45-0.19-0.65c-0.04-0.13-0.08-0.25-0.13-0.37c-0.01-0.05-0.04-0.1-0.06-0.13c-0.1-0.24-0.22-0.48-0.34-0.71
		c-0.12-0.24-0.27-0.47-0.4-0.7c-0.01-0.01-0.01-0.01-0.01-0.01c-0.14-0.23-0.3-0.46-0.46-0.68c-0.16-0.22-0.33-0.43-0.51-0.66
		c-0.23-0.29-0.47-0.58-0.72-0.86c0-0.01-0.01-0.01-0.01-0.01c-0.37-0.43-0.76-0.86-1.15-1.27c-0.12-0.14-0.25-0.29-0.39-0.43
		c-0.25-0.28-0.51-0.57-0.76-0.84c-1-1.15-1.91-2.33-2.45-3.63c-0.13-0.33-0.25-0.66-0.34-1c-0.05-0.18-0.08-0.35-0.11-0.53
		c-0.04-0.17-0.06-0.35-0.07-0.53c-0.12-1.36,0.19-2.88,1.13-4.62C789.78,198.17,792.17,197.2,794.56,196.22z M778.99,199.17
		l0.57-0.05l0.58,0.05H778.99z" />
		<polygon fill="none" stroke="#000000" stroke-miterlimit="10" points="780.13,199.17 778.99,199.17 779.55,199.13 	" />
		<path fill="none" stroke="#000000" stroke-miterlimit="10" d="M794.48,219.07l-0.01,0.01v-0.01c0.06-0.54,0.06-1.06,0.01-1.57
		C794.54,218.01,794.54,218.53,794.48,219.07z" />
		<path fill="none" stroke="#000000" stroke-miterlimit="10"
			d="M674.96,360.36v0.01c-2.23,1.28-4.45,2.56-6.66,3.85L674.96,360.36z" />
		<path fill="none" stroke="#000000" stroke-miterlimit="10" d="M867.94,333.89c-4.14,17.85-20.43,32.09-15.62,52.63
		c0.16,0.66-0.9,1.62-1.4,2.44c-1.1-1.01-2.18-2.03-3.28-3.04c-26.38-21.76-11.42,10.49-18.4,14.09c-2.23-4.66-4.46-9.32-6.73-13.95
		c-1.15-2.38-2.04-6.62-4.2-0.39c-2.11,6.09-4.61,12.05-6.93,18.07c-3.67-6.42-7.32-12.84-10.99-19.26
		c-2.83,3.27-5.68,6.54-8.51,9.79c-0.33-4.28-0.49-8.59-1.05-12.83c-0.29-2.27-1.27-4.44-1.94-6.65c-2.47,2.15-4.94,4.31-7.42,6.45
		c-0.14,0.11-0.28,0.24-0.39,0.36c-0.34,0.37-0.62,0.8-0.83,1.28c-0.06,0.12-0.11,0.25-0.16,0.39c-0.23,0.62-0.39,1.29-0.49,2.01
		c-0.02,0.14-0.05,0.3-0.06,0.45c-0.04,0.21-0.06,0.42-0.07,0.63l-0.04,0.43c-0.04,0.4-0.07,0.8-0.1,1.21
		c-0.01,0.22-0.02,0.45-0.04,0.68c-0.02,0.3-0.04,0.6-0.06,0.89c-0.02,0.33-0.05,0.64-0.08,0.95c-0.04,0.31-0.07,0.63-0.12,0.93
		c-0.02,0.17-0.05,0.35-0.08,0.52c-0.01,0.04-0.01,0.07-0.02,0.12c-0.04,0.18-0.07,0.35-0.12,0.52c-0.04,0.18-0.08,0.35-0.14,0.52
		c-0.04,0.1-0.06,0.19-0.1,0.29c-0.05,0.13-0.11,0.27-0.16,0.4c-0.37,0.84-0.93,1.56-1.75,2.03c-0.11,0.07-0.23,0.13-0.35,0.18
		c-0.17,0.08-0.34,0.14-0.53,0.2c-1.46,0.46-3.57,0.37-6.62-0.52c-1.19,6.03-2.06,12.17-3.74,18.07c-0.75,2.63-3.1,4.8-4.73,7.18
		c-2.29-5.38-4.58-10.75-6.87-16.11c-0.7-1.37-1.41-2.75-2.12-4.12c-0.64,1.19-1.28,2.39-1.92,3.59
		c-3.16,5.95-6.31,11.89-9.47,17.85c-2.4-1.34-4.81-2.68-7.22-4.02c-0.22-6.37-3.68-10.26-9.48-12.35c-2.38,0.62-4.74,1.24-7.1,1.86
		c-11.99-3.87-17.32-13.76-21.95-24.28c6.8-28.26,19.4-53.12,42.14-72.07c13.44-34.38,31.34-65.96,57.78-92.2
		c0.06,0.07,0.13,0.14,0.22,0.23c-0.06-0.08-0.13-0.17-0.2-0.24c0.06-0.54,0.06-1.06,0-1.57c-0.04-0.24-0.07-0.47-0.12-0.71
		c-0.05-0.22-0.11-0.45-0.19-0.65c-0.04-0.13-0.08-0.25-0.13-0.37c-0.01-0.05-0.04-0.1-0.06-0.13c-0.1-0.24-0.22-0.48-0.34-0.71
		c-0.12-0.24-0.27-0.47-0.4-0.7c-0.01-0.01-0.01-0.01-0.01-0.01c-0.14-0.23-0.3-0.46-0.46-0.68c-0.16-0.22-0.33-0.43-0.51-0.66
		c-0.23-0.29-0.47-0.58-0.72-0.86c0-0.01-0.01-0.01-0.01-0.01c-0.37-0.43-0.76-0.86-1.15-1.27c-0.12-0.14-0.25-0.29-0.39-0.43
		c-0.25-0.28-0.51-0.57-0.76-0.84c-1-1.15-1.91-2.33-2.45-3.63c-0.13-0.33-0.25-0.66-0.34-1c-0.05-0.18-0.08-0.35-0.11-0.53
		c-0.04-0.17-0.06-0.35-0.07-0.53c-0.12-1.36,0.19-2.88,1.13-4.62c2.38-0.98,4.76-1.95,7.15-2.93c8.76,12.31,18.37,17.04,30.25,3.59
		c0.74-0.83,2.57-0.7,3.88-1.01c0.3,1.46,0.71,2.92,0.88,4.4c1.29,11.37-4.44,24.51,8.29,33.02c4.51-1.62,9.01-3.23,13.52-4.85
		c1.57,1.28,4.7,2.99,4.49,3.79c-8.12,29.74,7.85,55.68,12.76,83.34C869.5,323.43,868.22,328.75,867.94,333.89z" />
		<path fill="none" stroke="#000000" stroke-miterlimit="10" d="M794.69,219.31c-0.08-0.08-0.16-0.16-0.22-0.23l0.01-0.01
		C794.56,219.15,794.63,219.23,794.69,219.31z" />
		<path fill="none" stroke="#000000" stroke-miterlimit="10" d="M789.65,129.18c-14.24-5.66-26.74-5.31-36.06,9.25
		c-0.98,1.52-7.59-1.07-9.24,0.58c-16.28,16.29-40.74-1.52-56.96,14c-7.55,6.48-22.08,0.58-25.51,14.38
		c-18.15-1.45-33.41,8.86-50.34,12.41c8.74-26.63,29.03-43.42,50.48-59.22c13.58-8.54,27.52-15.77,44.44-11.93
		c10.9-1.33,21.8-2.65,32.71-3.98c6.85-0.37,13.69-0.75,20.54-1.12c4.31,1.57,8.61,3.12,12.92,4.69
		C785.67,109.23,793.65,114.32,789.65,129.18z" />
		<polygon fill="none" stroke="#000000" stroke-miterlimit="10" points="780.13,199.17 778.99,199.17 779.55,199.13 	" />
	</g>
	<g id="eye">
		<path fill="#191818" d="M866.31,118.36c-13.09,7.39-24.8,6.61-34.24-6.12c-4.97-6.7-7.45-13.54,0.75-19.85
		c5.31-6.78,12.37-9.06,20.34-6.4c9.38,3.14,18.23,7.58,20.24,18.73C874.48,110.8,872.04,115.58,866.31,118.36z" />
	</g>
	<g id="colors">
		<rect class="color" x="1199.93" y="172.05" fill="#D17821" width="92.99" height="92.99" />
		<rect class="color" x="1199.93" y="286.03" fill="#E3E5E6" width="92.99" height="92.99" />
		<rect class="color" x="1199.93" y="394.02" fill="#031727" width="92.99" height="92.99" />
		<rect class="color" x="1199.93" y="512.87" fill="#FAB863" width="92.99" height="92.99" />
		<rect class="color" x="1314.85" y="172.56" fill="#CB9A68" width="92.99" height="92.99" />
		<rect class="color" x="1314.85" y="286.53" fill="#423927" width="92.99" height="92.99" />
		<rect class="color" x="1314.85" y="394.52" fill="#DB9C9E" width="92.99" height="92.99" />
		<rect class="color" x="1314.85" y="513.38" fill="#3A5865" width="92.99" height="92.99" />
	</g>
</svg>